<svg width="100%" height="120" viewBox="0 0 120 120" fill="none" xmlns="http://www.w3.org/2000/svg">
<path d="M49.344 47.2679L37.068 51.9539L42.708 99.2399L43.8 104.694C51.33 107.136 69.978 106.734 76.044 104.094L80.4 52.7519L62.718 47.1599L49.344 47.2679Z" fill="#5156F2"/>
<path d="M109.08 91.326L71.082 88.656L74.964 33.342L112.956 36.012L109.08 91.326Z" fill="#E6E6E6"/>
<path d="M50.8501 98.0999C50.8501 98.0999 45.7201 99.8099 45.1321 93.8999C44.5321 90.0839 49.8001 90.0839 50.8501 90.0839C51.9001 90.0839 55.3261 89.4839 56.4421 86.6639C57.5581 83.8439 58.6321 82.2719 60.5221 84.0359C61.4281 84.8819 63.7921 85.4159 63.7921 85.4159C63.8664 85.7392 63.8381 86.0776 63.7112 86.384C63.5843 86.6905 63.3651 86.9498 63.0841 87.1259C62.1001 87.7259 59.4841 87.7259 59.2741 87.7259C59.0641 87.7259 59.0761 92.1299 59.0761 92.1299L60.5881 91.5299L62.3401 89.3999C62.3401 89.3999 63.4021 86.2739 64.6021 85.6259C65.8021 84.9779 66.0901 85.8959 66.0901 85.8959C66.1464 89.1406 65.111 92.3102 63.1501 94.8959L58.6801 96.2759L63.3721 94.0559L65.6701 88.7999L67.1521 89.2139C67.6281 89.3463 68.0477 89.6309 68.3467 90.0242C68.6457 90.4175 68.8078 90.8979 68.8081 91.3919V92.7059C68.809 93.1256 68.715 93.54 68.5332 93.9182C68.3513 94.2964 68.0864 94.6285 67.7581 94.8899C66.2521 96.0899 63.4981 98.2139 62.1721 98.7419C59.3761 99.8519 57.8821 98.9219 57.3721 98.1899L56.0461 96.2759L50.8501 98.0999Z" fill="#E6B295"/>
<path d="M37.068 51.9539C27.57 54.3539 28.896 96.1139 35.802 101.28C40.722 104.964 49.602 98.5319 49.602 98.5319C49.602 98.5319 42.6 97.5958 47.358 90.5578C46.4104 90.1879 45.5883 89.5547 44.9887 88.733C44.3892 87.9112 44.0371 86.9351 43.974 85.9199C42.504 67.6379 39 52.1999 37.068 51.9539Z" fill="#696EFF"/>
<path d="M57.996 62.5199L62.856 47.2379L63.732 46.3499C63.732 46.3499 63.192 43.6379 63.66 38.4659L49.458 38.3999C49.458 38.3999 50.316 43.7999 50.508 46.5959L49.344 47.2679L57.996 62.5199Z" fill="#E6B295"/>
<path d="M65.8199 30.6C65.8199 42.72 59.2199 46.026 56.9879 46.026C54.7559 46.026 46.8779 42.768 46.6379 29.766C46.3619 15.03 58.4939 17.766 58.4939 17.766C58.4939 17.766 65.8199 19.302 65.8199 30.6Z" fill="#EBB698"/>
<path d="M48.774 100.248C48.4498 100.174 48.1594 99.9937 47.9487 99.7363C47.738 99.4788 47.6189 99.1587 47.61 98.8261C52.0162 94.7522 56.695 90.9835 61.614 87.5462C62.814 87.3542 63.54 86.8381 63.81 86.0521C63.81 86.0521 67.71 83.5141 69.6 82.4521L66.09 85.9021C64.56 85.2061 63.336 86.5381 62.34 89.4061C62.34 89.4001 54.798 96.2581 48.774 100.248Z" fill="#352723"/>
<path d="M60.528 54.6C61.986 51.966 62.832 48.894 66.276 48.726L62.61 47.262L60.528 54.6Z" fill="#696EFF"/>
<path d="M62.61 47.2381L68.238 50.2741L68.178 48.8881L63.564 44.9641C63.648 45.7801 63.402 46.3981 62.61 47.2381Z" fill="#696EFF"/>
<path d="M53.49 54.6C51.522 51.45 50.742 48.894 47.298 48.726L51.288 47.262L53.49 54.6Z" fill="#696EFF"/>
<path d="M51.288 47.238L45.66 50.274L45.762 48.636L50.358 45C50.4192 45.8266 50.7453 46.6115 51.288 47.238Z" fill="#696EFF"/>
<path d="M47.826 24.1559C45.108 28.7519 49.74 41.1359 49.74 41.1359C49.74 41.1359 39.762 39.0479 39.654 34.2959C39.252 16.6199 50.316 10.4639 56.778 10.5239C61.986 10.5659 73.08 17.5859 72.234 33.9239C72.114 36.1919 65.25 39.7499 63.564 40.9019C63.564 40.9019 67.866 28.5779 63.876 22.7159C61.422 19.0979 52.518 16.1999 47.826 24.1559Z" fill="#442B27"/>
<path d="M53.16 39.9538C54.2031 40.7406 55.4808 41.1532 56.7871 41.1249C58.0933 41.0966 59.352 40.6291 60.36 39.7979C57.9836 40.2329 55.553 40.2856 53.16 39.9538Z" fill="white"/>
<path d="M48.1799 32.2921C48.3269 32.6022 48.5456 32.8727 48.8179 33.0814C49.0902 33.2901 49.4084 33.4309 49.7459 33.4921C51.2452 33.8246 52.8114 33.6691 54.2159 33.0482C56.0159 32.1302 55.4879 30.3601 55.0799 29.5021C55.0091 29.3481 54.9024 29.2132 54.7688 29.1089C54.6352 29.0045 54.4785 28.9336 54.3119 28.9021C52.2768 28.4864 50.1752 28.5233 48.1559 29.0101C47.0279 29.3521 47.6519 31.1521 48.1799 32.2921Z" stroke="#442B27" stroke-width="0.86" stroke-miterlimit="10"/>
<path d="M64.4101 32.2921C64.2631 32.6021 64.0444 32.8726 63.7721 33.0813C63.4998 33.29 63.1816 33.4308 62.8441 33.4921C61.3448 33.8246 59.7786 33.669 58.3741 33.0481C56.5741 32.1301 57.1021 30.3601 57.5101 29.5021C57.5803 29.3488 57.6861 29.2144 57.8186 29.11C57.9511 29.0057 58.1065 28.9344 58.2721 28.9021C60.3092 28.4864 62.4128 28.5233 64.4341 29.0101C65.5621 29.3521 64.9381 31.1521 64.4101 32.2921Z" stroke="#442B27" stroke-width="0.86" stroke-miterlimit="10"/>
<path d="M54.6 28.998C55.7258 29.2132 56.8822 29.2132 58.008 28.998C57.7328 29.2174 57.5454 29.5283 57.48 29.874C57.48 29.874 56.736 29.472 55.128 29.874C55.128 29.874 54.93 29.136 54.6 28.998Z" fill="#442B27"/>
<path d="M47.55 30.7799C47.55 30.7799 46.662 30.7259 46.35 29.0759C46.23 28.4759 48.75 28.8899 48.75 28.8899L47.91 29.1419L47.556 29.3519C47.4219 29.8182 47.4198 30.3125 47.55 30.7799Z" fill="#442B27"/>
<path d="M64.8541 30.7139C64.8541 30.7139 65.7421 30.6539 66.0541 29.0039C66.1741 28.4039 63.6541 28.8179 63.6541 28.8179L64.4941 29.0699L64.8481 29.2799C64.982 29.7482 64.9841 30.2445 64.8541 30.7139Z" fill="#442B27"/>
<path d="M114 66.5519L112.89 65.4119C112.89 65.4119 115.632 60.1739 112.47 59.9579C112.147 59.9439 111.823 59.9783 111.51 60.0599C109.567 60.5518 107.708 61.3325 105.996 62.3759C105.706 62.571 105.485 62.8536 105.366 63.1828C105.248 63.5119 105.237 63.8703 105.336 64.2059L105.486 64.7399L103.986 65.0879C103.814 65.1287 103.654 65.2069 103.516 65.3168C103.378 65.4267 103.266 65.5657 103.188 65.7239C103.104 65.9059 103.085 66.1107 103.131 66.3055C103.178 66.5002 103.289 66.6736 103.446 66.7979L103.65 66.9659L103.482 67.3739C103.399 67.5743 103.368 67.792 103.39 68.0077C103.412 68.2234 103.487 68.4302 103.608 68.6099C103.673 68.7083 103.763 68.7882 103.868 68.8418C103.973 68.8955 104.09 68.921 104.208 68.9159H104.808L104.91 69.2279C104.975 69.4263 105.082 69.6083 105.224 69.7616C105.366 69.9148 105.539 70.0357 105.732 70.1159L110.49 72.1739L110.364 73.9739L112.722 73.1459C112.952 72.9528 113.139 72.7138 113.272 72.4441C113.404 72.1744 113.478 71.88 113.49 71.5799C113.476 71.3618 113.547 71.1468 113.688 70.9799C113.833 70.8077 113.939 70.6052 113.996 70.3872C114.053 70.1692 114.06 69.9412 114.018 69.7199C113.973 69.4537 114.015 69.1802 114.138 68.9399C114.354 68.3579 114.72 67.2779 114 66.5519Z" fill="#EBB698"/>
<path d="M45.66 29.19C45.66 29.19 56.892 28.8 60.414 20.646C63.936 12.492 48.678 20.046 48.678 20.046L45.66 29.19Z" fill="#442B27"/>
<path d="M79.5425 37.5821L79.5005 38.1821L102.798 39.813L102.84 39.213L79.5425 37.5821Z" fill="white"/>
<path d="M79.3287 41.1297L79.287 41.7283L91.1382 42.5549L91.1799 41.9564L79.3287 41.1297Z" fill="white"/>
<path d="M78.858 47.7123L78.8154 48.3108L102.055 49.9644L102.097 49.3659L78.858 47.7123Z" fill="white"/>
<path d="M78.6232 51.0055L78.5806 51.604L101.82 53.2576L101.862 52.6591L78.6232 51.0055Z" fill="white"/>
<path d="M78.4107 54.0221L78.3687 54.6221L101.667 56.2529L101.709 55.6529L78.4107 54.0221Z" fill="white"/>
<path d="M78.1902 57.3126L78.1482 57.9126L101.446 59.5435L101.488 58.9435L78.1902 57.3126Z" fill="white"/>
<path d="M77.9638 60.6026L77.9218 61.2026L101.22 62.8335L101.262 62.2335L77.9638 60.6026Z" fill="white"/>
<path d="M77.7378 63.8871L77.6958 64.4871L100.994 66.1179L101.036 65.5179L77.7378 63.8871Z" fill="white"/>
<path d="M77.5115 67.1712L77.4695 67.7712L100.767 69.4021L100.809 68.8021L77.5115 67.1712Z" fill="white"/>
<path d="M77.2911 70.462L77.2491 71.062L100.547 72.6929L100.589 72.0929L77.2911 70.462Z" fill="white"/>
<path d="M76.9912 74.0382L76.9486 74.6367L100.188 76.2903L100.23 75.6918L76.9912 74.0382Z" fill="white"/>
<path d="M76.4056 82.7851L76.363 83.3835L87.9856 84.2105L88.0282 83.6121L76.4056 82.7851Z" fill="white"/>
</svg>
