<svg width="650" height="512" viewBox="0 0 650 512" fill="none" xmlns="http://www.w3.org/2000/svg">
<g clip-path="url(#clip0)">
<path opacity="0.42" d="M115.004 483.927C88.322 473.672 61.4662 461.851 40.8298 442.085C8.21343 410.893 -4.55773 362.546 1.40847 317.855C7.37468 273.164 30.3691 232.033 60.0577 198.119C80.9315 174.381 105.255 153.46 124.072 127.965C154.14 87.23 172.134 33.012 217.711 11.0462C235.119 2.65868 254.695 0.0949544 273.955 -0.0316494C327.192 -0.253206 378.925 17.5821 427.177 40.0385C446.532 49.0432 465.981 59.1556 480.351 74.8545C505.893 103.024 511.005 143.3 522.542 179.508C537.945 227.272 565.968 269.987 603.647 303.137C621.641 318.963 642.942 334.266 648.56 357.529C652.501 373.893 647.69 391.063 641.502 406.715C634.143 425.278 624.505 443.446 609.772 456.929C578.833 485.209 532.86 487.393 490.97 488.042L392.14 489.625C347.575 490.321 304.656 504.231 260.788 503.013C207.852 501.43 165.74 503.409 115.004 483.927Z" fill="#4F56F1"/>
<path d="M469.906 461.281C469.906 461.281 439.505 445.456 422.572 441.341C414.738 439.41 404.42 428.601 394.608 415.894C391.443 411.716 388.278 407.316 385.113 402.964C385.113 402.964 332.683 317.997 361.201 299.434C361.201 299.434 373.434 299.165 380.191 302.805C386.949 306.445 401.793 337.241 404.278 342.685C406.762 348.129 433.792 398.596 435.596 399.736C437.4 400.875 440.423 405.022 451.232 410.814C464.462 417.935 485.257 438.793 485.257 438.793L469.906 461.281Z" fill="#4F56F1"/>
<path d="M469.906 461.281C469.906 461.281 439.505 445.456 422.572 441.341C414.738 439.41 404.42 428.601 394.608 415.894C391.443 411.716 388.278 407.316 385.113 402.964C385.113 402.964 332.683 317.997 361.201 299.434C361.201 299.434 373.434 299.165 380.191 302.805C386.949 306.445 401.793 337.241 404.278 342.685C406.762 348.129 433.792 398.596 435.596 399.736C437.4 400.875 440.423 405.022 451.232 410.814C464.462 417.935 485.257 438.793 485.257 438.793L469.906 461.281Z" fill="url(#paint0_linear)"/>
<path d="M376.662 349.442C377.907 332.921 378.762 317.485 379.226 303.137C375.238 301.032 370.459 298.563 366.566 296.807C354.712 291.157 338.175 283.545 327.572 278.687C321.368 275.838 315.291 273.749 315.291 273.749C315.291 273.749 272.895 269.682 269.397 269.904C264.856 271.131 260.399 272.653 256.056 274.461C241.038 280.174 212.046 291.774 207.44 295.034C200.667 299.877 176.454 418.473 175.789 426.623C175.156 434.441 208.722 445.155 239.788 453.368C239.788 465.396 239.519 482.25 239.25 497.68C239.25 500.307 239.155 502.886 239.107 505.387H375.096C374.906 502.744 374.747 500.133 374.621 497.68V496.698C374.099 486.285 372.073 467.611 372.595 449.428C372.595 449.428 372.263 430.279 374.178 422.018C374.463 385.509 376.662 349.442 376.662 349.442ZM204.244 419.217C204.449 403.771 225.023 375.016 225.023 375.016C225.338 374.879 225.66 374.757 225.988 374.652C225.988 374.652 227.048 374.51 227.048 374.526C227.048 374.542 230.213 371.503 230.213 371.503C230.957 374.241 237.778 413.061 239.455 435.66C220.275 431.861 204.133 426.576 204.244 419.217Z" fill="white"/>
<path d="M376.662 349.442C377.907 332.921 378.762 317.485 379.226 303.137C375.238 301.032 370.459 298.563 366.566 296.807C354.712 291.157 338.175 283.545 327.572 278.687C321.368 275.838 315.291 273.749 315.291 273.749C315.291 273.749 272.895 269.682 269.397 269.904C264.856 271.131 260.399 272.653 256.056 274.461C241.038 280.174 212.046 291.774 207.44 295.034C200.667 299.877 176.454 418.473 175.789 426.623C175.156 434.441 208.722 445.155 239.788 453.368C239.788 465.396 239.519 482.25 239.25 497.68C239.25 500.307 239.155 502.886 239.107 505.387H375.096C374.906 502.744 374.747 500.133 374.621 497.68V496.698C374.099 486.285 372.073 467.611 372.595 449.428C372.595 449.428 372.263 430.279 374.178 422.018C374.463 385.509 376.662 349.442 376.662 349.442ZM204.244 419.217C204.449 403.771 225.023 375.016 225.023 375.016C225.338 374.879 225.66 374.757 225.988 374.652C225.988 374.652 227.048 374.51 227.048 374.526C227.048 374.542 230.213 371.503 230.213 371.503C230.957 374.241 237.778 413.061 239.455 435.66C220.275 431.861 204.133 426.576 204.244 419.217Z" fill="url(#paint1_linear)"/>
<path d="M379.179 497.585C378.292 491.144 377.438 484.703 376.678 478.404C376.678 478.404 376.678 478.404 376.678 478.325C376.441 476.22 376.187 474.147 375.95 472.09C375.95 471.995 375.95 471.884 375.95 471.758C374.953 463.085 374.13 454.761 373.529 447.149C373.159 441.431 373.414 435.689 374.288 430.026C376.662 391.063 377.833 349.981 377.833 349.981C379.084 333.174 379.796 317.443 380.27 302.805C380.27 302.805 327.049 277.642 322.223 276.202C322.223 276.202 332.319 299.94 339.884 352.908C342.796 373.26 348.176 407.506 352.101 442.48C354.222 461.344 358.194 480.572 361.201 497.585C361.676 500.212 362.103 502.776 362.514 505.292H380.334C379.906 502.728 379.543 500.149 379.179 497.585Z" fill="#4F56F1"/>
<path d="M290.572 434.995C292.661 415.292 294.56 395.637 293.642 384.86C286.299 298.247 265.536 275.332 262.529 271.977C260.187 272.863 251.324 276.186 248.729 277.215C234.486 282.817 205.573 293.041 201.664 295.889C194.907 300.732 168.225 425.152 167.418 433.191C166.88 438.635 201.696 449.998 237.224 460.094C236.892 469.843 237.81 483.579 234.581 497.917C233.762 500.352 233.231 502.875 232.999 505.434L282.517 505.244C282.817 502.681 283.134 500.117 283.434 497.537C284.384 489.799 285.365 481.87 286.346 473.435C301.191 477.281 311.287 479.765 311.287 479.765C311.287 479.765 325.245 456.185 329.297 446.627C330.025 445.044 312.063 440.819 290.572 434.995ZM220.845 406.193C220.559 395.575 222.36 385.004 226.146 375.08C227.903 381.157 230.34 398.517 232.476 415.767C225.276 412.143 220.94 409.769 220.845 406.193Z" fill="#4F56F1"/>
<path d="M267.277 271.138C267.277 271.138 272.673 260.946 271.185 232.017C270.774 224.01 313.265 251.008 313.265 251.008C313.265 251.008 313.123 253.777 313.028 257.496C313.028 259.079 312.949 260.757 312.949 262.497C312.949 262.988 312.949 263.463 312.949 263.937C312.949 264.729 312.949 265.52 312.949 266.295C312.949 267.071 312.949 268.226 313.044 269.144C313.139 270.062 313.17 271.17 313.265 272.072C313.587 274.017 314.118 275.922 314.848 277.753C316.81 282.263 283.197 282.564 267.277 271.138Z" fill="#E4AA8B"/>
<path d="M302.916 289.527L308.787 297.44C310.179 299.307 311.145 300.478 311.002 302.979C310.826 305.788 309.587 308.425 307.537 310.353C307.286 310.643 306.971 310.869 306.616 311.012C306.26 311.155 305.876 311.212 305.495 311.176C305.036 311.015 304.631 310.73 304.324 310.353C301.999 308.297 300.045 305.856 298.548 303.137C297.709 301.301 298.753 299.814 299.481 298.01L302.916 289.527Z" fill="#18202D"/>
<path d="M307.98 301.396C310.543 303.09 311.699 310.1 313.06 312.949C316.225 319.627 320.149 325.942 322.856 332.857C326.29 341.641 327.603 351.073 328.774 360.425C330.61 375.829 331.802 391.285 332.351 406.794C332.762 418.299 332.81 429.852 334.551 441.23C335.643 448.383 337.368 455.885 334.772 462.626C332.794 467.77 328.569 471.663 324.375 475.287C321.083 472.391 317.681 469.321 316.051 465.253C315.19 462.884 314.658 460.408 314.468 457.895L311.05 427.684C309.8 416.511 308.534 405.354 307.568 394.15C306.872 386.237 306.334 378.324 306.35 370.411C306.35 363.511 306.809 356.612 306.144 349.743C305.448 342.479 303.501 335.374 302.583 328.126C301.744 321.542 298.848 307.632 304.245 302.298C305.812 300.874 306.999 300.732 307.98 301.396Z" fill="#18202D"/>
<path d="M311.303 279.715L302.916 289.527C302.916 289.527 289.448 286.916 285.507 279.889C281.567 272.863 311.303 279.715 311.303 279.715Z" fill="#E4AA8B"/>
<path d="M313.218 271.138C313.218 271.138 312.253 278.608 302.916 289.527L319.627 308.518L318.614 274.889L313.218 271.138Z" fill="white"/>
<path d="M269.84 262.133C269.84 262.133 289.306 284.147 302.916 289.527L293.23 312.015L265.52 270.869L269.84 262.133Z" fill="white"/>
<path d="M313.218 271.138C313.218 271.138 312.253 278.608 302.916 289.527L319.627 308.518L318.614 274.889L313.218 271.138Z" fill="url(#paint2_linear)"/>
<path d="M269.84 262.133C269.84 262.133 289.306 284.147 302.916 289.527L293.23 312.015L265.52 270.869L269.84 262.133Z" fill="url(#paint3_linear)"/>
<path d="M345.913 490.273C344.153 490.226 342.412 489.901 340.754 489.308C340.754 489.308 338.064 487.567 336.007 486.459C335.495 486.16 334.967 485.89 334.424 485.652C331.327 484.758 328.398 483.363 325.752 481.522C322.349 478.942 311.271 468.577 311.271 468.577L318.44 457.499L321.732 446.595C321.732 446.595 347.559 449.175 351.009 451.216C351.331 451.41 351.643 451.622 351.943 451.849C354.697 453.859 355.899 456.597 357.213 457.736C357.703 458.195 362.198 463.006 361.96 464.953C361.897 466.048 361.553 467.109 360.963 468.034C360.373 468.96 359.556 469.718 358.59 470.238C358.59 470.238 357.688 475.508 354.95 477.866C354.717 479.312 354.153 480.684 353.302 481.875C352.451 483.067 351.336 484.045 350.044 484.734C350.044 484.734 348.841 489.688 345.913 490.273Z" fill="#E5AB8C"/>
<path d="M304.799 157.4C304.799 157.4 351.468 146.164 341.64 205.241C331.813 264.317 320.608 269.112 292.186 257.338C263.763 245.564 265.741 207.773 264.048 189.289C262.355 170.805 289.907 158.271 304.799 157.4Z" fill="#E4A98A"/>
<path d="M280.285 198.325C279.589 193.134 269.286 191.377 268.574 199.179C267.862 206.981 273.559 220.591 277.437 219.183C281.314 217.774 281.235 205.478 280.285 198.325Z" fill="#E4A98A"/>
<path d="M330.61 446.674L311.335 479.813C311.335 479.813 260.298 466.646 248.381 463.291L275.664 430.896C275.664 430.896 315.75 440.059 330.61 446.674Z" fill="#4F56F1"/>
<path d="M313.091 269.16C305.965 268.575 299.083 266.288 293.024 262.49C286.966 258.692 281.908 253.496 278.275 247.336C287.481 256.575 299.837 261.996 312.87 262.513C312.87 263.004 312.87 263.478 312.87 263.953C312.87 264.744 312.87 265.536 312.87 266.311C312.87 267.087 313.044 268.321 313.091 269.16Z" fill="#A07A64"/>
<path d="M286.884 511.685L527.906 511.685C534.663 511.685 540.139 506.208 540.139 499.452V499.436C540.139 492.68 534.663 487.203 527.906 487.203L286.884 487.203C280.128 487.203 274.651 492.68 274.651 499.436V499.452C274.651 506.208 280.128 511.685 286.884 511.685Z" fill="#4F56F1"/>
<path d="M286.884 511.685L527.906 511.685C534.663 511.685 540.139 506.208 540.139 499.452V499.436C540.139 492.68 534.663 487.203 527.906 487.203L286.884 487.203C280.128 487.203 274.651 492.68 274.651 499.436V499.452C274.651 506.208 280.128 511.685 286.884 511.685Z" fill="url(#paint4_linear)"/>
<path d="M380.112 488.295L384.148 501.288L555.411 511.701L604.201 387.978C604.851 386.329 605.088 384.547 604.892 382.786C604.696 381.024 604.072 379.338 603.075 377.873C602.078 376.408 600.738 375.209 599.172 374.38C597.606 373.551 595.861 373.118 594.089 373.117H448.937C441.911 373.119 435.048 375.233 429.237 379.183C423.427 383.134 418.938 388.74 416.353 395.273L380.112 488.295Z" fill="#4F56F1"/>
<path d="M380.112 488.295L384.148 501.288L555.411 511.701L604.201 387.978C604.851 386.329 605.088 384.547 604.892 382.786C604.696 381.024 604.072 379.338 603.075 377.873C602.078 376.408 600.738 375.209 599.172 374.38C597.606 373.551 595.861 373.118 594.089 373.117H448.937C441.911 373.119 435.048 375.233 429.237 379.183C423.427 383.134 418.938 388.74 416.353 395.273L380.112 488.295Z" fill="url(#paint5_linear)"/>
<path d="M379.859 511.844H555.522L601.859 394.324C602.475 392.758 602.699 391.065 602.512 389.392C602.325 387.72 601.732 386.119 600.785 384.728C599.839 383.336 598.567 382.197 597.079 381.41C595.592 380.622 593.936 380.209 592.253 380.207H454.397C447.723 380.203 441.202 382.209 435.684 385.963C430.165 389.717 425.905 395.046 423.458 401.255L379.859 511.844Z" fill="#4F56F1"/>
<path d="M379.859 511.844H555.522L601.859 394.324C602.475 392.758 602.699 391.065 602.512 389.392C602.325 387.72 601.732 386.119 600.785 384.728C599.839 383.336 598.567 382.197 597.079 381.41C595.592 380.622 593.936 380.209 592.253 380.207H454.397C447.723 380.203 441.202 382.209 435.684 385.963C430.165 389.717 425.905 395.046 423.458 401.255L379.859 511.844Z" fill="url(#paint6_linear)"/>
<path d="M147.272 286.995V340.596C147.272 341.955 147.004 343.301 146.484 344.557C145.964 345.812 145.202 346.953 144.241 347.914C143.279 348.875 142.138 349.638 140.883 350.158C139.627 350.678 138.281 350.946 136.922 350.946H49.8819C47.1383 350.942 44.5082 349.85 42.5681 347.91C40.628 345.97 39.5362 343.34 39.5321 340.596V286.995C39.5389 286.417 39.5864 285.841 39.6745 285.27L101.267 326.701L146.971 284.764C147.152 285.494 147.253 286.243 147.272 286.995Z" fill="white"/>
<path d="M285.159 205.193C283.925 202.028 282.342 198.61 279.162 197.534C274.999 196.141 270.489 200.287 270.283 204.687C270.078 209.086 273.005 213.09 276.519 215.765C274.453 222.829 271.806 229.71 268.606 236.338C264.674 224.057 262.63 211.251 262.545 198.357C260.962 197.898 260.123 196.03 259.775 194.369C257.56 183.845 263.035 173.321 269.002 164.3C271.408 160.271 274.529 156.716 278.212 153.808C286.457 147.952 297.424 148.68 307.489 147.778C315.782 147.035 324.438 145.072 332.161 148.158C337.667 150.628 342.143 154.936 344.821 160.344C347.479 165.725 349.309 171.476 350.25 177.404C351.598 183.348 352.094 189.455 351.721 195.54C351.316 201.665 348.959 207.5 344.995 212.188C343.888 213.407 341.007 214.847 339.678 213.881C340.96 208.739 341.561 203.45 341.466 198.151C341.308 193.593 341.277 190.855 338.301 187.421C337.72 186.661 336.992 186.025 336.16 185.552C335.328 185.079 334.409 184.778 333.459 184.667C331.639 184.667 329.93 185.664 328.126 185.728C324.85 185.87 322.349 183.006 319.485 181.407C317.704 180.462 315.727 179.944 313.71 179.894C311.694 179.845 309.694 180.265 307.869 181.123C306.037 181.991 304.396 183.212 303.038 184.717C301.68 186.221 300.632 187.979 299.956 189.89C299.133 192.185 298.374 195.112 295.968 195.635C292.803 196.299 290.461 191.71 287.723 193.53C285.286 195.223 285.413 202.629 285.159 205.193Z" fill="#18202D"/>
<path d="M232.476 415.767L268.875 427.699C268.875 427.699 257.006 355.915 254.046 352.94C251.087 349.965 216.065 312.015 216.065 312.015C216.065 312.015 234.391 349.158 226.114 375.08" fill="url(#paint7_linear)"/>
<path d="M311.335 479.813L319.975 463.892C319.975 463.892 186.883 423.411 185.111 420.736C183.338 418.062 187.326 349.98 187.326 349.98L167.418 433.191C167.418 433.191 209.308 457.451 311.335 479.813Z" fill="url(#paint8_linear)"/>
<path d="M269.65 470.112V505.276L233.046 505.482C233.046 505.482 238.173 480.43 237.224 460.142L269.65 470.112Z" fill="url(#paint9_linear)"/>
<path d="M145.895 278.829L100.191 320.767L38.5509 279.399C38.9649 276.991 40.2161 274.807 42.0837 273.232C43.9513 271.657 46.3152 270.792 48.7583 270.79H135.798C138.144 270.785 140.421 271.578 142.256 273.039C144.091 274.5 145.374 276.542 145.895 278.829Z" fill="white"/>
<path d="M226.178 146.592C245.336 146.592 260.867 131.061 260.867 111.902C260.867 92.7436 245.336 77.2126 226.178 77.2126C207.019 77.2126 191.488 92.7436 191.488 111.902C191.488 131.061 207.019 146.592 226.178 146.592Z" fill="white"/>
<path d="M212.251 163.335L202.804 137.128H249.995L242.51 162.654L212.251 163.335Z" fill="white"/>
<path d="M213.739 168.288H240.437V170.472C240.437 171.432 240.247 172.383 239.88 173.27C239.513 174.157 238.974 174.963 238.295 175.642C237.616 176.321 236.81 176.86 235.923 177.227C235.036 177.595 234.085 177.784 233.125 177.784H221.05C220.09 177.784 219.139 177.595 218.252 177.227C217.365 176.86 216.559 176.321 215.88 175.642C215.201 174.963 214.663 174.157 214.296 173.27C213.928 172.383 213.739 171.432 213.739 170.472V168.288Z" fill="white"/>
<g opacity="0.42">
<path opacity="0.42" d="M219.404 163.873C216.908 158.345 215.51 152.384 215.29 146.322C215.042 140.106 217.182 134.03 221.272 129.342C221.801 128.659 222.462 128.089 223.215 127.665C223.967 127.241 224.797 126.972 225.656 126.873C226.711 126.908 227.737 127.236 228.617 127.82C229.497 128.404 230.198 129.221 230.641 130.18C231.629 129.562 232.784 129.264 233.948 129.326C236.971 129.547 239.012 132.412 239.709 135.165C240.243 137.77 240.318 140.448 239.93 143.078C239.159 150.091 237.592 156.993 235.262 163.651L233.774 163.129C236.069 156.569 237.603 149.767 238.348 142.857C238.742 140.382 238.683 137.856 238.173 135.403C237.62 133.203 236.069 130.924 233.837 130.766C232.948 130.717 232.067 130.968 231.337 131.478C231.432 131.715 231.511 131.937 231.59 132.174C232.523 135.102 232.762 138.207 232.286 141.242C232.143 142.736 231.495 144.137 230.451 145.215C230.087 145.538 229.66 145.783 229.197 145.932C228.734 146.082 228.245 146.134 227.76 146.085C227.383 146.057 227.015 145.951 226.68 145.774C226.345 145.597 226.05 145.352 225.814 145.056C225.384 144.42 225.147 143.672 225.133 142.904C224.818 139.356 225.747 135.809 227.76 132.871C228.214 132.189 228.745 131.562 229.343 131.003C229.044 130.261 228.546 129.616 227.903 129.139C227.261 128.661 226.5 128.37 225.703 128.297C224.385 128.5 223.198 129.21 222.396 130.275C218.627 134.668 216.645 140.316 216.841 146.101C217.061 151.96 218.415 157.722 220.829 163.066L219.404 163.873ZM230.055 132.697C229.691 133.066 229.363 133.469 229.074 133.899C227.277 136.542 226.44 139.719 226.7 142.904C226.708 143.373 226.839 143.831 227.08 144.233C227.178 144.36 227.302 144.463 227.444 144.537C227.587 144.611 227.743 144.653 227.903 144.661C228.186 144.698 228.475 144.674 228.748 144.589C229.021 144.504 229.273 144.361 229.485 144.17C230.252 143.334 230.715 142.263 230.799 141.132C231.239 138.34 231.022 135.485 230.166 132.792C230.166 132.792 230.071 132.744 230.055 132.712V132.697Z" fill="#4F56F1"/>
</g>
<path d="M503.314 181.787H390.193C385.307 181.787 381.347 185.748 381.347 190.634V264.602C381.347 269.488 385.307 273.449 390.193 273.449H503.314C508.199 273.449 512.16 269.488 512.16 264.602V190.634C512.16 185.748 508.199 181.787 503.314 181.787Z" fill="white"/>
<path opacity="0.42" d="M413.093 206.111H386.98V230.134H413.093V206.111Z" fill="#4F56F1"/>
<path opacity="0.42" d="M444.538 206.111H418.426V230.134H444.538V206.111Z" fill="#4F56F1"/>
<path opacity="0.42" d="M413.093 235.183H386.98V259.206H413.093V235.183Z" fill="#4F56F1"/>
<path opacity="0.42" d="M444.538 235.183H418.426V259.206H444.538V235.183Z" fill="#4F56F1"/>
<path opacity="0.42" d="M474.796 206.111H448.684V230.134H474.796V206.111Z" fill="#4F56F1"/>
<path opacity="0.42" d="M506.225 206.111H480.113V230.134H506.225V206.111Z" fill="#4F56F1"/>
<path opacity="0.42" d="M474.796 235.183H448.684V259.206H474.796V235.183Z" fill="#4F56F1"/>
<path opacity="0.42" d="M506.225 235.183H480.113V259.206H506.225V235.183Z" fill="#4F56F1"/>
</g>
<defs>
<linearGradient id="paint0_linear" x1="367.357" y1="422.161" x2="421.654" y2="374.985" gradientUnits="userSpaceOnUse">
<stop offset="0.01"/>
<stop offset="0.83" stop-opacity="0.07"/>
<stop offset="1" stop-opacity="0"/>
</linearGradient>
<linearGradient id="paint1_linear" x1="18351.6" y1="59710.4" x2="46728.9" y2="62885.6" gradientUnits="userSpaceOnUse">
<stop offset="0.01"/>
<stop offset="0.83" stop-opacity="0.07"/>
<stop offset="1" stop-opacity="0"/>
</linearGradient>
<linearGradient id="paint2_linear" x1="3440.7" y1="6322.93" x2="4325.62" y2="7162.66" gradientUnits="userSpaceOnUse">
<stop offset="0.01"/>
<stop offset="0.83" stop-opacity="0.07"/>
<stop offset="1" stop-opacity="0"/>
</linearGradient>
<linearGradient id="paint3_linear" x1="6791.43" y1="8649.29" x2="7856.44" y2="10344.9" gradientUnits="userSpaceOnUse">
<stop offset="0.01"/>
<stop offset="0.83" stop-opacity="0.07"/>
<stop offset="1" stop-opacity="0"/>
</linearGradient>
<linearGradient id="paint4_linear" x1="406.873" y1="523.206" x2="407.997" y2="472.137" gradientUnits="userSpaceOnUse">
<stop offset="0.01"/>
<stop offset="0.12" stop-opacity="0.75"/>
<stop offset="1" stop-opacity="0"/>
</linearGradient>
<linearGradient id="paint5_linear" x1="68326.5" y1="33185.6" x2="71494.1" y2="50490" gradientUnits="userSpaceOnUse">
<stop offset="0.01"/>
<stop offset="0.12" stop-opacity="0.75"/>
<stop offset="1" stop-opacity="0"/>
</linearGradient>
<linearGradient id="paint6_linear" x1="70676" y1="48952.7" x2="71049" y2="32970.3" gradientUnits="userSpaceOnUse">
<stop offset="0.01"/>
<stop offset="0.12" stop-opacity="0.75"/>
<stop offset="1" stop-opacity="0"/>
</linearGradient>
<linearGradient id="paint7_linear" x1="6744.4" y1="33167.5" x2="10926.7" y2="31542.5" gradientUnits="userSpaceOnUse">
<stop offset="0.01"/>
<stop offset="0.83" stop-opacity="0.07"/>
<stop offset="1" stop-opacity="0"/>
</linearGradient>
<linearGradient id="paint8_linear" x1="19655.1" y1="47028.6" x2="24503.5" y2="35171.9" gradientUnits="userSpaceOnUse">
<stop offset="0.01"/>
<stop offset="0.83" stop-opacity="0.07"/>
<stop offset="1" stop-opacity="0"/>
</linearGradient>
<linearGradient id="paint9_linear" x1="6463.47" y1="13074.2" x2="6117.06" y2="17731.2" gradientUnits="userSpaceOnUse">
<stop offset="0.01"/>
<stop offset="0.83" stop-opacity="0.07"/>
<stop offset="1" stop-opacity="0"/>
</linearGradient>
<clipPath id="clip0">
<rect width="650" height="511.844" fill="white"/>
</clipPath>
</defs>
</svg>
