<svg width="384" height="327" viewBox="0 0 384 327" fill="none" xmlns="http://www.w3.org/2000/svg">
<g clip-path="url(#clip0)">
<path opacity="0.18" d="M320.85 35.8099C317.151 29.2396 312.41 23.3132 306.812 18.2618C293.592 6.56304 275.681 1.2518 258.051 0.210615C240.421 -0.830574 222.826 2.03562 205.407 4.89012C195.673 6.56304 185.765 8.17747 177.014 12.7985C162.87 20.3091 154.155 34.371 147.463 48.3978C140.771 62.4246 136.536 77.9839 120.872 84.6639C111.01 88.8872 99.3341 90.2676 89.0626 93.8358C69.1748 100.761 49.8601 110.214 33.6339 123.843C17.8874 137.063 8.92615 164.356 3.96588 183.788C-0.994396 203.219 -1.77821 224.242 4.43383 243.451C14.4363 274.348 41.6359 297.371 71.7602 309.491C101.884 321.611 134.933 324.208 167.362 325.249C195.439 326.15 224.757 327.951 252.763 325.799C263.784 324.956 273.961 323.962 285.227 323.833C298.602 323.864 311.911 321.969 324.746 318.206C345.254 311.901 364.276 299.032 374.676 280.314C388.715 254.928 385.076 223.224 375.542 195.802C366.007 168.38 351.162 142.889 343.3 114.94C338.562 98.0707 336.445 80.5577 331.882 63.6296C329.414 53.9212 325.706 44.5711 320.85 35.8099Z" fill="#4F56F1"/>
<path opacity="0.18" d="M128.23 292.703C124.369 294.376 120.298 298.201 121.843 302.12C138.782 308.286 157.255 308.286 175.282 308.204C218.977 308.005 262.672 307.818 306.309 307.42C309.947 307.42 313.749 307.315 316.943 305.572C320.136 303.828 322.429 299.851 321.037 296.493C319.727 293.358 316.007 292.118 312.696 291.322C301.768 288.688 290.645 286.936 279.436 286.081C270.335 285.379 260.052 284.759 254.144 277.799C251.909 275.166 250.576 271.856 248.294 269.282C234.642 253.898 202.529 260.754 190.877 273.856C173.13 293.861 150.341 283.098 128.23 292.703Z" fill="#4F56F1"/>
<path d="M170.942 173.165C168.345 180.594 166.099 188.28 166.052 196.153C166.005 204.026 168.392 212.18 173.949 217.749C182.079 225.938 194.738 226.839 206.237 227.295L221.446 227.903C227.424 228.137 233.46 228.371 239.322 227.178C245.183 225.985 250.915 223.165 254.53 218.369C256.855 214.966 258.412 211.098 259.092 207.033C263.21 187.04 256.53 165.736 243.978 149.639C240.328 144.75 235.874 140.517 230.805 137.121C222.358 131.751 197.218 123.703 188.958 132.699C185.203 136.782 182.828 145.053 180.453 150.06C176.875 157.587 173.7 165.3 170.942 173.165Z" fill="white"/>
<path d="M178.745 168.907C176.64 174.92 174.826 181.132 174.791 187.508C174.756 193.884 176.686 200.47 181.179 204.974C187.753 211.56 198.001 212.321 207.29 212.695L219.609 213.186C224.432 213.568 229.282 213.368 234.057 212.59C238.795 211.619 243.416 209.349 246.317 205.465C248.207 202.72 249.469 199.593 250.014 196.305C253.348 180.126 247.943 162.905 237.789 149.885C234.839 145.926 231.234 142.5 227.131 139.753C220.299 135.413 199.967 128.909 193.287 136.174C190.257 139.484 188.327 146.176 186.42 150.212C183.53 156.302 180.969 162.543 178.745 168.907Z" fill="url(#paint0_linear)"/>
<path d="M193.451 275.553C192.281 277.588 190.982 279.542 189.871 281.589C188.174 284.771 187.005 288.526 188.128 291.943C188.285 292.537 188.605 293.076 189.052 293.498C189.649 293.919 190.348 294.174 191.076 294.235C193.441 294.606 195.83 294.801 198.224 294.82C201.499 294.82 205.032 294.434 207.466 292.235C212.344 287.801 212.017 276.886 209.221 271.528C208.95 270.846 208.483 270.26 207.879 269.844C207.275 269.427 206.561 269.199 205.828 269.188C203.617 268.758 201.357 268.636 199.113 268.826C196.598 269.107 195.931 269.715 195.053 272.113C194.611 273.3 194.075 274.45 193.451 275.553Z" fill="#4F56F1"/>
<path d="M199.873 276.02C200.46 276.125 201.055 276.184 201.651 276.196C203.476 276.278 205.547 276.266 206.846 274.968C208.144 273.669 208.168 271.762 208.168 269.996V263.14C208.168 258.613 203.933 259.233 200.61 259.794C199.838 259.886 199.1 260.163 198.458 260.601C197.288 261.526 197.159 263.21 197.112 264.684L196.878 271.902C196.775 272.767 196.905 273.643 197.253 274.441C197.542 274.885 197.928 275.258 198.382 275.531C198.836 275.805 199.346 275.972 199.873 276.02Z" fill="#FDBAAC"/>
<path d="M236.256 275.553C237.426 277.588 238.725 279.542 239.766 281.589C241.474 284.771 242.644 288.527 241.509 291.943C241.352 292.537 241.032 293.076 240.585 293.498C239.99 293.923 239.29 294.178 238.561 294.235C236.2 294.605 233.815 294.801 231.425 294.82C228.149 294.82 224.604 294.434 222.183 292.235C217.293 287.801 217.62 276.886 220.416 271.528C220.651 271.021 220.976 270.562 221.376 270.171C222.081 269.629 222.924 269.297 223.809 269.212C226.024 268.782 228.287 268.66 230.536 268.849C233.039 269.13 233.706 269.738 234.584 272.137C235.045 273.32 235.605 274.463 236.256 275.553Z" fill="#4F56F1"/>
<path d="M229.834 276.02C229.247 276.125 228.652 276.183 228.056 276.196C226.219 276.278 224.16 276.266 222.861 274.968C221.563 273.669 221.528 271.762 221.528 269.996V263.14C221.528 258.613 225.774 259.233 229.085 259.794C229.861 259.883 230.604 260.16 231.249 260.601C232.419 261.526 232.536 263.21 232.583 264.684L232.817 271.902C232.924 272.766 232.798 273.642 232.454 274.441C232.165 274.885 231.779 275.258 231.325 275.531C230.871 275.805 230.362 275.972 229.834 276.02Z" fill="#FDBAAC"/>
<path d="M226.605 98.41C226.605 98.41 240.877 104.587 242.55 105.991C244.048 107.243 239.988 192.924 239.672 197.112C239.357 201.301 216.521 201.967 206.647 200.084C200.059 198.742 193.612 196.784 187.391 194.234C187.391 194.234 184.267 105.733 186.221 104.154C188.175 102.575 207.045 96.7371 207.045 96.7371L226.605 98.41Z" fill="#4F56F1"/>
<path d="M179.658 204.085C178.593 207.992 177.95 212.391 179.985 215.877C181.342 218.012 183.371 219.634 185.753 220.486C188.12 221.321 190.586 221.844 193.088 222.042C208.418 223.791 223.932 222.949 238.982 219.551C241.082 219.264 243.053 218.374 244.656 216.989C245.986 215.364 246.757 213.354 246.855 211.256C247.747 203.822 246.208 196.299 242.468 189.812C242.209 189.281 241.803 188.834 241.299 188.525C240.814 188.311 240.282 188.222 239.754 188.268L200.809 188.397C197.982 188.467 195.153 188.362 192.339 188.081C190.152 187.824 187.66 186.431 186.092 188.303C182.758 192.211 180.968 199.218 179.658 204.085Z" fill="#473F47"/>
<path d="M179.658 204.085C178.593 207.992 177.95 212.391 179.985 215.877C181.342 218.012 183.371 219.634 185.753 220.486C188.12 221.321 190.586 221.844 193.088 222.042C208.418 223.791 223.932 222.949 238.982 219.551C241.082 219.264 243.053 218.374 244.656 216.989C245.986 215.364 246.757 213.354 246.855 211.256C247.747 203.822 246.208 196.299 242.468 189.812C242.209 189.281 241.803 188.834 241.299 188.525C240.814 188.311 240.282 188.222 239.754 188.268L200.809 188.397C197.982 188.467 195.153 188.362 192.339 188.081C190.152 187.824 187.66 186.431 186.092 188.303C182.758 192.211 180.968 199.218 179.658 204.085Z" fill="url(#paint1_linear)"/>
<path d="M226.067 265.69L228.348 265.913C235.25 266.603 238.035 260.718 238.725 253.816C238.889 252.377 239.228 250.927 239.474 249.499L244.024 222.99L246.13 210.706C246.341 209.466 246.563 208.238 246.762 206.998C247.37 203.395 246.282 199.92 245.592 196.305C245.183 194.117 244.656 191.766 242.971 190.315C241.287 188.865 238.959 188.736 236.783 188.631C231.004 188.373 225.143 188.104 219.515 189.45C219.169 189.494 218.85 189.66 218.615 189.918C218.457 190.215 218.404 190.557 218.463 190.889C218.872 196.387 219.749 201.839 219.632 207.337L218.638 251.512C217.936 258.379 219.165 265 226.067 265.69Z" fill="#473F47"/>
<path d="M204.483 267.445L202.143 267.668C195.252 268.358 192.456 262.473 191.766 255.571L184.337 212.286C183.741 208.846 183.238 205.535 182.98 202.037C182.695 199.672 182.774 197.278 183.214 194.936C183.442 193.767 183.934 192.665 184.651 191.715C185.369 190.764 186.294 189.989 187.356 189.45C188.478 189.023 189.665 188.794 190.865 188.771C194.816 188.513 198.784 188.701 202.693 189.333C204.097 189.452 205.447 189.931 206.612 190.725C207.764 191.845 208.575 193.269 208.951 194.831C210.121 198.2 211.631 201.921 211.291 205.524C211.012 207.825 210.879 210.143 210.893 212.461L211.233 227.786L211.806 252.857C211.794 252.997 211.794 253.138 211.806 253.278C212.566 260.098 211.338 266.72 204.483 267.445Z" fill="#473F47"/>
<path d="M324.535 177.107V179.634C324.537 180.119 324.443 180.6 324.258 181.048C324.074 181.497 323.802 181.904 323.46 182.248C323.118 182.591 322.711 182.864 322.263 183.05C321.815 183.236 321.335 183.331 320.85 183.331H104.903C104.418 183.331 103.938 183.236 103.49 183.05C103.042 182.864 102.635 182.591 102.293 182.248C101.951 181.904 101.679 181.497 101.495 181.048C101.31 180.6 101.216 180.119 101.218 179.634V177.107C101.218 176.13 101.606 175.193 102.297 174.502C102.988 173.811 103.925 173.422 104.903 173.422H320.85C321.827 173.422 322.765 173.811 323.456 174.502C324.147 175.193 324.535 176.13 324.535 177.107Z" fill="#473F47"/>
<path d="M257.361 134.255C257.361 134.255 266.626 153.558 265.632 158.822C264.942 162.531 257.841 165.783 255.033 167.468C252.225 169.152 249.406 171.223 246.493 172.369C243.58 173.516 240.257 173.071 237.298 172.978L222.089 172.486C221.364 172.486 220.393 172.217 220.393 171.48C220.393 171.047 220.767 170.708 221.13 170.463C222.268 169.67 223.588 169.179 224.967 169.035C228.253 168.827 231.5 168.206 234.63 167.187L252.132 155.137L247.908 147.311L257.361 134.255Z" fill="#FDBAAC"/>
<path d="M187.051 103.733C184.01 105.055 181.927 106.88 181.202 110.003C180.032 114.835 177.634 118.883 175.353 123.27C173.991 125.934 172.818 128.69 171.843 131.517C171.464 132.377 171.327 133.323 171.445 134.255C171.647 134.959 171.99 135.616 172.451 136.185C175.158 139.96 177.973 143.653 180.898 147.264C182.663 146.447 184.351 145.472 185.94 144.351C186.56 143.368 186.314 141.005 186.408 139.859C186.58 137.519 186.736 135.152 186.876 132.758L187.051 103.733Z" fill="#4F56F1"/>
<path d="M221.399 87.6705C221.512 88.2261 221.587 88.7891 221.621 89.3551C221.773 91.6247 221.539 93.9527 222.218 96.117C222.48 96.8968 222.833 97.6429 223.271 98.3397C224.897 100.913 222.885 105.113 221.457 107.453C219.644 110.413 216.778 113.302 213.14 113.653C208.565 114.063 206.577 108.974 205.734 105.359C205.243 103.277 204.822 101.779 205.606 99.7202C206.389 97.6612 207.606 95.6958 208.226 93.5199C208.747 91.0124 209.044 88.4639 209.115 85.904C209.146 85.2222 209.326 84.5553 209.642 83.9503C209.909 83.5546 210.255 83.2177 210.657 82.9602C211.059 82.7027 211.51 82.5301 211.981 82.4528C212.905 82.2909 213.846 82.2633 214.777 82.371C216.218 82.3676 217.637 82.7213 218.907 83.4004C219.584 83.9118 220.153 84.5526 220.581 85.2856C221.009 86.0186 221.287 86.8292 221.399 87.6705Z" fill="#FDBAAC"/>
<path d="M208.706 91.5194C208.706 91.5194 210.566 103.16 215.514 101.066C220.463 98.9715 221.668 92.2915 221.668 92.2915L208.706 91.5194Z" fill="#DEA095"/>
<path d="M223.411 98.2578C223.411 98.2578 219.036 111.735 214.427 113.536C214.427 113.536 213.198 114.344 216.825 116.098C220.451 117.853 229.155 106.658 227.096 99.2171C226.863 98.2655 226.388 97.39 225.718 96.6749C225.048 95.9599 224.205 95.4293 223.271 95.1343L223.411 98.2578Z" fill="white"/>
<path d="M206.085 96.9476C206.085 96.9476 205.419 106.634 209.864 112.87C209.864 112.87 208.448 115.467 207.068 115.595C205.688 115.724 201.511 107.769 202.389 101.452C202.798 97.8133 205.302 96.0351 206.085 96.9476Z" fill="white"/>
<path d="M202.236 65.5481C202.236 65.5481 202.47 83.5525 204.284 88.2437C206.097 92.9349 210.601 96.7019 214.719 96.3275C218.837 95.9532 224.733 91.9522 226.932 85.5179C229.132 79.0836 229.132 63.8167 228.254 61.8162C227.377 59.8157 222.651 53.6855 211.747 55.6743C204.249 57.0431 201.991 62.7989 202.236 65.5481Z" fill="#FDBAAC"/>
<path d="M257.712 124.919C259.233 127.072 260.309 128.628 260.566 128.991C260.963 129.483 261.26 130.047 261.444 130.652C261.512 131.206 261.465 131.769 261.306 132.304C261.147 132.84 260.879 133.336 260.52 133.764C258.893 136.103 256.495 137.694 254.401 139.613C252.044 141.946 249.931 144.513 248.096 147.276C246.675 146.261 245.38 145.083 244.235 143.766C243.138 142.934 242.279 141.828 241.745 140.559C241.211 139.29 241.021 137.902 241.193 136.536L240.983 121.445L240.866 113.899C240.866 112.601 239.193 106.728 240 105.71C241.919 103.312 252.447 117.573 257.712 124.919Z" fill="#4F56F1"/>
<path d="M199.955 72.2164C199.822 72.1757 199.679 72.1757 199.546 72.2164C199.416 72.3003 199.311 72.4175 199.241 72.5557C198.766 73.4011 198.605 74.3871 198.785 75.34C198.982 76.1243 199.281 76.8795 199.674 77.5862C200.074 78.734 200.788 79.7471 201.733 80.5109C201.923 80.6472 202.156 80.7096 202.388 80.6863C202.557 80.6568 202.713 80.575 202.833 80.4524C203.44 79.7353 203.757 78.8174 203.722 77.8786C203.975 76.5672 203.733 75.2086 203.044 74.0648C202.697 73.5477 202.241 73.1137 201.707 72.7941C201.173 72.4745 200.575 72.2772 199.955 72.2164Z" fill="#FDBAAC"/>
<path d="M230.641 71.9239C230.776 71.8948 230.916 71.8948 231.05 71.9239C231.178 72.0106 231.282 72.1271 231.355 72.2632C231.824 73.1149 231.985 74.1025 231.811 75.0592C231.599 75.8388 231.301 76.5922 230.922 77.3054C230.52 78.4493 229.807 79.4582 228.863 80.2184C228.671 80.3596 228.434 80.4261 228.196 80.4055C228.033 80.3681 227.884 80.2872 227.763 80.1716C227.158 79.4534 226.841 78.5363 226.874 77.5978C226.613 76.2865 226.855 74.925 227.553 73.784C227.898 73.2647 228.354 72.8285 228.888 72.5068C229.422 72.1851 230.021 71.986 230.641 71.9239Z" fill="#FDBAAC"/>
<path d="M199.148 63.8868C198.774 61.5471 198.692 58.8447 200.318 57.125C200.657 56.7623 201.066 56.4698 201.417 56.1189C201.768 55.7679 202.307 55.0543 202.763 54.5162C204.123 53.0433 205.778 51.873 207.62 51.0809C209.463 50.2889 211.451 49.8928 213.455 49.9185C217.455 49.9989 221.412 50.7625 225.154 52.1764C227.26 52.8627 229.35 53.6075 231.425 54.4109C232.231 54.6648 232.976 55.083 233.612 55.6392C234.063 56.138 234.366 56.7521 234.488 57.4132C234.61 58.0742 234.546 58.7562 234.303 59.3828C233.952 60.3772 233.226 61.2195 232.934 62.2256C232.759 63.0203 232.688 63.8343 232.723 64.6473C232.65 66.8099 232.081 68.927 231.062 70.8359C230.499 72.0508 229.56 73.0518 228.383 73.6904C228.476 70.7675 228.08 67.8496 227.213 65.0567C224.734 67.0569 221.717 68.2781 218.544 68.5664C215.385 68.838 212.203 68.4761 209.185 67.5018C208.449 67.1842 207.636 67.0867 206.846 67.221C206.085 67.4316 205.477 68.3909 205.91 69.0226C205.761 68.928 205.595 68.8638 205.421 68.8338C205.248 68.8037 205.07 68.8084 204.898 68.8476C204.726 68.8867 204.563 68.9596 204.42 69.0619C204.276 69.1643 204.154 69.294 204.061 69.4438C203.72 70.0704 203.554 70.7778 203.582 71.491L203.383 75.96C200.704 72.813 199.803 67.9697 199.148 63.8868Z" fill="#FC682D"/>
<path d="M171.422 134.255C169.503 138.244 167.737 142.327 166.169 146.468C164.994 149.341 164.062 152.307 163.385 155.336C163.139 156.506 162.566 158.109 162.999 159.29C163.666 161.104 166.415 162.519 167.959 163.455C172.88 166.47 178.005 169.14 183.296 171.445C185.347 172.427 187.518 173.135 189.754 173.551C191.508 173.766 193.278 173.817 195.042 173.703L205.196 173.352C206.12 173.352 207.325 173.036 207.407 172.112C207.407 171.469 206.857 170.942 206.308 170.603C204.496 169.457 202.525 168.585 200.458 168.017C198.434 167.468 195.931 167.842 194.024 167.163C191.871 166.403 189.473 163.993 187.566 162.671L176.651 155.137L180.874 147.311L171.422 134.255Z" fill="#FDBAAC"/>
<path d="M242.036 169.304H185.121L180.126 130.956L246.072 131.868L242.036 169.304Z" fill="#4F56F1"/>
<path d="M119.55 173.422L117.912 183.331L99.0066 299.734C98.9265 300.48 98.598 301.177 98.074 301.714C97.5499 302.251 96.8607 302.596 96.117 302.694C94.7833 302.694 93.9176 301.36 94.1867 299.734L113.092 183.331L114.695 173.422H119.55Z" fill="#473F47"/>
<path d="M307.935 173.422L309.537 183.331L328.489 299.734C328.57 300.48 328.898 301.177 329.422 301.714C329.946 302.251 330.635 302.596 331.379 302.694C332.713 302.694 333.578 301.36 333.309 299.734L314.404 183.331L312.801 173.422H307.935Z" fill="#473F47"/>
<path d="M242.036 169.293H184.84V173.469H242.036V169.293Z" fill="#4F56F1"/>
<path d="M242.036 169.293H184.84V173.469H242.036V169.293Z" fill="url(#paint2_linear)"/>
<path d="M140.572 173.422H112.32C113.349 170.497 115.26 167.963 117.79 166.171C120.321 164.379 123.345 163.416 126.446 163.416C129.547 163.416 132.571 164.379 135.102 166.171C137.632 167.963 139.544 170.497 140.572 173.422Z" fill="#4F56F1"/>
<path d="M111.027 119.772C110.645 118.653 109.429 118.056 108.31 118.437C107.191 118.819 106.593 120.035 106.974 121.154L122.176 165.733C122.558 166.852 123.774 167.45 124.893 167.068C126.012 166.687 126.61 165.47 126.229 164.351L111.027 119.772Z" fill="#4F56F1"/>
<path d="M108.379 118.374C107.251 118.729 106.624 119.93 106.979 121.058C107.333 122.186 108.535 122.813 109.663 122.459L154.597 108.343C155.725 107.989 156.352 106.787 155.998 105.659C155.643 104.531 154.442 103.904 153.314 104.258L108.379 118.374Z" fill="#4F56F1"/>
<path d="M140.572 173.422H112.32C113.349 170.497 115.26 167.963 117.79 166.171C120.321 164.379 123.345 163.416 126.446 163.416C129.547 163.416 132.571 164.379 135.102 166.171C137.632 167.963 139.544 170.497 140.572 173.422Z" fill="url(#paint3_linear)"/>
<path d="M111.027 119.772C110.645 118.653 109.429 118.056 108.31 118.437C107.191 118.819 106.593 120.035 106.974 121.154L122.176 165.733C122.558 166.852 123.774 167.45 124.893 167.068C126.012 166.687 126.61 165.47 126.229 164.351L111.027 119.772Z" fill="url(#paint4_linear)"/>
<path d="M108.379 118.374C107.251 118.729 106.624 119.93 106.979 121.058C107.333 122.186 108.535 122.813 109.663 122.459L154.597 108.343C155.725 107.989 156.352 106.787 155.998 105.659C155.643 104.531 154.442 103.904 153.314 104.258L108.379 118.374Z" fill="url(#paint5_linear)"/>
<path d="M172.358 109.957C168.731 115.151 164.438 118.473 162.601 117.572C162.519 117.529 162.44 117.478 162.367 117.42L162.121 117.268C156.763 113.513 151.815 103.581 155.57 98.211C159.325 92.8413 170.357 94.0697 175.715 97.825L175.949 98.0005C176.028 98.0484 176.102 98.1032 176.172 98.1642C177.646 99.5798 175.996 104.751 172.358 109.957Z" fill="#4F56F1"/>
<path d="M172.358 109.957C168.731 115.151 164.438 118.473 162.601 117.572L162.437 117.479C162.408 117.467 162.384 117.447 162.367 117.42C160.741 116.122 162.367 110.869 166.087 105.57C169.807 100.27 174.171 96.9242 175.949 98.0005H176.031L176.172 98.1174C177.646 99.5798 175.996 104.751 172.358 109.957Z" fill="#4F56F1"/>
<path d="M172.358 109.957C168.731 115.151 164.438 118.473 162.601 117.572L162.437 117.479C162.408 117.467 162.384 117.447 162.367 117.42C160.741 116.122 162.367 110.869 166.087 105.57C169.807 100.27 174.171 96.9242 175.949 98.0005H176.031L176.172 98.1174C177.646 99.5798 175.996 104.751 172.358 109.957Z" fill="white"/>
<path d="M293.054 134.243H286.198C284.635 134.243 283.367 135.511 283.367 137.074V170.907C283.367 172.471 284.635 173.738 286.198 173.738H293.054C294.617 173.738 295.885 172.471 295.885 170.907V137.074C295.885 135.511 294.617 134.243 293.054 134.243Z" fill="#4F56F1"/>
<path d="M305.204 134.056L298.365 134.527C296.805 134.635 295.628 135.986 295.735 137.546L298.06 171.299C298.167 172.859 299.519 174.037 301.079 173.929L307.918 173.458C309.478 173.351 310.655 171.999 310.548 170.439L308.223 136.686C308.116 135.126 306.764 133.949 305.204 134.056Z" fill="#4F56F1"/>
<path d="M242.094 169.304H185.18L180.184 130.956L246.13 131.868L242.094 169.304Z" fill="url(#paint6_linear)"/>
<path d="M182.676 129.061L180.184 130.956L246.13 131.868L243.861 129.646L182.676 129.061Z" fill="url(#paint7_linear)"/>
<path d="M302.811 65.9458C302.467 70.2108 300.656 74.225 297.687 77.3053C295.02 79.9353 293.122 83.2445 292.2 86.8749C291.943 87.9863 291.802 89.1328 291.603 90.3845H275.225C275.108 89.5539 275.026 88.7233 274.862 87.9161C274.173 84.406 272.506 81.1619 270.054 78.5571C267.887 76.3499 266.181 73.7331 265.035 70.8593C264.062 68.1552 263.695 65.2704 263.958 62.4086C264.221 59.5468 265.109 56.7776 266.56 54.2965C268.01 51.8153 269.987 49.6827 272.352 48.049C274.716 46.4152 277.41 45.3203 280.244 44.8413C280.77 44.7594 281.285 44.7009 281.788 44.6541C284.635 44.4171 287.498 44.8076 290.178 45.7979C292.857 46.7883 295.286 48.3544 297.294 50.3859C299.302 52.4174 300.84 54.8647 301.799 57.5552C302.759 60.2457 303.116 63.1139 302.846 65.9576L302.811 65.9458Z" fill="white"/>
<path d="M299.605 65.9459C299.271 70.2108 297.463 74.2267 294.493 77.3054C291.822 79.9347 289.921 83.2437 288.994 86.875C288.737 87.9864 288.608 89.1328 288.398 90.3846H275.237C275.12 89.554 275.038 88.7234 274.874 87.9162C274.184 84.406 272.518 81.162 270.066 78.5572C267.898 76.35 266.192 73.7331 265.047 70.8594C264.074 68.1552 263.706 65.2705 263.97 62.4086C264.233 59.5468 265.121 56.7777 266.571 54.2965C268.022 51.8154 269.999 49.6827 272.363 48.049C274.728 46.4153 277.422 45.3203 280.255 44.8414C280.782 44.7595 281.297 44.701 281.8 44.6542C284.375 44.8656 286.884 45.5866 289.178 46.7752C291.473 47.9639 293.509 49.5966 295.168 51.5786C296.826 53.5605 298.075 55.8522 298.841 58.3206C299.606 60.789 299.874 63.3849 299.629 65.9576L299.605 65.9459Z" fill="url(#paint8_linear)"/>
<path d="M291.978 90.3495H275.74C274.564 90.3495 273.611 91.3027 273.611 92.4787V92.4904C273.611 93.6663 274.564 94.6195 275.74 94.6195H291.978C293.154 94.6195 294.107 93.6663 294.107 92.4904V92.4787C294.107 91.3027 293.154 90.3495 291.978 90.3495Z" fill="#4F56F1"/>
<path d="M290.738 93.9293H276.231C275.178 93.9293 274.324 94.7831 274.324 95.8362C274.324 96.8894 275.178 97.7431 276.231 97.7431H290.738C291.791 97.7431 292.644 96.8894 292.644 95.8362C292.644 94.7831 291.791 93.9293 290.738 93.9293Z" fill="#4F56F1"/>
<path d="M289.79 97.0529H277.19C276.279 97.0529 275.541 97.7914 275.541 98.7024V98.7141C275.541 99.6251 276.279 100.364 277.19 100.364H289.79C290.701 100.364 291.439 99.6251 291.439 98.7141V98.7024C291.439 97.7914 290.701 97.0529 289.79 97.0529Z" fill="#4F56F1"/>
<path d="M291.978 90.3495H275.74C274.564 90.3495 273.611 91.3027 273.611 92.4787V92.4904C273.611 93.6663 274.564 94.6195 275.74 94.6195H291.978C293.154 94.6195 294.107 93.6663 294.107 92.4904V92.4787C294.107 91.3027 293.154 90.3495 291.978 90.3495Z" fill="url(#paint9_linear)"/>
<path d="M290.738 93.9293H276.231C275.178 93.9293 274.324 94.7831 274.324 95.8362C274.324 96.8894 275.178 97.7431 276.231 97.7431H290.738C291.791 97.7431 292.644 96.8894 292.644 95.8362C292.644 94.7831 291.791 93.9293 290.738 93.9293Z" fill="url(#paint10_linear)"/>
<path d="M289.79 97.0529H277.19C276.279 97.0529 275.541 97.7914 275.541 98.7024V98.7141C275.541 99.6251 276.279 100.364 277.19 100.364H289.79C290.701 100.364 291.439 99.6251 291.439 98.7141V98.7024C291.439 97.7914 290.701 97.0529 289.79 97.0529Z" fill="url(#paint11_linear)"/>
<path d="M279.355 90.291C279.229 87.2985 278.837 84.3231 278.185 81.4C277.685 78.9734 277.322 76.5206 277.097 74.0532C276.839 70.3213 277.576 67.7124 279.355 66.0746C279.662 65.7479 280.078 65.5442 280.524 65.5014C280.765 65.4993 281.003 65.5447 281.226 65.635C281.449 65.7254 281.652 65.8588 281.823 66.0278C281.882 65.9576 281.928 65.8874 281.987 65.8289C282.288 65.4472 282.695 65.1624 283.157 65.01C283.391 64.942 283.637 64.9235 283.878 64.9557C284.12 64.9879 284.352 65.0702 284.561 65.1972C284.862 65.3734 285.121 65.6129 285.321 65.8991C285.567 65.7419 285.841 65.6351 286.128 65.5849C286.415 65.5347 286.71 65.5421 286.994 65.6067C288.058 65.8757 288.795 66.8818 289.111 68.508C289.872 72.4153 289.041 76.3578 288.234 80.2067C287.387 83.4184 287.02 86.7379 287.146 90.0571L285.976 90.1624C285.835 86.7294 286.21 83.2946 287.087 79.9727C287.906 76.1005 288.678 72.4504 287.965 68.777C287.836 68.1219 287.509 66.9871 286.713 66.7882C286.428 66.7364 286.133 66.7995 285.894 66.9637C285.976 67.169 286.043 67.3802 286.093 67.5955C286.372 68.7444 286.509 69.9229 286.503 71.1051C286.513 71.2906 286.484 71.4762 286.418 71.6497C286.351 71.8231 286.248 71.9804 286.116 72.1112C285.996 72.2194 285.85 72.2937 285.691 72.3266C285.533 72.3595 285.369 72.3497 285.216 72.2984C284.954 72.184 284.724 72.0084 284.545 71.7864C284.366 71.5645 284.243 71.3027 284.186 71.0232C283.82 69.934 283.752 68.7669 283.987 67.6423C284.086 67.3011 284.244 66.9801 284.455 66.6946C284.332 66.4949 284.164 66.3266 283.964 66.2033C283.894 66.158 283.814 66.1283 283.732 66.1162C283.649 66.1041 283.565 66.1098 283.484 66.1331C283.244 66.2225 283.037 66.3813 282.888 66.5894C282.794 66.6946 282.724 66.7999 282.642 66.9052C283.606 68.2137 284.025 69.8449 283.812 71.456C283.695 72.2633 283.215 73.0354 282.373 73.0354C282.082 73.0039 281.807 72.8888 281.581 72.704C281.354 72.5191 281.187 72.2726 281.098 71.9942C280.747 71.2119 280.573 70.3621 280.587 69.5049C280.601 68.6478 280.803 67.8042 281.18 67.0339H281.121C280.84 66.7648 280.665 66.7063 280.595 66.718C280.434 66.7641 280.288 66.853 280.174 66.9754C278.688 68.3442 278.056 70.719 278.29 73.9947C278.515 76.4142 278.871 78.8198 279.355 81.2011C280.016 84.1939 280.407 87.24 280.524 90.3027L279.355 90.291ZM282.022 68.0634C281.646 69.1734 281.7 70.3841 282.174 71.456C282.231 71.5952 282.319 71.7194 282.431 71.8187C282.568 71.6619 282.65 71.4648 282.665 71.2572C282.788 70.1652 282.558 69.0627 282.01 68.1102L282.022 68.0634ZM285.028 68.1804C284.946 69.0284 285.038 69.8843 285.298 70.6956C285.281 69.8659 285.187 69.0395 285.017 68.2272L285.028 68.1804Z" fill="#4F56F1"/>
</g>
<defs>
<linearGradient id="paint0_linear" x1="215.187" y1="237.239" x2="207.279" y2="64.3081" gradientUnits="userSpaceOnUse">
<stop offset="0.01"/>
<stop offset="0.08" stop-opacity="0.69"/>
<stop offset="0.21" stop-opacity="0.32"/>
<stop offset="1" stop-opacity="0"/>
</linearGradient>
<linearGradient id="paint1_linear" x1="19279.3" y1="10170.3" x2="19202.7" y2="7332.38" gradientUnits="userSpaceOnUse">
<stop offset="0.01"/>
<stop offset="0.08" stop-opacity="0.69"/>
<stop offset="0.21" stop-opacity="0.32"/>
<stop offset="1" stop-opacity="0"/>
</linearGradient>
<linearGradient id="paint2_linear" x1="10633.3" y1="735.954" x2="10633" y2="868.913" gradientUnits="userSpaceOnUse">
<stop offset="0.01"/>
<stop offset="0.08" stop-opacity="0.69"/>
<stop offset="0.21" stop-opacity="0.32"/>
<stop offset="1" stop-opacity="0"/>
</linearGradient>
<linearGradient id="paint3_linear" x1="5543.01" y1="2458.37" x2="6225.31" y2="2458.37" gradientUnits="userSpaceOnUse">
<stop offset="0.01"/>
<stop offset="0.08" stop-opacity="0.69"/>
<stop offset="0.21" stop-opacity="0.32"/>
<stop offset="1" stop-opacity="0"/>
</linearGradient>
<linearGradient id="paint4_linear" x1="917.554" y1="10774.5" x2="988.888" y2="10774.5" gradientUnits="userSpaceOnUse">
<stop offset="0.01"/>
<stop offset="0.08" stop-opacity="0.69"/>
<stop offset="0.21" stop-opacity="0.32"/>
<stop offset="1" stop-opacity="0"/>
</linearGradient>
<linearGradient id="paint5_linear" x1="932.43" y1="9453.38" x2="1112.56" y2="9453.38" gradientUnits="userSpaceOnUse">
<stop offset="0.01"/>
<stop offset="0.08" stop-opacity="0.69"/>
<stop offset="0.21" stop-opacity="0.32"/>
<stop offset="1" stop-opacity="0"/>
</linearGradient>
<linearGradient id="paint6_linear" x1="11717.4" y1="4041.35" x2="12787.3" y2="9280.75" gradientUnits="userSpaceOnUse">
<stop offset="0.01"/>
<stop offset="0.08" stop-opacity="0.69"/>
<stop offset="0.21" stop-opacity="0.32"/>
<stop offset="1" stop-opacity="0"/>
</linearGradient>
<linearGradient id="paint7_linear" x1="12234.4" y1="418.9" x2="12234.1" y2="543.505" gradientUnits="userSpaceOnUse">
<stop offset="0.01"/>
<stop offset="0.08" stop-opacity="0.69"/>
<stop offset="0.21" stop-opacity="0.32"/>
<stop offset="1" stop-opacity="0"/>
</linearGradient>
<linearGradient id="paint8_linear" x1="338.562" y1="105.429" x2="250.728" y2="47.883" gradientUnits="userSpaceOnUse">
<stop offset="0.01"/>
<stop offset="0.13" stop-opacity="0.69"/>
<stop offset="0.25" stop-opacity="0.32"/>
<stop offset="1" stop-opacity="0"/>
</linearGradient>
<linearGradient id="paint9_linear" x1="5247.22" y1="398.005" x2="5247.18" y2="456.762" gradientUnits="userSpaceOnUse">
<stop offset="0.01"/>
<stop offset="0.13" stop-opacity="0.69"/>
<stop offset="0.25" stop-opacity="0.32"/>
<stop offset="1" stop-opacity="0"/>
</linearGradient>
<linearGradient id="paint10_linear" x1="4721.2" y1="381.528" x2="4720.51" y2="435.118" gradientUnits="userSpaceOnUse">
<stop offset="0.01"/>
<stop offset="0.13" stop-opacity="0.69"/>
<stop offset="0.25" stop-opacity="0.32"/>
<stop offset="1" stop-opacity="0"/>
</linearGradient>
<linearGradient id="paint11_linear" x1="4131.59" y1="359.297" x2="4131.27" y2="396.506" gradientUnits="userSpaceOnUse">
<stop offset="0.01"/>
<stop offset="0.13" stop-opacity="0.69"/>
<stop offset="0.25" stop-opacity="0.32"/>
<stop offset="1" stop-opacity="0"/>
</linearGradient>
<clipPath id="clip0">
<rect width="384" height="326.805" fill="white"/>
</clipPath>
</defs>
</svg>
