<svg width="20" height="20" viewBox="0 0 20 20" fill="none" xmlns="http://www.w3.org/2000/svg">
<path fill-rule="evenodd" clip-rule="evenodd" d="M9.73006 4.24826L8.82422 3.34243C7.03434 1.55252 4.13233 1.55252 2.34243 3.34243C0.552523 5.13233 0.552523 8.03435 2.34243 9.82427L9.70814 17.1899L9.70964 17.1884L9.73156 17.2104L17.0972 9.84468C18.8871 8.05477 18.8871 5.15278 17.0972 3.36288C15.3074 1.57297 12.4054 1.57297 10.6155 3.36288L9.73006 4.24826ZM9.70964 14.8314L13.8231 10.7179L15.0321 9.55035L15.0334 9.55152L15.9187 8.66618C17.0578 7.52714 17.0578 5.68042 15.9187 4.54138C14.7797 3.40236 12.933 3.40236 11.794 4.54138L9.73097 6.60438L9.72489 6.59835L9.72406 6.59924L7.64573 4.52094C6.5067 3.38191 4.65996 3.38191 3.52094 4.52094C2.38191 5.65997 2.38191 7.5067 3.52094 8.64577L5.63712 10.7619L5.63862 10.7604L9.70964 14.8314Z" fill="#FF4B3E"/>
</svg>
