<svg width="100%" height="120" viewBox="0 0 120 120" fill="none" xmlns="http://www.w3.org/2000/svg">
<path d="M49.944 24.42L51.756 23.37L52.056 21.678L48.612 20.394L48.252 23.886L49.944 24.42Z" fill="white"/>
<path d="M32.994 31.95L31.512 31.752L30.504 30.072L32.382 27.804L33.852 29.094L32.994 31.95Z" fill="white"/>
<path d="M38.004 43.2001C38.004 43.2001 36.888 36.2641 35.094 33.7981C33.3 31.3321 37.248 29.0701 37.248 29.0701L41.592 38.5021L47.4 39.4201L49.2 38.0761C49.2 38.0761 50.1 43.6741 50.1 44.3461C50.1 45.0181 47.634 49.0501 47.634 49.0501L38.004 43.2001Z" fill="#E6B295"/>
<path d="M52.11 33.5158L52.338 37.4038C52.338 37.4038 52.338 38.5258 51.444 38.7478C50.4354 39.1117 49.4598 39.5614 48.528 40.0918L48.324 40.2118C47.446 40.7118 46.4183 40.882 45.426 40.6918L42.69 40.1638C42.2025 40.0714 41.7403 39.8765 41.3338 39.5921C40.9273 39.3076 40.5858 38.9401 40.332 38.5138L39.396 36.9598C38.7787 35.9333 38.3842 34.7886 38.238 33.5998L37.8 29.7898L38.904 23.5198L48.306 21.3418C49.4988 23.0575 50.4084 24.9537 51 26.9578C51.6209 29.0939 51.9933 31.2944 52.11 33.5158Z" fill="#EBB698"/>
<path d="M48.81 20.8381C46.908 18.6541 33.246 25.2541 33.246 25.2541C33.246 25.2541 32.166 26.5981 32.202 29.2621C32.2464 31.141 32.8159 32.97 33.846 34.5421C34.622 35.7421 35.452 36.9161 36.336 38.0641L37.134 39.0901C36.888 38.1181 36.372 36.3901 36.042 35.4901L34.422 33.6001L36.12 31.2001C36.12 31.2001 37.266 33.4141 38.004 33.6001C38.172 33.6361 38.604 33.3001 38.604 33.3001C38.604 33.3001 37.542 31.0801 38.454 29.3821C38.9295 28.277 39.1174 27.0694 39 25.8721C38.9867 25.5487 39.0639 25.228 39.2229 24.946C39.3819 24.6641 39.6164 24.4321 39.9 24.2761C39.9 24.2761 42.84 21.7621 47.874 22.4761C48.2787 22.56 48.6603 22.7306 48.9928 22.976C49.3253 23.2215 49.6007 23.5361 49.8 23.8981C49.8 23.8981 50.712 23.0221 48.81 20.8381Z" fill="#442B27"/>
<path d="M35.658 92.5979C35.658 92.5979 27.258 63.7559 25.134 58.3379C23.718 54.7379 34.92 47.1119 34.92 47.1119L38.658 44.7119L42.486 49.3019L50.772 46.3919L60.144 47.5919L61.692 47.9519C62.2536 48.0815 62.7726 48.3532 63.1991 48.7408C63.6256 49.1285 63.9455 49.6192 64.128 50.1659L66.222 56.4359C66.222 56.4359 39.912 99.5399 35.658 92.5979Z" fill="#696EFF"/>
<path d="M28.116 89.4001L31.956 106.41C31.956 106.41 47.184 112.314 68.556 106.044C69.9025 100.59 70.508 94.9797 70.356 89.3641C70.014 79.3381 67.188 67.7641 65.652 65.5201C62.742 61.2661 60.138 47.6041 60.138 47.6041L51.48 45.5581L52.878 48.3241C52.878 48.3241 56.4 58.3741 56.814 63.1561C57.486 70.3201 38.718 74.3341 38.718 74.3341L28.116 89.4001Z" fill="#5156F2"/>
<path d="M39.576 80.328L42.204 79.95L42.486 88.308L38.532 87.786L36.942 83.028L39.576 80.328Z" fill="#E6B295"/>
<path d="M49.872 51.5102L50.34 48.0962C50.3428 48.0659 50.3519 48.0366 50.3667 48.0102C50.3815 47.9837 50.4018 47.9607 50.4261 47.9426C50.4505 47.9245 50.4784 47.9117 50.508 47.9051C50.5376 47.8984 50.5683 47.8981 50.598 47.9042L52.878 48.3242C52.0669 46.2351 51.0626 44.2264 49.878 42.3242C49.374 44.4302 47.886 46.6502 47.07 46.8602C46.8179 46.9403 46.5444 46.9188 46.308 46.8002C43.6076 45.002 40.7617 43.4326 37.8 42.1082C37.3392 43.3735 36.9565 44.6659 36.654 45.9782C38.1918 47.9027 40.0562 49.5417 42.162 50.8202L44.106 49.5602C44.1446 49.5328 44.1907 49.5181 44.238 49.5181C44.2853 49.5181 44.3314 49.5328 44.37 49.5602L47.4 52.1282L48.234 59.9282L51.978 64.8002L53.4 61.3382L49.872 51.5102Z" fill="#5156F2"/>
<path d="M26.586 52.5901C26.586 52.5901 31.164 76.3981 30.264 76.9801C29.664 77.3821 30.468 79.7521 30.264 80.4001C29.82 81.8041 33.06 80.4721 36.156 79.8421L55.134 73.3441L52.002 64.8361C52.002 64.8361 43.452 52.5421 34.92 47.1121L26.586 52.5901Z" fill="#5156F2"/>
<path d="M101.334 59.2739C104.772 53.4539 104.934 45.7139 104.73 39.4199C104.73 39.4199 108.09 47.7059 105.852 52.6199C103.614 57.5339 101.334 59.2739 101.334 59.2739Z" fill="#CCCCCC"/>
<path d="M26.85 52.5601C26.7859 52.5533 26.721 52.5593 26.6592 52.5779C26.5974 52.5964 26.5399 52.6271 26.49 52.6681C23.454 55.2001 19.938 75.0001 18.984 80.7541C18.7052 82.3663 18.681 84.0123 18.912 85.6321C19.326 88.3861 20.586 91.7761 24.348 91.2541C28.986 90.5401 37.386 89.2201 41.448 88.5841C41.5112 88.5725 41.569 88.5409 41.613 88.494C41.6569 88.4471 41.6846 88.3873 41.6919 88.3235C41.6993 88.2597 41.686 88.1952 41.654 88.1395C41.622 88.0838 41.5729 88.0398 41.514 88.0141C39.582 87.2701 37.56 85.3081 40.248 80.2141L32.85 79.9321C32.7172 79.9319 32.586 79.9024 32.4659 79.8455C32.3458 79.7887 32.2398 79.7059 32.1555 79.6033C32.0712 79.5006 32.0107 79.3805 31.9782 79.2517C31.9458 79.1229 31.9423 78.9884 31.968 78.8581C32.454 76.5181 42.816 54.6001 26.85 52.5601Z" fill="#696EFF"/>
<path d="M35.094 99.8759C35.094 99.8759 58.122 105.192 81.108 94.2779C88.224 90.8999 95.328 88.2359 95.328 88.2359C95.328 88.2359 113.466 49.7219 104.73 39.4199C104.73 39.4199 112.098 61.5419 89.73 58.2299C68.568 55.0919 59.784 45.5579 59.784 45.5579L35.094 99.8759Z" fill="#E6E6E6"/>
<path d="M42.042 86.952C41.556 87.834 40.332 87.624 39.864 86.73C38.76 84.618 41.01 81.174 43.296 76.068C43.4336 75.7496 43.6335 75.462 43.8839 75.2219C44.1343 74.9818 44.4301 74.7942 44.754 74.67L44.892 74.628C46.6258 74.1483 48.4697 74.2559 50.136 74.934L51.876 75.636C52.2659 75.7975 52.6032 76.0643 52.85 76.4066C53.0969 76.7489 53.2437 77.1531 53.274 77.574C53.2853 77.7716 53.2229 77.9664 53.0987 78.1205C52.9745 78.2746 52.7975 78.3771 52.602 78.408C52.5207 78.4167 52.4386 78.4065 52.362 78.378C52.362 78.378 52.218 78.276 51.96 78.126C50.5356 77.296 48.903 76.892 47.256 76.962L45.198 77.04L48.3 77.748C48.6797 77.8058 49.0405 77.9522 49.3532 78.1752C49.6659 78.3983 49.9217 78.6918 50.1 79.032L51.174 80.64C51.3487 80.9078 51.4424 81.2203 51.444 81.54C51.4423 81.7367 51.3851 81.9289 51.2789 82.0945C51.1728 82.2601 51.022 82.3924 50.844 82.476C50.7584 82.5192 50.6595 82.5277 50.5679 82.4998C50.4762 82.4718 50.3989 82.4096 50.352 82.326L48.984 80.862C48.1495 80.0107 47.0139 79.5215 45.822 79.5C46.797 79.9251 47.7275 80.4456 48.6 81.054C49.8 81.972 48.834 83.532 48.264 82.956C47.4337 82.13 46.3405 81.6206 45.174 81.516L47.634 82.65C47.8383 82.739 48.0203 82.8724 48.1667 83.0406C48.313 83.2087 48.42 83.4073 48.48 83.622C48.5223 83.7594 48.5351 83.9042 48.5175 84.0469C48.4999 84.1896 48.4524 84.327 48.378 84.45C48.2725 84.5909 48.1194 84.6886 47.9472 84.725C47.775 84.7614 47.5955 84.7341 47.442 84.648C44.706 83.118 43.614 84.096 43.242 84.594C42.7926 85.3539 42.3918 86.1415 42.042 86.952Z" fill="#E6B295"/>
<path d="M101.436 73.23L106.266 70.992C106.417 70.9239 106.551 70.821 106.655 70.6918C106.759 70.5625 106.832 70.4105 106.866 70.248L107.04 69.384C107.093 69.1206 107.053 68.8468 106.926 68.61L106.374 67.56C106.333 67.461 106.313 67.355 106.314 67.248V66.75C106.313 66.4494 106.23 66.1547 106.074 65.898L105.84 65.502C105.712 65.2875 105.667 65.0334 105.714 64.788C106.128 64.068 105.048 63.156 104.658 63.156L104.022 64.734C103.908 65.0233 103.746 65.2911 103.542 65.526L103.08 66.066C102.949 66.2168 102.861 66.3996 102.824 66.5957C102.787 66.7917 102.803 66.994 102.87 67.182L102.954 67.41L101.316 68.61C100.716 68.988 101.166 69.672 101.166 69.672C100.989 69.7078 100.83 69.8065 100.72 69.9498C100.61 70.0932 100.555 70.2715 100.566 70.452C100.607 70.6048 100.702 70.7377 100.833 70.8259C100.964 70.9142 101.123 70.9519 101.28 70.932L101.97 70.842C102.005 70.8369 102.04 70.8408 102.073 70.8535C102.106 70.8662 102.135 70.8871 102.157 70.9143C102.18 70.9414 102.195 70.9739 102.201 71.0086C102.207 71.0432 102.204 71.0788 102.192 71.112L101.436 73.23Z" fill="#E6B295"/>
<path d="M45.612 77.5679L45.834 76.5239L44.274 76.8959L44.418 77.9639L45.612 77.5679Z" fill="#E6B295"/>
<path d="M37.53 35.4L37.452 35.448C37.2939 35.5425 37.118 35.6036 36.9353 35.6273C36.7526 35.6511 36.567 35.637 36.39 35.586C35.5568 35.3398 34.8408 34.8007 34.374 34.068C34.1273 33.7033 33.9552 33.2934 33.8677 32.862C33.7802 32.4305 33.7789 31.986 33.864 31.554C33.966 31.242 34.05 30.924 34.344 30.774C34.6122 30.6419 34.9193 30.6121 35.208 30.69L35.424 30.75C35.6026 30.7985 35.7691 30.8839 35.9128 31.0007C36.0564 31.1175 36.174 31.263 36.258 31.428L37.806 34.428C37.8937 34.5944 37.914 34.7883 37.8626 34.9692C37.8112 35.1502 37.6921 35.3045 37.53 35.4Z" fill="#EBB698"/>
<path d="M52.8 25.74C52.8472 25.6394 52.8598 25.526 52.836 25.4175C52.8121 25.309 52.753 25.2114 52.668 25.14C52.53 25.092 50.472 24.624 47.868 26.172C47.4802 26.1726 47.1001 26.2806 46.77 26.484C45.3317 26.1386 43.8223 26.2412 42.444 26.778L41.844 26.988L41.736 27.024L41.382 27.15L34.356 29.604H34.302L34.104 30.504L41.532 27.96H41.658C41.7871 27.9516 41.9155 27.9853 42.024 28.056C42.0912 28.1013 42.1536 28.1536 42.21 28.212C42.3615 28.3524 42.4803 28.5245 42.558 28.716L43.074 30C43.1779 30.2031 43.3227 30.3826 43.4992 30.5271C43.6758 30.6717 43.8803 30.7782 44.1 30.84C44.2793 30.8923 44.4652 30.9185 44.652 30.918C45.1297 30.9106 45.5987 30.7892 46.02 30.564C47.616 29.724 47.172 27.138 47.082 26.688C47.2982 26.5855 47.5258 26.5089 47.76 26.46C47.952 27.108 48.762 29.46 50.472 29.46C50.9493 29.4712 51.4224 29.3683 51.852 29.16C52.0169 29.0763 52.1703 28.9714 52.308 28.848C52.4741 28.6949 52.6072 28.5095 52.699 28.3032C52.7909 28.0968 52.8395 27.8738 52.842 27.648L52.722 26.274C52.7021 26.0922 52.729 25.9084 52.8 25.74ZM45.912 30.36C45.3756 30.6474 44.7539 30.7326 44.16 30.6C43.971 30.5443 43.7951 30.4514 43.6426 30.3267C43.4901 30.2021 43.3641 30.0481 43.272 29.874L42.768 28.602C42.6759 28.3769 42.5391 28.1727 42.366 28.002C42.4743 27.876 42.5488 27.7245 42.5824 27.5618C42.616 27.3991 42.6076 27.2305 42.558 27.072C43.9277 26.5267 45.4259 26.3892 46.872 26.676C46.944 27.108 47.4 29.58 45.912 30.36ZM52.158 28.698C51.6836 29.0805 51.087 29.2787 50.478 29.256C48.798 29.256 48.078 26.76 47.976 26.388C49.728 25.59 50.85 25.188 52.128 25.26L50.61 25.86L50.796 26.4C50.796 26.4 52.47 25.8 52.596 25.8C52.5379 25.9571 52.5134 26.1247 52.524 26.292L52.644 27.654C52.6395 27.8521 52.594 28.0472 52.5104 28.2269C52.4267 28.4066 52.3067 28.567 52.158 28.698Z" fill="#442B27"/>
<path d="M32.754 32.3279C32.0988 32.3466 31.4595 32.1242 30.9574 31.7028C30.4552 31.2814 30.1253 30.6904 30.03 30.0419C29.43 26.2079 30.06 12.8879 42.822 13.4159C42.822 13.4159 48.6 13.4159 50.994 19.7579C51.1533 20.1746 51.4412 20.5298 51.816 20.7719L52.158 20.9879C52.3407 21.1045 52.4937 21.2622 52.6047 21.4484C52.7157 21.6345 52.7817 21.8441 52.7975 22.0603C52.8132 22.2764 52.7782 22.4933 52.6953 22.6936C52.6124 22.8939 52.4839 23.0721 52.32 23.2139C51.6201 23.7373 50.8775 24.2009 50.1 24.5999L49.944 24.2579C49.944 24.2579 53.346 22.6259 50.544 21.7619C49.692 21.4979 48.606 21.5519 46.944 21.6839C36.192 22.5059 33.36 26.6399 31.254 30.4679C30.69 31.4939 32.562 31.7159 32.562 31.7159L32.754 32.3279Z" fill="#5156F2"/>
<path d="M40.692 17.0219C40.692 17.0219 34.872 12.8219 31.734 19.4879C32.761 18.1651 34.1884 17.2101 35.803 16.7656C37.4176 16.3211 39.1327 16.411 40.692 17.0219Z" fill="white"/>
<path d="M52.062 32.85L49.8 31.542C49.4792 31.3621 49.1178 31.2671 48.75 31.266C48.2831 31.2632 47.8287 31.4174 47.46 31.704L45.984 32.85C45.2296 33.4328 44.3033 33.7492 43.35 33.75C42.3912 33.7485 41.4601 33.4276 40.704 32.838L37.8 30.564C37.8 30.564 37.494 34.248 39.24 36.882C39.978 37.998 41.352 40.638 46.062 40.764C47.826 40.812 51.99 39.42 52.326 37.764C52.554 36.54 52.062 32.85 52.062 32.85Z" fill="#442B27"/>
<path d="M46.266 34.6499L48.066 33.4139C48.1375 33.3634 48.2205 33.3314 48.3074 33.321C48.3944 33.3105 48.4825 33.3218 48.564 33.3539L48.702 33.4079C48.7853 33.4407 48.8748 33.4546 48.9641 33.4483C49.0534 33.4421 49.1401 33.416 49.218 33.3719L49.29 33.3299C49.387 33.2784 49.4952 33.2515 49.605 33.2515C49.7148 33.2515 49.823 33.2784 49.92 33.3299L51.078 33.8879C51.1081 33.902 51.1345 33.923 51.1552 33.949C51.1759 33.975 51.1902 34.0055 51.1972 34.038C51.2042 34.0706 51.2036 34.1042 51.1954 34.1365C51.1872 34.1687 51.1717 34.1986 51.15 34.2239C49.836 35.3699 46.74 35.2439 46.35 35.0099H46.314C46.2748 35.002 46.239 34.9821 46.2117 34.9529C46.1843 34.9237 46.1668 34.8867 46.1615 34.847C46.1562 34.8074 46.1634 34.767 46.1822 34.7317C46.2009 34.6964 46.2302 34.6677 46.266 34.6499Z" fill="#EBB698"/>
<path d="M46.2 15.7261C45.6221 14.655 44.6525 13.8488 43.494 13.4761C43.494 13.4761 45.912 13.7161 46.2 15.7261Z" fill="white"/>
<path d="M36.402 32.4778C36.402 32.4778 34.836 30.0778 34.464 32.4778C34.464 32.4778 35.094 31.1998 36.402 32.4778Z" fill="#CC9E84"/>
<path d="M38.262 23.598C38.262 23.598 45.462 15.726 53.598 18.426C53.598 18.426 58.188 19.74 52.224 23.292C52.2 23.292 51.6 19.2 38.262 23.598Z" fill="#484DD6"/>
</svg>
