<svg width="536" height="361" viewBox="0 0 536 361" fill="none" xmlns="http://www.w3.org/2000/svg">
<g clip-path="url(#clip0)">
<path opacity="0.24" d="M145.43 17.35C140.522 16.3451 135.561 15.6239 130.57 15.19C106.431 13.2781 82.3652 19.6828 62.37 33.34C28.88 56.34 14.37 98.64 5.97999 136.72C-3.49001 179.47 -2.49001 225.34 14.74 266.06C38.3 321.75 96.01 364.58 156.31 359.95C182.56 357.95 207.55 347.56 233.72 344.6C263.78 341.2 293.98 347.68 324.17 349.6C369.695 352.465 415.278 344.984 457.5 327.72C482.36 317.53 506.75 303.15 521.28 280.55C543.01 246.72 538.01 201.94 523.67 164.35C516.06 144.35 506.13 125.29 496.67 106.09C487.21 86.89 480.95 66.33 472.15 47.09C457.41 14.87 416.76 -4.15001 382.62 0.739988C352.53 5.03999 326.69 24.68 297.08 31.54C283.02 34.79 268.45 35.08 254.02 34.74C229.54 34.17 205.02 31.83 181.19 26.2C169.24 23.41 157.44 19.74 145.43 17.35Z" fill="#4F56F1"/>
<path opacity="0.24" d="M315.58 303.94C310.09 304.22 304.11 304.7 300.13 308.48C348.089 313.653 396.499 312.957 444.29 306.41C441.29 300.84 433.72 300.03 427.37 299.89C409.37 299.49 388.26 294.44 370.52 297.37C352.17 300.41 334.2 303.94 315.58 303.94Z" fill="#4F56F1"/>
<path opacity="0.24" d="M87.81 304.1C84.81 304.17 80.62 305.55 81.24 308.52C81.67 310.52 84.15 311.28 86.24 311.6C136.45 319.52 187.87 318.68 238.15 311.15C237.52 307.99 225.36 309.28 220.15 308.41C213.75 307.34 207.35 306.22 200.99 304.91C190.194 302.651 179.162 301.717 168.14 302.13L87.81 304.1Z" fill="#4F56F1"/>
<path d="M350.02 52.26H158.36C144.343 52.26 132.98 63.623 132.98 77.64V184.92C132.98 198.937 144.343 210.3 158.36 210.3H350.02C364.037 210.3 375.4 198.937 375.4 184.92V77.64C375.4 63.623 364.037 52.26 350.02 52.26Z" fill="#4F56F1"/>
<path d="M348.68 52.26H157.02C143.003 52.26 131.64 63.623 131.64 77.64V184.92C131.64 198.937 143.003 210.3 157.02 210.3H348.68C362.697 210.3 374.06 198.937 374.06 184.92V77.64C374.06 63.623 362.697 52.26 348.68 52.26Z" fill="url(#paint0_linear)"/>
<path opacity="0.24" d="M239.09 158.53C239.106 163.958 237.529 169.272 234.555 173.812C231.58 178.353 227.339 181.921 222.356 184.075C217.374 186.229 211.869 186.873 206.523 185.929C201.178 184.984 196.227 182.492 192.284 178.762C188.341 175.031 185.58 170.225 184.342 164.94C183.103 159.655 183.443 154.123 185.318 149.029C187.193 143.935 190.522 139.503 194.891 136.282C199.261 133.062 204.479 131.194 209.9 130.91C210.394 130.852 210.892 130.829 211.39 130.84C218.735 130.84 225.779 133.757 230.973 138.95C236.168 144.142 239.087 151.185 239.09 158.53Z" fill="#4F56F1"/>
<path opacity="0.45" d="M237.14 83.94C236.92 84.7 233.37 85.65 232.46 86.23C230.893 87.3341 229.515 88.685 228.38 90.23C226.21 93.09 224.5 96.29 221.94 98.81C221.188 99.4432 220.534 100.185 220 101.01C219.31 102.2 219.31 103.64 218.9 104.94C218.472 106.25 217.663 107.403 216.576 108.251C215.49 109.098 214.175 109.603 212.8 109.7C213.903 110.664 214.67 111.955 214.988 113.385C215.305 114.816 215.157 116.31 214.565 117.65C213.973 118.99 212.969 120.106 211.697 120.835C210.426 121.563 208.956 121.867 207.5 121.7C208.977 124.527 209.797 127.652 209.9 130.84C205.934 131.042 202.058 132.097 198.537 133.931C195.015 135.765 191.929 138.336 189.49 141.47C188.621 141.274 187.802 140.899 187.085 140.369C186.369 139.838 185.771 139.164 185.33 138.39C183.12 140.39 179.58 139.11 177.26 137.28C168.87 130.77 166.51 117.7 172.11 108.67C174.86 104.17 180.76 100.67 185.26 103.37C186.44 101.47 189.1 100.9 191.26 101.47C193.41 102.22 195.372 103.428 197.01 105.01C196.59 101.69 199.41 98.49 202.69 97.84C204.364 97.6238 206.066 97.832 207.638 98.4454C209.211 99.0587 210.604 100.058 211.69 101.35C210.77 100.28 228.94 84.63 230.85 83.35C231.92 82.68 238.4 79.63 237.14 83.94Z" fill="#4F56F1"/>
<path opacity="0.24" d="M233.01 125.41C226.08 134.33 217.32 143.7 206.01 143.9C203.94 143.9 201.78 143.66 199.86 144.46C196.17 146 195.1 150.62 194.52 154.59C193.07 164.59 191.63 174.74 193.52 184.59C194.99 192.27 198.45 199.75 197.72 207.53C197.58 208.96 197.19 210.53 195.96 211.29C194.986 211.729 193.9 211.859 192.85 211.66L175.53 210.14C174.085 210.154 172.668 209.747 171.45 208.97C170.477 208.044 169.783 206.862 169.45 205.56C162.45 185.65 164.13 163.9 165.87 142.88C166.25 138.25 166.65 133.54 168.35 129.21C170.05 124.88 173.24 120.92 177.64 119.43C187.64 116.04 197.31 126.35 207.88 126.76C218.88 127.18 226.57 117.5 234.44 111.33C237.07 109.26 243.53 103.05 244.11 109.4C244.53 113.62 235.53 122.22 233.01 125.41Z" fill="#4F56F1"/>
<path opacity="0.24" d="M244.36 185.26C259.664 185.26 272.07 172.854 272.07 157.55C272.07 142.246 259.664 129.84 244.36 129.84C229.056 129.84 216.65 142.246 216.65 157.55C216.65 172.854 229.056 185.26 244.36 185.26Z" fill="#4F56F1"/>
<path d="M131.59 134.59C130.52 137.28 129.43 140.13 129.93 142.98C130.335 144.771 131.079 146.468 132.12 147.98C135.137 152.921 138.58 157.589 142.41 161.93C143.403 163.283 144.779 164.307 146.36 164.87C147.829 154.269 148.181 143.544 147.41 132.87C147.419 131.908 147.196 130.958 146.76 130.1C146.023 129.13 145.018 128.397 143.87 127.99C141.22 126.75 138.58 125.3 135.87 124.3C135.07 125.3 132.41 134.59 131.59 134.59Z" fill="#C8A59C"/>
<path d="M241.26 102.98L230.2 101.17C230.2 101.17 229.06 98.82 230.8 98.02L248.3 101.02L241.26 102.98Z" fill="#606161"/>
<path d="M207.49 122.89C209.163 123.133 210.861 123.156 212.54 122.96C213.19 122.7 232.11 107.68 239.36 103.96C242.712 101.884 246.567 100.76 250.51 100.71C252.33 100.59 254.51 100.65 255.51 102.2C255.8 102.744 255.933 103.358 255.892 103.973C255.852 104.588 255.639 105.179 255.28 105.68C254.551 106.672 253.581 107.461 252.46 107.97C250.147 109.173 247.611 109.885 245.01 110.06C244.332 110.055 243.657 110.156 243.01 110.36C242.176 110.774 241.457 111.389 240.92 112.15C235.553 118.503 229.937 124.627 224.07 130.52C220.94 133.66 217.4 136.9 212.99 137.4C211.403 137.537 209.805 137.432 208.25 137.09C205.212 136.501 202.27 135.491 199.51 134.09C198.909 133.83 198.378 133.433 197.96 132.93C197.52 132.222 197.32 131.391 197.39 130.56C197.451 127.798 198.449 125.14 200.22 123.02C202.54 120.26 204.52 122.24 207.49 122.89Z" fill="#C8A59C"/>
<path d="M181.1 85.77C181.284 88.0656 181.197 90.3748 180.84 92.65C180.39 94.97 179.09 97.43 176.84 98.03C175.5 98.38 173.93 98.03 172.84 98.94C172.02 99.61 171.79 100.74 171.24 101.65C170.706 102.409 169.996 103.025 169.17 103.447C168.344 103.869 167.427 104.083 166.5 104.07C164.646 104.023 162.813 103.661 161.08 103C160.627 102.894 160.205 102.681 159.85 102.38C159.391 101.788 159.17 101.046 159.23 100.3C159.023 94.6 158.943 88.8933 158.99 83.18C158.896 81.531 159.156 79.881 159.75 78.34C160.797 76.5199 162.403 75.0857 164.33 74.25C167.053 72.8458 169.984 71.8869 173.01 71.41C175.8 70.96 180.44 71.22 180.95 74.82C180.975 76.1358 180.914 77.4519 180.77 78.76C180.82 81.07 181.01 83.41 181.1 85.77Z" fill="#C8A59C"/>
<path d="M182.79 67.32C183.233 67.991 183.515 68.7557 183.612 69.554C183.709 70.3523 183.619 71.1623 183.35 71.92C182.787 73.4381 181.818 74.773 180.55 75.78C179.797 76.324 179.124 76.9702 178.55 77.7C177.34 79.51 177.92 81.93 177.55 84.09C177.55 84.26 177.45 84.47 177.27 84.5C177.09 84.53 176.96 84.38 176.84 84.24C176.505 83.8523 176.054 83.5822 175.554 83.4691C175.054 83.3561 174.531 83.406 174.062 83.6117C173.592 83.8174 173.201 84.168 172.945 84.6121C172.689 85.0563 172.582 85.5707 172.64 86.08C172.78 87.38 173.95 88.45 173.9 89.76C173.796 90.5025 173.476 91.1981 172.98 91.76C172.618 92.3466 172.083 92.8074 171.45 93.08C170.93 93.195 170.39 93.195 169.87 93.08L159.07 91.83C158.462 91.784 157.861 91.6665 157.28 91.48C156.518 91.1533 155.84 90.6576 155.298 90.0305C154.756 89.4033 154.363 88.6611 154.15 87.86C153.741 86.2535 153.566 84.5965 153.63 82.94C153.63 79.94 153.49 76.78 152.26 74C152.034 73.605 151.923 73.1547 151.94 72.7C152.017 72.3968 152.164 72.1159 152.37 71.88C154.08 69.67 156.68 68.15 157.85 65.62C158.033 65.1446 158.265 64.6889 158.54 64.26C159.44 63.07 161.19 63.05 162.68 63.13L169.35 63.5C170.88 63.58 172.07 63.01 173.53 62.91C174.613 62.9109 175.684 63.1427 176.67 63.59C178.67 64.47 181.49 65.53 182.79 67.32Z" fill="#606161"/>
<path d="M182.79 67.32C183.233 67.991 183.515 68.7557 183.612 69.554C183.709 70.3523 183.619 71.1623 183.35 71.92C182.787 73.4381 181.818 74.773 180.55 75.78C179.797 76.324 179.124 76.9702 178.55 77.7C177.34 79.51 177.92 81.93 177.55 84.09C177.55 84.26 177.45 84.47 177.27 84.5C177.09 84.53 176.96 84.38 176.84 84.24C176.505 83.8523 176.054 83.5822 175.554 83.4691C175.054 83.3561 174.531 83.406 174.062 83.6117C173.592 83.8174 173.201 84.168 172.945 84.6121C172.689 85.0563 172.582 85.5707 172.64 86.08C172.78 87.38 173.95 88.45 173.9 89.76C173.796 90.5025 173.476 91.1981 172.98 91.76C172.618 92.3466 172.083 92.8074 171.45 93.08C170.93 93.195 170.39 93.195 169.87 93.08L159.07 91.83C158.462 91.784 157.861 91.6665 157.28 91.48C156.518 91.1533 155.84 90.6576 155.298 90.0305C154.756 89.4033 154.363 88.6611 154.15 87.86C153.741 86.2535 153.566 84.5965 153.63 82.94C153.63 79.94 153.49 76.78 152.26 74C152.034 73.605 151.923 73.1547 151.94 72.7C152.017 72.3968 152.164 72.1159 152.37 71.88C154.08 69.67 156.68 68.15 157.85 65.62C158.033 65.1446 158.265 64.6889 158.54 64.26C159.44 63.07 161.19 63.05 162.68 63.13L169.35 63.5C170.88 63.58 172.07 63.01 173.53 62.91C174.613 62.9109 175.684 63.1427 176.67 63.59C178.67 64.47 181.49 65.53 182.79 67.32Z" fill="url(#paint1_linear)"/>
<path d="M158.56 101.17C162.56 101.87 166.76 101.69 170.86 101.85C177.08 102.08 183.47 103.18 188.69 106.56C190.808 108.019 192.798 109.655 194.64 111.45L203.64 119.76C203.998 120.001 204.275 120.345 204.432 120.747C204.589 121.149 204.62 121.59 204.52 122.01C204.041 126.416 201.929 130.484 198.6 133.41C198.405 133.619 198.15 133.762 197.87 133.82C197.594 133.823 197.322 133.754 197.08 133.62L187.08 128.98C186.735 130.948 186.735 132.962 187.08 134.93C189.65 149.36 187.08 164.39 185.82 178.99C185.813 179.655 185.66 180.311 185.37 180.91C184.953 181.525 184.38 182.019 183.71 182.34C178.08 185.49 171.31 185.62 164.86 185.58C158.86 185.58 152.51 185.28 147.69 181.78C147.112 181.399 146.624 180.898 146.26 180.31C145.901 179.489 145.743 178.594 145.8 177.7L145.24 139.65C145.284 138.748 145.159 137.846 144.87 136.99C143.98 134.77 135.7 131.31 134.27 124.52C135.28 117.41 152.83 102.22 158.56 101.17Z" fill="#4F56F1"/>
<path d="M158.56 101.17C162.56 101.87 166.76 101.69 170.86 101.85C177.08 102.08 183.47 103.18 188.69 106.56C190.808 108.019 192.798 109.655 194.64 111.45L203.64 119.76C203.998 120.001 204.275 120.345 204.432 120.747C204.589 121.149 204.62 121.59 204.52 122.01C204.041 126.416 201.929 130.484 198.6 133.41C198.405 133.619 198.15 133.762 197.87 133.82C197.594 133.823 197.322 133.754 197.08 133.62L187.08 128.98C186.735 130.948 186.735 132.962 187.08 134.93C189.65 149.36 187.08 164.39 185.82 178.99C185.813 179.655 185.66 180.311 185.37 180.91C184.953 181.525 184.38 182.019 183.71 182.34C178.08 185.49 171.31 185.62 164.86 185.58C158.86 185.58 152.51 185.28 147.69 181.78C147.112 181.399 146.624 180.898 146.26 180.31C145.901 179.489 145.743 178.594 145.8 177.7L145.24 139.65C145.284 138.748 145.159 137.846 144.87 136.99C143.98 134.77 135.7 131.31 134.27 124.52C135.28 117.41 152.83 102.22 158.56 101.17Z" fill="url(#paint2_linear)"/>
<path d="M185.34 180.87C185.34 180.87 193.59 224.87 193.59 230.76C193.59 236.65 182.87 293.24 182.87 293.24C182.87 293.24 173.48 293.78 171.07 290.56L175.63 236.41L168.01 213.15L164.08 243.63L139.14 291.9L126.82 284.41L151.01 232.41C151.01 232.41 138.88 206.78 146.28 180.31L185.34 180.87Z" fill="#606161"/>
<path d="M185.34 180.87C185.34 180.87 193.59 224.87 193.59 230.76C193.59 236.65 182.87 293.24 182.87 293.24C182.87 293.24 173.48 293.78 171.07 290.56L175.63 236.41L168.01 213.15L164.08 243.63L139.14 291.9L126.82 284.41L151.01 232.41C151.01 232.41 138.88 206.78 146.28 180.31L185.34 180.87Z" fill="url(#paint3_linear)"/>
<path d="M171.23 308.54C171.217 308.687 171.241 308.835 171.3 308.97C171.412 309.139 171.583 309.261 171.78 309.31C173.57 309.88 175.442 310.147 177.32 310.1C183.38 310.26 189.447 310.397 195.52 310.51C195.52 307.61 193.02 305.26 190.33 304.18C187.64 303.1 184.69 302.92 181.89 302.18C181.317 302.086 180.794 301.796 180.41 301.36C180.178 300.935 180.067 300.454 180.09 299.97L179.87 294.24C179.9 293.894 179.859 293.546 179.751 293.216C179.643 292.886 179.469 292.581 179.24 292.32C178.976 292.128 178.677 291.989 178.36 291.91C177.25 291.58 174.41 290.39 173.36 291.1C172.31 291.81 172.31 294.72 172.15 295.92C171.563 300.102 171.256 304.318 171.23 308.54Z" fill="#606161"/>
<path d="M122.55 297.29C122.451 297.412 122.378 297.552 122.335 297.703C122.292 297.854 122.281 298.012 122.301 298.167C122.322 298.323 122.374 298.473 122.455 298.607C122.535 298.742 122.643 298.858 122.77 298.95L131.56 308.95C131.787 309.251 132.073 309.502 132.4 309.69C132.786 309.851 133.202 309.929 133.62 309.92C137.26 310.07 140.92 310.06 144.56 309.92C144.325 308.727 143.824 307.603 143.096 306.63C142.367 305.657 141.428 304.861 140.35 304.3C138.98 303.6 137.35 303.3 136.19 302.3C135.161 301.346 134.358 300.174 133.84 298.87C133.371 298.212 133.133 297.418 133.164 296.611C133.195 295.804 133.492 295.03 134.01 294.41L135.82 291.41C136.083 291.088 136.266 290.707 136.353 290.3C136.44 289.893 136.428 289.472 136.32 289.07C136.06 288.632 135.673 288.283 135.21 288.07C133.95 287.33 132.21 285.82 130.77 285.55C129.33 285.28 128.77 286.63 128.03 287.84C126.26 290.91 124.01 294.02 122.55 297.29Z" fill="#606161"/>
<path opacity="0.24" d="M351 86.49H284.22C282.889 86.49 281.81 87.569 281.81 88.9V88.91C281.81 90.241 282.889 91.32 284.22 91.32H351C352.331 91.32 353.41 90.241 353.41 88.91V88.9C353.41 87.569 352.331 86.49 351 86.49Z" fill="#4F56F1"/>
<path opacity="0.24" d="M350.2 94.8H283.42C282.089 94.8 281.01 95.879 281.01 97.21V97.22C281.01 98.551 282.089 99.63 283.42 99.63H350.2C351.531 99.63 352.61 98.551 352.61 97.22V97.21C352.61 95.879 351.531 94.8 350.2 94.8Z" fill="#4F56F1"/>
<path opacity="0.24" d="M349.39 103.12H282.61C281.279 103.12 280.2 104.199 280.2 105.53V105.54C280.2 106.871 281.279 107.95 282.61 107.95H349.39C350.721 107.95 351.8 106.871 351.8 105.54V105.53C351.8 104.199 350.721 103.12 349.39 103.12Z" fill="#4F56F1"/>
<path opacity="0.24" d="M348.59 111.43H281.81C280.479 111.43 279.4 112.509 279.4 113.84V113.85C279.4 115.181 280.479 116.26 281.81 116.26H348.59C349.921 116.26 351 115.181 351 113.85V113.84C351 112.509 349.921 111.43 348.59 111.43Z" fill="#4F56F1"/>
<path opacity="0.24" d="M352.61 124.84H278.33V190.27H352.61V124.84Z" fill="#4F56F1"/>
<path opacity="0.24" d="M285.66 147.01L300.67 172.03L324.99 141.64L335.36 156.3L350.02 132.35V186.69H281.01V157.38L285.66 147.01Z" fill="#4F56F1"/>
<path opacity="0.24" d="M355.49 134.95C352.06 131.71 346.78 131 342.22 132.19C337.66 133.38 333.7 136.24 330.22 139.41C328.067 141.208 326.272 143.397 324.93 145.86C323.3 149.16 323.11 152.98 323.09 156.66C323.06 164.802 323.729 172.932 325.09 180.96C325.155 181.725 325.413 182.462 325.84 183.1C327.12 184.69 329.62 183.95 331.65 184.17C334.11 184.44 336.12 186.33 337.37 188.47C338.471 190.685 339.433 192.966 340.25 195.3C342.094 199.591 345.036 203.319 348.78 206.11C351.48 208.11 355.45 209.54 358.05 207.39C358.928 206.548 359.611 205.524 360.05 204.39C372.45 177.34 362.25 144.78 371.18 116.39C371.74 114.61 375.82 106.27 373.18 105.02C371.18 104.12 368.13 109.29 367.27 110.45C364.628 113.883 362.286 117.536 360.27 121.37C359.45 122.88 354.12 133.66 355.49 134.95Z" fill="#4F56F1"/>
<path d="M266.44 71.48C264.5 74.68 260 78.48 254.21 81.54C245.26 86.26 236.61 87.41 234.86 84.09C234.644 83.5947 234.542 83.0574 234.561 82.5175C234.58 81.9777 234.72 81.4489 234.97 80.97C235.77 78.97 237.79 76.59 240.69 74.26C242.93 72.4663 245.342 70.8987 247.89 69.58C253.45 66.64 258.89 65.08 262.63 65.12L266.44 71.48Z" fill="url(#paint4_linear)"/>
<path opacity="0.24" d="M240.69 74.26C237.79 76.59 235.77 78.95 234.97 80.97C232.84 78.45 226.97 76.55 226.97 76.55C231.81 73.04 238.86 73.96 240.69 74.26Z" fill="#4F56F1"/>
<path opacity="0.24" d="M238.35 95.41C238.35 95.41 246.19 91.41 247.61 84.36C247.61 84.36 240.95 87.02 237.79 85.8C237.79 85.8 239.89 88.81 238.35 95.41Z" fill="#4F56F1"/>
<path opacity="0.24" d="M266.48 71.41L262.67 65.05C262.67 65.05 268.92 64.05 269.76 65.17C270.6 66.29 266.9 70.91 266.48 71.41Z" fill="#4F56F1"/>
<path opacity="0.24" d="M246.82 80.15C248.377 80.15 249.64 78.8875 249.64 77.33C249.64 75.7726 248.377 74.51 246.82 74.51C245.263 74.51 244 75.7726 244 77.33C244 78.8875 245.263 80.15 246.82 80.15Z" fill="#4F56F1"/>
<path opacity="0.24" d="M252.69 76.23C253.916 76.23 254.91 75.2361 254.91 74.01C254.91 72.7839 253.916 71.79 252.69 71.79C251.464 71.79 250.47 72.7839 250.47 74.01C250.47 75.2361 251.464 76.23 252.69 76.23Z" fill="#4F56F1"/>
<path opacity="0.24" d="M258.26 73.41C259.486 73.41 260.48 72.4161 260.48 71.19C260.48 69.9639 259.486 68.97 258.26 68.97C257.034 68.97 256.04 69.9639 256.04 71.19C256.04 72.4161 257.034 73.41 258.26 73.41Z" fill="#4F56F1"/>
<path d="M144.84 136.95V119.29C144.84 119.29 136.56 123.23 135.13 126.8C135.13 126.8 142.92 136.01 144.84 136.95Z" fill="url(#paint5_linear)"/>
<path d="M359.58 237.98C359.164 239.592 359.219 241.289 359.74 242.87C362.59 255.39 365.26 268.07 365.32 280.87C365.32 284.38 365.13 287.98 363.74 291.2C362.427 294.023 360.463 296.493 358.01 298.41C357.1 299.17 356.01 300.17 356.33 301.31C356.485 301.774 356.782 302.176 357.18 302.46C357.957 303.071 358.893 303.445 359.877 303.539C360.861 303.633 361.851 303.442 362.73 302.99C363.696 302.395 364.557 301.645 365.28 300.77L371.98 293.48C372.345 293.124 372.64 292.704 372.85 292.24C373.063 291.27 372.947 290.257 372.52 289.36C369.79 280.78 373.43 271.6 373.89 262.61C374.31 254.24 371.94 246.01 369.6 237.96C369.399 237.068 369.029 236.223 368.51 235.47C368.019 234.927 367.411 234.505 366.731 234.234C366.052 233.964 365.319 233.853 364.59 233.91C363.134 234.035 361.706 234.39 360.36 234.96" fill="url(#paint6_linear)"/>
<path d="M373.35 239.7C374.583 249.347 375.733 259.013 376.8 268.7C377.91 278.84 378.92 289.27 376.28 299.13C375.74 301.13 375.1 303.55 376.37 305.23C377.008 305.952 377.886 306.42 378.841 306.546C379.796 306.673 380.766 306.451 381.57 305.92C382.356 305.367 383.017 304.656 383.513 303.833C384.009 303.01 384.328 302.093 384.45 301.14C384.665 299.236 384.665 297.314 384.45 295.41C383.79 283.18 386.58 271.05 387.33 258.83C387.723 254.229 387.508 249.595 386.69 245.05C385.75 240.45 383.46 233.83 379.15 231.28C373.61 227.97 372.91 236.22 373.35 239.7Z" fill="url(#paint7_linear)"/>
<path d="M353.24 302.9C352.935 303.173 352.702 303.516 352.56 303.9C352.509 304.254 352.572 304.615 352.742 304.93C352.911 305.245 353.177 305.497 353.5 305.65C354.154 305.937 354.868 306.057 355.58 306C358.305 306.075 360.981 305.268 363.21 303.7C366.14 301.43 367.51 297.47 370.7 295.6C370.8 295.527 370.917 295.479 371.04 295.46C371.92 295.35 371.61 297.06 372.36 297.51C373.11 297.96 373.72 296.94 373.86 296.16C374.12 294.762 374.12 293.328 373.86 291.93C373.76 291.46 373.57 290.93 373.1 290.79C372.63 290.65 372.04 291.28 371.75 291.79C370.898 293.489 369.645 294.954 368.1 296.06C365.25 297.89 362.39 296.94 359.35 297.62C356.71 298.27 355.01 301.02 353.24 302.9Z" fill="#4F56F1"/>
<path d="M375.11 306.07C375.035 307.243 375.143 308.42 375.43 309.56C375.58 310.129 375.859 310.657 376.246 311.101C376.633 311.545 377.117 311.893 377.66 312.12C378.344 312.282 379.057 312.275 379.738 312.101C380.419 311.927 381.048 311.59 381.57 311.12C383.426 309.603 384.736 307.52 385.3 305.19C385.851 302.869 386 300.471 385.74 298.1C385.66 297.15 385.43 296.04 384.57 295.63C384.355 296.797 383.806 297.876 382.989 298.737C382.173 299.598 381.124 300.204 379.97 300.48C379.233 300.675 378.449 300.59 377.772 300.241C377.094 299.892 376.569 299.303 376.3 298.59C374.93 300.41 375.15 303.8 375.11 306.07Z" fill="#4F56F1"/>
<path d="M354.41 195.63C354.069 201.783 354.172 207.952 354.72 214.09L355.72 229.18L356.79 245.64C356.748 247.173 357.129 248.688 357.89 250.02C358.89 251.42 360.61 251.69 362.15 251.85C371.095 252.792 380.086 253.236 389.08 253.18C390.26 253.18 391.6 253.09 392.39 252.05C392.907 251.192 393.187 250.212 393.2 249.21C393.72 243.95 393.82 238.63 394.35 233.37C395.2 224.77 397.19 216.37 398.02 207.81C398.85 199.25 398.44 190.05 394.81 182.45C394.45 181.536 393.873 180.723 393.13 180.08C392.338 179.581 391.426 179.304 390.49 179.28C382.092 178.373 373.646 177.989 365.2 178.13C363.73 178.13 360.73 177.57 359.44 178.42C358.31 179.16 357.44 182.19 356.93 183.54C355.552 187.439 354.704 191.505 354.41 195.63Z" fill="#606161"/>
<path d="M357.11 97.86C355.85 101.61 355.06 105.71 356.22 109.49C356.28 109.762 356.415 110.011 356.61 110.21C356.785 110.346 356.986 110.444 357.2 110.5L358.75 111.01C359.414 111.297 360.141 111.408 360.86 111.33C361.22 111.283 361.549 111.105 361.785 110.83C362.022 110.555 362.148 110.202 362.14 109.84L362.75 112.02L371.06 111.27C371.333 111.267 371.6 111.188 371.83 111.04C371.958 110.908 372.057 110.751 372.122 110.579C372.188 110.407 372.218 110.224 372.21 110.04C372.72 104.95 372.6 99.82 372.66 94.7C372.66 91.93 372.76 89.05 371.66 86.51C370.56 83.97 367.88 81.88 365.15 82.4C362.42 82.92 361.05 85.06 360.63 87.57C360.01 91.12 358.26 94.47 357.11 97.86Z" fill="#606161"/>
<path d="M357.11 97.86C355.85 101.61 355.06 105.71 356.22 109.49C356.28 109.762 356.415 110.011 356.61 110.21C356.785 110.346 356.986 110.444 357.2 110.5L358.75 111.01C359.414 111.297 360.141 111.408 360.86 111.33C361.22 111.283 361.549 111.105 361.785 110.83C362.022 110.555 362.148 110.202 362.14 109.84L362.75 112.02L371.06 111.27C371.333 111.267 371.6 111.188 371.83 111.04C371.958 110.908 372.057 110.751 372.122 110.579C372.188 110.407 372.218 110.224 372.21 110.04C372.72 104.95 372.6 99.82 372.66 94.7C372.66 91.93 372.76 89.05 371.66 86.51C370.56 83.97 367.88 81.88 365.15 82.4C362.42 82.92 361.05 85.06 360.63 87.57C360.01 91.12 358.26 94.47 357.11 97.86Z" fill="url(#paint8_linear)"/>
<path d="M398.01 122.62C399.86 126.46 400.1 130.85 400.3 135.11C400.72 143.65 403.48 152.95 399.9 160.72C395.03 171.33 404.99 176.97 397.78 185.49C396.71 186.75 359.12 189.35 356.08 182.74C354.95 180.3 357.99 171.65 357.76 168.97C356.54 154.86 355.38 140.25 360.06 126.89C360.984 123.85 362.576 121.055 364.72 118.71C375.24 108.28 391.36 108.66 398.01 122.62Z" fill="#4F56F1"/>
<path d="M398.01 122.62C399.86 126.46 400.1 130.85 400.3 135.11C400.72 143.65 403.48 152.95 399.9 160.72C395.03 171.33 404.99 176.97 397.78 185.49C396.71 186.75 359.12 189.35 356.08 182.74C354.95 180.3 357.99 171.65 357.76 168.97C356.54 154.86 355.38 140.25 360.06 126.89C360.984 123.85 362.576 121.055 364.72 118.71C375.24 108.28 391.36 108.66 398.01 122.62Z" fill="url(#paint9_linear)"/>
<path d="M361.58 97.96C361.24 100.08 361.24 102.24 361.58 104.36C361.754 105.419 362.154 106.428 362.753 107.318C363.351 108.209 364.135 108.96 365.05 109.52C366.275 110.048 367.552 110.447 368.86 110.71C369.234 110.778 369.581 110.952 369.86 111.21C370.051 111.433 370.182 111.702 370.24 111.99C370.469 113.395 370.522 114.822 370.4 116.24C370.347 116.951 370.463 117.665 370.737 118.324C371.012 118.982 371.437 119.567 371.98 120.03C372.451 120.31 372.981 120.477 373.528 120.517C374.075 120.557 374.623 120.469 375.13 120.26C376.144 119.835 377.052 119.194 377.79 118.38C378.293 117.888 378.739 117.341 379.12 116.75C380.093 114.883 380.513 112.777 380.33 110.68C380.33 107.9 380.05 105.12 380.03 102.34C380.03 97.42 382.38 94.49 382.22 89.58C382.22 88.72 380.41 85.85 380.03 85.08C379.657 84.4364 379.181 83.8587 378.62 83.37C378.078 82.7938 377.442 82.3137 376.74 81.95C375.667 81.5733 374.51 81.504 373.4 81.75C371.02 82.1104 368.693 82.7585 366.47 83.68C365.603 83.9984 364.805 84.4805 364.12 85.1C363.806 85.4207 363.567 85.8063 363.418 86.2296C363.27 86.6529 363.216 87.1036 363.26 87.55C363.166 88.6736 362.979 89.7874 362.7 90.88C362.24 93.2333 361.867 95.5933 361.58 97.96Z" fill="url(#paint10_linear)"/>
<path d="M361.56 75.41C359.045 77.844 357.46 81.0808 357.08 84.56C356.919 85.6695 356.97 86.7994 357.23 87.89C357.418 88.7094 357.88 89.4399 358.54 89.96C359.3 90.4371 360.198 90.6449 361.09 90.55C362.056 90.5522 362.999 90.2553 363.79 89.7C364.184 89.4207 364.489 89.0329 364.666 88.5837C364.844 88.1344 364.887 87.6433 364.79 87.17L365.05 89.67C365.048 89.8419 365.1 90.01 365.2 90.15C365.299 90.2293 365.413 90.2863 365.535 90.3174C365.658 90.3485 365.786 90.3528 365.91 90.33L371.4 90.03C371.724 90.0832 372.056 90.0087 372.327 89.8222C372.597 89.6358 372.785 89.3518 372.85 89.03L373.85 86.39C373.821 87.432 374.103 88.4591 374.66 89.34C375.066 89.8183 375.628 90.1371 376.247 90.2397C376.866 90.3422 377.502 90.2219 378.04 89.9C377.99 96.9 377.89 104.15 374.88 110.46C375.39 111.092 376.044 111.592 376.786 111.919C377.529 112.246 378.34 112.391 379.15 112.34C380.313 112.405 381.47 112.141 382.49 111.58C382.995 111.296 383.416 110.884 383.71 110.385C384.005 109.887 384.164 109.319 384.17 108.74L384.05 110.49C384.019 110.657 384.055 110.829 384.15 110.97C384.224 111.025 384.308 111.064 384.397 111.085C384.487 111.106 384.58 111.107 384.67 111.09L390.27 110.69C390.59 110.722 390.91 110.639 391.174 110.456C391.438 110.272 391.628 110.001 391.71 109.69C393.285 106.784 394.578 103.733 395.57 100.58C397.01 95.5 396.88 90.11 396.39 84.86C396.301 83.3322 396.012 81.8226 395.53 80.37C393.92 76.1 389.35 73.61 384.87 72.78C380.39 71.95 375.93 72.57 371.46 72.17C369.673 71.9521 367.861 72.1294 366.15 72.6893C364.439 73.2491 362.872 74.1779 361.56 75.41Z" fill="#606161"/>
<path d="M361.56 75.41C359.045 77.844 357.46 81.0808 357.08 84.56C356.919 85.6695 356.97 86.7994 357.23 87.89C357.418 88.7094 357.88 89.4399 358.54 89.96C359.3 90.4371 360.198 90.6449 361.09 90.55C362.056 90.5522 362.999 90.2553 363.79 89.7C364.184 89.4207 364.489 89.0329 364.666 88.5837C364.844 88.1344 364.887 87.6433 364.79 87.17L365.05 89.67C365.048 89.8419 365.1 90.01 365.2 90.15C365.299 90.2293 365.413 90.2863 365.535 90.3174C365.658 90.3485 365.786 90.3528 365.91 90.33L371.4 90.03C371.724 90.0832 372.056 90.0087 372.327 89.8222C372.597 89.6358 372.785 89.3518 372.85 89.03L373.85 86.39C373.821 87.432 374.103 88.4591 374.66 89.34C375.066 89.8183 375.628 90.1371 376.247 90.2397C376.866 90.3422 377.502 90.2219 378.04 89.9C377.99 96.9 377.89 104.15 374.88 110.46C375.39 111.092 376.044 111.592 376.786 111.919C377.529 112.246 378.34 112.391 379.15 112.34C380.313 112.405 381.47 112.141 382.49 111.58C382.995 111.296 383.416 110.884 383.71 110.385C384.005 109.887 384.164 109.319 384.17 108.74L384.05 110.49C384.019 110.657 384.055 110.829 384.15 110.97C384.224 111.025 384.308 111.064 384.397 111.085C384.487 111.106 384.58 111.107 384.67 111.09L390.27 110.69C390.59 110.722 390.91 110.639 391.174 110.456C391.438 110.272 391.628 110.001 391.71 109.69C393.285 106.784 394.578 103.733 395.57 100.58C397.01 95.5 396.88 90.11 396.39 84.86C396.301 83.3322 396.012 81.8226 395.53 80.37C393.92 76.1 389.35 73.61 384.87 72.78C380.39 71.95 375.93 72.57 371.46 72.17C369.673 71.9521 367.861 72.1294 366.15 72.6893C364.439 73.2491 362.872 74.1779 361.56 75.41Z" fill="url(#paint11_linear)"/>
<path d="M363.34 173.94L328.59 178.88L317.49 130.49L352.24 125.55L363.34 173.94Z" fill="white"/>
<path d="M407.01 161.01C407.01 162.54 407.01 164.22 406.01 165.41C405.01 166.6 403.22 167.01 401.61 167.19C389.942 168.485 378.16 166.116 367.9 160.41C367.085 160.028 366.378 159.451 365.84 158.73C365.4 157.903 365.183 156.976 365.21 156.04C365.128 154.139 365.172 152.235 365.34 150.34C365.32 149.921 365.391 149.504 365.548 149.115C365.705 148.727 365.945 148.377 366.25 148.09C366.824 147.777 367.485 147.665 368.13 147.77L383.89 148.55C384.416 148.643 384.959 148.536 385.41 148.25C385.767 147.896 385.977 147.422 386 146.92C386.85 141.84 386 136.62 386.5 131.49C386.89 127.77 388.62 121.49 392.9 120.49C397.9 119.32 399.51 125.61 400.79 129.1C404.566 139.333 406.666 150.108 407.01 161.01Z" fill="#4F56F1"/>
<path d="M358.77 146.59C358.13 146.277 357.46 146.029 356.77 145.85C356.14 145.737 355.5 145.683 354.86 145.69C353.49 145.69 352.13 145.69 350.77 145.69C349.561 145.67 348.353 145.788 347.17 146.04C346.824 146.098 346.507 146.271 346.27 146.53C346.11 146.773 346.026 147.059 346.03 147.35C345.977 148.359 346.208 149.363 346.698 150.247C347.187 151.132 347.916 151.86 348.8 152.35C349.208 152.508 349.557 152.787 349.8 153.15C349.91 153.37 349.91 153.64 350.01 153.87C350.234 154.253 350.589 154.541 351.01 154.68C353.165 155.658 355.479 156.241 357.84 156.4C358.166 156.394 358.489 156.455 358.79 156.58C359.002 156.707 359.206 156.848 359.4 157C359.84 157.246 360.328 157.393 360.83 157.433C361.332 157.473 361.837 157.403 362.31 157.23C363.251 156.88 364.217 156.603 365.2 156.4C366.02 156.3 367.02 156.33 367.43 155.63C367.625 155.204 367.664 154.722 367.54 154.27C367.461 153.112 367.291 151.961 367.03 150.83C366.77 150 366.09 149.83 365.32 149.52L362.01 148.03C361.11 147.62 359.52 147.26 358.77 146.59Z" fill="url(#paint12_linear)"/>
<path d="M83.14 244.41C83.9923 235.241 82.9264 225.995 80.01 217.26C78.32 212.26 76.01 207.4 74.52 202.26C73.03 197.12 72.34 191.64 73.95 186.58C75.56 181.52 76.72 177.21 79.37 172.63C82.29 167.63 85.26 162.5 89.45 158.48C85.3824 164.594 82.5745 171.457 81.1906 178.668C79.8067 185.88 79.8745 193.295 81.39 200.48C82.24 204.38 83.51 208.18 84.48 212.06C86.73 221.06 87.36 230.39 87.48 239.67C87.48 241.45 87.48 243.37 86.4 244.81C85.32 246.25 84.21 245.88 83.14 244.41Z" fill="#4F56F1"/>
<path d="M73.6 163.21C73.6 163.21 89.91 178.14 89.01 198.81C88.11 219.48 85.74 243.81 86.34 244.81C86.94 245.81 96.59 245.87 96.59 245.87C95.571 230.352 95.3407 214.792 95.9 199.25C96.8 173.32 73.6 163.21 73.6 163.21Z" fill="#4F56F1"/>
<path d="M73.6 163.21C73.6 163.21 89.91 178.14 89.01 198.81C88.11 219.48 85.74 243.81 86.34 244.81C86.94 245.81 96.59 245.87 96.59 245.87C95.571 230.352 95.3407 214.792 95.9 199.25C96.8 173.32 73.6 163.21 73.6 163.21Z" fill="url(#paint13_linear)"/>
<path d="M123.06 164.98C123.06 164.98 103.76 179.98 99.32 204.63C94.88 229.28 92.59 245.97 92.59 245.97L103.59 245.51C103.59 245.51 103.74 205.7 112.32 187.63C120.9 169.56 123.06 164.98 123.06 164.98Z" fill="#4F56F1"/>
<path d="M123.06 164.98C123.06 164.98 103.76 179.98 99.32 204.63C94.88 229.28 92.59 245.97 92.59 245.97L103.59 245.51C103.59 245.51 103.74 205.7 112.32 187.63C120.9 169.56 123.06 164.98 123.06 164.98Z" fill="url(#paint14_linear)"/>
<path d="M101.77 150.41C101.77 150.41 108.77 176.29 104.38 189.15C99.99 202.01 98.38 246.33 98.38 246.33L92.56 245.95C92.56 245.95 93.09 199.02 95.16 192.13C97.23 185.24 103.53 168.19 101.77 150.41Z" fill="#4F56F1"/>
<path d="M101.77 150.41C101.77 150.41 108.77 176.29 104.38 189.15C99.99 202.01 98.38 246.33 98.38 246.33L92.56 245.95C92.56 245.95 93.09 199.02 95.16 192.13C97.23 185.24 103.53 168.19 101.77 150.41Z" fill="url(#paint15_linear)"/>
<path d="M54.92 187.48C54.92 187.48 82.92 183.04 90.14 201.87C97.36 220.7 90.14 245.78 90.14 245.78L86.32 244.83C86.32 244.83 89.91 205.01 68.32 193.99L54.92 187.48Z" fill="#4F56F1"/>
<path d="M54.92 187.48C54.92 187.48 82.92 183.04 90.14 201.87C97.36 220.7 90.14 245.78 90.14 245.78L86.32 244.83C86.32 244.83 89.91 205.01 68.32 193.99L54.92 187.48Z" fill="url(#paint16_linear)"/>
<path d="M83.14 244.41C83.9923 235.241 82.9264 225.995 80.01 217.26C78.32 212.26 76.01 207.4 74.52 202.26C73.03 197.12 72.34 191.64 73.95 186.58C75.56 181.52 76.72 177.21 79.37 172.63C82.29 167.63 85.26 162.5 89.45 158.48C85.3824 164.594 82.5745 171.457 81.1906 178.668C79.8067 185.88 79.8745 193.295 81.39 200.48C82.24 204.38 83.51 208.18 84.48 212.06C86.73 221.06 87.36 230.39 87.48 239.67C87.48 241.45 87.48 243.37 86.4 244.81C85.32 246.25 84.21 245.88 83.14 244.41Z" fill="url(#paint17_linear)"/>
<path d="M76.2 242.75H112.95L105.6 299.71H82.94L76.2 242.75Z" fill="#4F56F1"/>
<path d="M76.2 242.75H112.95L105.6 299.71H82.94L76.2 242.75Z" fill="url(#paint18_linear)"/>
</g>
<defs>
<linearGradient id="paint0_linear" x1="230.47" y1="-107.85" x2="257.65" y2="182.48" gradientUnits="userSpaceOnUse">
<stop stop-color="white" stop-opacity="0"/>
<stop offset="0.95" stop-color="white"/>
</linearGradient>
<linearGradient id="paint1_linear" x1="151.92" y1="78.08" x2="183.64" y2="78.08" gradientUnits="userSpaceOnUse">
<stop stop-color="#010101" stop-opacity="0"/>
<stop offset="0.95" stop-color="#010101"/>
</linearGradient>
<linearGradient id="paint2_linear" x1="13156.6" y1="17564.1" x2="3806.05" y2="23259.5" gradientUnits="userSpaceOnUse">
<stop stop-color="#010101" stop-opacity="0"/>
<stop offset="0.95" stop-color="#010101"/>
</linearGradient>
<linearGradient id="paint3_linear" x1="11691.4" y1="39683.8" x2="11691.4" y2="22477.2" gradientUnits="userSpaceOnUse">
<stop stop-color="#010101" stop-opacity="0"/>
<stop offset="0.95" stop-color="#010101"/>
</linearGradient>
<linearGradient id="paint4_linear" x1="8553.55" y1="2498.87" x2="8593.5" y2="3150.5" gradientUnits="userSpaceOnUse">
<stop stop-color="white" stop-opacity="0"/>
<stop offset="0.95" stop-color="white"/>
</linearGradient>
<linearGradient id="paint5_linear" x1="1620.86" y1="3452.44" x2="1615.08" y2="4415.23" gradientUnits="userSpaceOnUse">
<stop stop-color="#010101" stop-opacity="0"/>
<stop offset="0.95" stop-color="#010101"/>
</linearGradient>
<linearGradient id="paint6_linear" x1="356.32" y1="268.75" x2="373.98" y2="268.75" gradientUnits="userSpaceOnUse">
<stop stop-color="#E4C5D5"/>
<stop offset="0.42" stop-color="#E9D3CF"/>
<stop offset="1" stop-color="#EFE8CA"/>
</linearGradient>
<linearGradient id="paint7_linear" x1="5888.37" y1="25721.3" x2="6092.42" y2="25721.3" gradientUnits="userSpaceOnUse">
<stop stop-color="#E4C5D5"/>
<stop offset="0.42" stop-color="#E9D3CF"/>
<stop offset="1" stop-color="#EFE8CA"/>
</linearGradient>
<linearGradient id="paint8_linear" x1="6571.55" y1="4945.99" x2="6861.02" y2="4945.99" gradientUnits="userSpaceOnUse">
<stop stop-color="#010101" stop-opacity="0"/>
<stop offset="0.95" stop-color="#010101"/>
</linearGradient>
<linearGradient id="paint9_linear" x1="18618.9" y1="15579.3" x2="13993.3" y2="24779.2" gradientUnits="userSpaceOnUse">
<stop stop-color="#010101" stop-opacity="0"/>
<stop offset="0.95" stop-color="#010101"/>
</linearGradient>
<linearGradient id="paint10_linear" x1="8185.01" y1="6607.05" x2="8621.05" y2="6607.05" gradientUnits="userSpaceOnUse">
<stop stop-color="#E4C5D5"/>
<stop offset="0.42" stop-color="#E9D3CF"/>
<stop offset="1" stop-color="#EFE8CA"/>
</linearGradient>
<linearGradient id="paint11_linear" x1="370.5" y1="96.31" x2="410.41" y2="72.19" gradientUnits="userSpaceOnUse">
<stop stop-color="#010101" stop-opacity="0"/>
<stop offset="0.47" stop-color="#010101" stop-opacity="0.47"/>
<stop offset="0.95" stop-color="#010101"/>
</linearGradient>
<linearGradient id="paint12_linear" x1="8095.7" y1="2709.88" x2="8562.45" y2="2709.88" gradientUnits="userSpaceOnUse">
<stop stop-color="#E4C5D5"/>
<stop offset="0.42" stop-color="#E9D3CF"/>
<stop offset="1" stop-color="#EFE8CA"/>
</linearGradient>
<linearGradient id="paint13_linear" x1="2529.16" y1="21083.6" x2="1307.87" y2="21785.5" gradientUnits="userSpaceOnUse">
<stop stop-color="#010101" stop-opacity="0"/>
<stop offset="0.95" stop-color="#010101"/>
</linearGradient>
<linearGradient id="paint14_linear" x1="3872.39" y1="22232.3" x2="2429.91" y2="22385.6" gradientUnits="userSpaceOnUse">
<stop stop-color="#010101" stop-opacity="0"/>
<stop offset="0.95" stop-color="#010101"/>
</linearGradient>
<linearGradient id="paint15_linear" x1="1637.62" y1="23899.2" x2="-2713.81" y2="26997.9" gradientUnits="userSpaceOnUse">
<stop stop-color="#010101" stop-opacity="0"/>
<stop offset="0.95" stop-color="#010101"/>
</linearGradient>
<linearGradient id="paint16_linear" x1="3540.04" y1="16332" x2="4897.85" y2="18656.3" gradientUnits="userSpaceOnUse">
<stop stop-color="#010101" stop-opacity="0"/>
<stop offset="0.95" stop-color="#010101"/>
</linearGradient>
<linearGradient id="paint17_linear" x1="1698.02" y1="23644.4" x2="1186.61" y2="23679.5" gradientUnits="userSpaceOnUse">
<stop stop-color="#010101" stop-opacity="0"/>
<stop offset="0.95" stop-color="#010101"/>
</linearGradient>
<linearGradient id="paint18_linear" x1="3577.37" y1="13619.8" x2="1827.81" y2="26475.6" gradientUnits="userSpaceOnUse">
<stop stop-color="#010101" stop-opacity="0"/>
<stop offset="0.95" stop-color="#010101"/>
</linearGradient>
<clipPath id="clip0">
<rect width="536" height="360.29" fill="white"/>
</clipPath>
</defs>
</svg>
