<svg width="384" height="310" viewBox="0 0 384 310" fill="none" xmlns="http://www.w3.org/2000/svg">
<g clip-path="url(#clip0)">
<path opacity="0.24" d="M125.038 5.05388C98.7317 15.4682 83.4659 42.2276 63.554 62.3293C52.1349 73.8842 38.896 83.4217 27.1559 94.6416C15.4157 105.861 5.03152 119.305 1.46307 135.13C-5.3241 165.126 13.5958 194.423 18.5488 224.775C20.126 234.469 20.2902 244.47 23.4375 253.765C25.9283 261.122 30.2104 267.772 35.1634 273.724C55.2252 298.003 87.3341 311.839 118.786 309.758C139.533 308.382 159.467 300.576 180.271 299.714C211.623 298.409 243.268 312.951 273.678 305.245C287.702 301.681 300.12 293.662 312.053 285.493C335.733 269.276 360.384 249.389 365.887 221.239C369.926 200.567 362.732 178.776 367.749 158.325C370.661 146.457 377.505 135.914 381.117 124.238C388.789 99.4817 380.596 71.318 363.118 52.1644C345.639 33.0108 319.989 22.4325 294.14 20.1871C277.189 18.7116 260.132 20.5721 243.118 20.2442C201.596 19.4886 168.124 -12.004 125.038 5.05388Z" fill="#4F56F1"/>
<path opacity="0.24" d="M89.5465 251.805C87.7765 252.162 85.8924 252.625 84.7005 253.944C83.0234 255.854 83.4016 258.933 84.9361 260.965C86.4705 262.996 88.8613 264.151 91.2308 265.056C102.393 269.333 114.654 269.369 126.601 269.383C150.717 269.383 175.746 269.241 197.585 259.012C179.935 252.204 163.499 252.539 145.129 251.242C126.016 249.952 108.666 247.899 89.5465 251.805Z" fill="#4F56F1"/>
<path d="M234.539 140.49L223.192 146.699L207.105 186.382L241.162 167.756L234.539 140.49Z" fill="#4F56F1"/>
<path d="M283.463 140.49L294.81 146.699L310.897 186.382L276.84 167.756L283.463 140.49Z" fill="#4F56F1"/>
<path d="M234.539 140.49L223.192 146.699L207.105 186.382L241.162 167.756L234.539 140.49Z" fill="url(#paint0_linear)"/>
<path d="M283.463 140.49L294.81 146.699L310.897 186.382L276.84 167.756L283.463 140.49Z" fill="url(#paint1_linear)"/>
<path d="M148.854 249.239C148.634 250.01 148.681 250.832 148.986 251.573C149.292 252.314 149.839 252.931 150.538 253.323C151.234 253.634 151.965 253.859 152.715 253.993C155.017 254.557 157.148 255.67 158.924 257.237C159.213 257.427 159.449 257.688 159.609 257.995C159.769 258.302 159.847 258.645 159.838 258.99C159.674 259.782 158.746 260.117 157.961 260.302C156.31 260.75 154.624 261.057 152.922 261.221C149.461 261.457 146.035 260.509 142.695 259.546C141.424 259.183 139.512 258.634 139.219 257.158C139.16 256.142 139.208 255.121 139.362 254.115L139.583 248.982" fill="#606161"/>
<path d="M129.135 255.362C128.983 255.754 128.948 256.181 129.034 256.592C129.12 257.003 129.324 257.381 129.62 257.679C130.221 258.265 130.906 258.758 131.654 259.14C133.628 260.336 135.369 261.879 136.793 263.695C137.449 264.529 138.063 265.62 137.649 266.596C137.429 267.049 137.078 267.426 136.643 267.68C135.218 268.507 133.576 268.885 131.932 268.763C127.786 268.656 121.655 266.069 120.456 261.585C120.078 260.195 120.492 258.292 120.549 256.859L120.699 253.402" fill="#606161"/>
<path d="M152.637 169.951L149.411 250.501C148.166 251.414 146.673 251.929 145.129 251.976C142.152 252.147 141.617 252.361 139.476 250.415L130.127 165.938L152.637 165.468V169.951Z" fill="#606161"/>
<path d="M152.637 169.951L149.411 250.501C148.166 251.414 146.673 251.929 145.129 251.976C142.152 252.147 141.617 252.361 139.476 250.415L130.127 165.938L152.637 165.468V169.951Z" fill="url(#paint2_linear)"/>
<path d="M139.919 177.187L130.641 255.526C130.641 255.526 129.299 256.902 125.645 256.952C121.498 257.002 121.12 256.438 120.192 254.343L118.358 164.484L139.662 168.112L139.919 177.187Z" fill="#606161"/>
<path d="M139.919 177.187L130.641 255.526C130.641 255.526 129.299 256.902 125.645 256.952C121.498 257.002 121.12 256.438 120.192 254.343L118.358 164.484L139.662 168.112L139.919 177.187Z" fill="url(#paint3_linear)"/>
<path d="M142.809 169.346C139.902 170.328 136.907 171.029 133.867 171.441C129.834 171.855 125.609 169.909 122.448 169.745C118.23 169.531 118.115 169.396 118.115 166.651C118.115 165.268 153.186 161.954 153.186 161.954C153.186 161.954 153.022 164.484 153.029 166.822C153.029 168.576 152.28 168.476 149.089 168.661C145.899 168.847 145.286 167.877 142.809 169.346Z" fill="#F2FBFF"/>
<path d="M128.971 107.501C128.971 107.501 123.09 109.026 118.893 112.077C116.303 113.959 118.094 166.651 118.094 166.651C118.351 166.608 129.62 171.17 140.518 169.296C149.796 167.699 153.143 163.351 153.143 163.351C153.143 163.351 153.978 112.79 152.173 110.716C151.373 109.789 142.545 106.531 142.545 106.531C142.545 106.531 138.691 112.32 128.971 107.501Z" fill="#4F56F1"/>
<path d="M128.971 107.501C128.971 107.501 123.09 109.026 118.893 112.077C116.303 113.959 118.094 166.651 118.094 166.651C118.351 166.608 129.62 171.17 140.518 169.296C149.796 167.699 153.143 163.351 153.143 163.351C153.143 163.351 153.978 112.79 152.173 110.716C151.373 109.789 142.545 106.531 142.545 106.531C142.545 106.531 138.691 112.32 128.971 107.501Z" fill="url(#paint4_linear)"/>
<path d="M130.898 95.7964L128.971 107.501C128.971 107.501 133.253 113.802 138.727 112.861C144.201 111.92 142.823 109.383 142.823 109.383L142.11 99.4959C142.11 99.4959 137.192 100.358 130.898 95.7964Z" fill="#C8A59C"/>
<path d="M130.22 99.9022L130.933 95.7964C137.228 100.358 140.497 98.4196 140.497 98.4196L142.017 103.73C141.162 104.624 140.01 105.176 138.777 105.284C135.722 105.498 132.668 103.11 130.22 99.9022Z" fill="#B58B81"/>
<path d="M129.213 106.09L123.504 108.77C123.504 108.77 132.496 118.265 135.237 118.079C135.237 118.079 137.828 113.275 140.233 112.519L129.213 106.09Z" fill="#F2FBFF"/>
<path d="M142.438 107.722C141.966 109.423 141.229 111.04 140.254 112.512C140.789 112.719 144.279 115.15 144.336 116.789C144.336 116.789 147.805 108.948 146.37 107.715C145.171 107.105 143.939 106.56 142.681 106.083L142.438 107.722Z" fill="#F2FBFF"/>
<path d="M121.213 110.687C121.213 110.687 112.385 113.539 111.385 127.617C110.472 140.448 108.174 149.764 110.044 153.564C112.477 158.518 129.499 159.337 129.499 159.337C129.91 156.872 129.806 154.348 129.192 151.924L119.864 148.203C119.864 148.203 121.363 112.883 121.213 110.687Z" fill="#4F56F1"/>
<path d="M125.966 87.271C126.43 93.7649 133.103 105.241 139.597 104.778C146.092 104.315 147.983 90.8779 147.519 84.3841C147.055 77.8903 143.409 74.205 136.9 74.6683C135.353 74.7786 133.844 75.1921 132.457 75.8851C131.071 76.5782 129.834 77.5373 128.819 78.7076C127.804 79.8779 127.029 81.2365 126.54 82.7058C126.05 84.1752 125.855 85.7264 125.966 87.271Z" fill="#C8A59C"/>
<path d="M141.275 158.318C141.118 157.078 141.703 155.887 141.874 153.777C142.045 151.668 140.675 151.119 138.67 150.926C138.12 150.862 137.692 150.798 137.328 150.741C135.458 151.19 136.95 153.457 137.05 155.018C137.149 156.579 136.8 158.817 137.342 159.295C137.571 159.501 139.291 159.409 141.282 159.152C141.314 158.875 141.311 158.595 141.275 158.318Z" fill="#B58B81"/>
<path d="M142.509 98.0703C142.509 98.0703 142.331 97.9064 140.968 98.0062C139.349 98.0886 137.727 97.9737 136.136 97.664C135.087 97.4003 134.587 97.5642 134.709 98.9685C134.83 100.373 135.929 101.62 138.684 101.77C141.774 101.934 143.073 100.772 143.316 99.3819C143.487 98.3768 142.852 98.0418 142.509 98.0703Z" fill="#C8A59C"/>
<path d="M130.641 152.145C131.799 151.899 132.941 151.58 134.059 151.19C135.529 150.634 135.993 150.962 138.149 151.19C140.304 151.418 141.781 151.967 141.596 154.127C141.41 156.287 140.789 157.498 140.953 158.76C141.118 160.022 140.725 161.105 138.812 161.148C136.9 161.191 130.641 159.266 130.641 159.266" fill="#C8A59C"/>
<path d="M128.557 151.582H131.833C131.833 151.582 133.26 156.301 131.404 159.573L127.786 159.423C127.786 159.423 129.013 154.833 128.557 151.582Z" fill="#F2FBFF"/>
<path d="M130.212 153.87C130.611 153.87 130.933 153.529 130.933 153.107C130.933 152.686 130.611 152.345 130.212 152.345C129.814 152.345 129.492 152.686 129.492 153.107C129.492 153.529 129.814 153.87 130.212 153.87Z" fill="#D2E8EC"/>
<path d="M142.98 90.3362C142.873 89.9235 142.849 89.4937 142.909 89.0716C142.969 88.6495 143.112 88.2435 143.33 87.8769C143.544 87.5085 143.83 87.1868 144.171 86.9309C144.511 86.675 144.9 86.49 145.314 86.3871C145.733 86.258 146.175 86.2151 146.611 86.261C147.048 86.307 147.47 86.4408 147.854 86.6545C148.237 86.8682 148.573 87.1572 148.841 87.5041C149.109 87.8511 149.304 88.2487 149.414 88.6731C149.524 89.0974 149.547 89.5396 149.481 89.973C149.415 90.4064 149.262 90.822 149.031 91.1946C148.8 91.5672 148.496 91.8892 148.137 92.1411C147.777 92.3929 147.371 92.5695 146.941 92.66H146.827C146.01 92.8431 145.153 92.7035 144.436 92.2704C143.719 91.8374 143.198 91.1443 142.98 90.3362ZM145.507 87.1427C144.874 87.3071 144.333 87.7153 144.001 88.2778C143.669 88.8404 143.574 89.5114 143.737 90.1437C143.858 90.6127 144.114 91.0358 144.474 91.3602C144.834 91.6847 145.282 91.896 145.761 91.9679C146.241 92.0399 146.731 91.9692 147.171 91.7648C147.61 91.5603 147.98 91.2311 148.233 90.8182C148.487 90.4053 148.613 89.9271 148.596 89.4431C148.579 88.959 148.42 88.4907 148.138 88.0964C147.857 87.7022 147.465 87.3995 147.012 87.2261C146.56 87.0527 146.066 87.0162 145.592 87.1213L145.507 87.1427Z" fill="#292F67"/>
<path d="M136.35 92.7099C135.932 92.4651 135.567 92.14 135.275 91.7534C134.984 91.3668 134.772 90.9263 134.652 90.4574C134.471 89.7533 134.503 89.0115 134.743 88.3256C134.984 87.6397 135.423 87.0404 136.005 86.6034C136.586 86.1665 137.285 85.9114 138.011 85.8705C138.738 85.8295 139.46 86.0045 140.087 86.3734C140.714 86.7422 141.218 87.2884 141.535 87.9429C141.851 88.5974 141.966 89.3309 141.866 90.0508C141.765 90.7707 141.454 91.4447 140.97 91.9878C140.486 92.5308 139.852 92.9185 139.148 93.1019H139.012C138.107 93.3164 137.155 93.1761 136.35 92.7099ZM137.492 86.7293C137.119 86.8237 136.769 86.9914 136.462 87.2224C136.154 87.4535 135.896 87.7433 135.702 88.0751C135.508 88.4068 135.382 88.7739 135.332 89.1547C135.281 89.5356 135.307 89.9227 135.408 90.2934C135.551 90.8441 135.854 91.3405 136.277 91.7209C136.701 92.1014 137.227 92.349 137.791 92.433C138.354 92.517 138.93 92.4337 139.446 92.1934C139.962 91.9531 140.397 91.5665 140.695 91.0816C140.993 90.5967 141.142 90.035 141.122 89.4664C141.103 88.8977 140.917 88.3472 140.587 87.8834C140.257 87.4195 139.798 87.0628 139.267 86.8576C138.736 86.6524 138.156 86.6078 137.599 86.7293H137.492Z" fill="#292F67"/>
<path d="M142.895 89.5663L143.644 89.3454C143.596 89.1947 143.515 89.0568 143.406 88.942C143.297 88.8272 143.164 88.7385 143.016 88.6824C142.685 88.5918 142.339 88.5749 142.001 88.6328C141.663 88.6907 141.342 88.822 141.06 89.0175L141.432 89.7303C142.195 89.3168 142.566 89.3596 142.716 89.4238C142.792 89.4466 142.856 89.4976 142.895 89.5663Z" fill="#292F67"/>
<path d="M134.958 89.3596L134.93 88.5826L130.477 88.711L130.512 89.4879L134.958 89.3596Z" fill="#292F67"/>
<path d="M152.173 110.716C152.173 110.716 157.104 124.445 160.173 135.572C163.242 146.699 172.306 135.764 172.306 135.764C172.306 135.764 177.302 135.572 177.487 138.616C177.673 141.66 174.632 151.447 165.968 151.66C157.304 151.874 148.126 140.533 148.126 140.533L152.173 110.716Z" fill="#4F56F1"/>
<path d="M165.44 158.418L147.819 158.161C147.363 158.187 146.907 158.105 146.488 157.923C146.068 157.74 145.698 157.462 145.407 157.11C145.115 156.759 144.91 156.344 144.808 155.899C144.707 155.453 144.711 154.991 144.822 154.547L151.552 123.433C151.814 122.431 152.401 121.544 153.221 120.91C154.04 120.275 155.047 119.929 156.084 119.926L173.705 120.182C174.161 120.155 174.618 120.235 175.038 120.418C175.458 120.6 175.829 120.878 176.121 121.23C176.413 121.582 176.618 121.998 176.719 122.444C176.82 122.89 176.814 123.353 176.702 123.796L169.979 154.911C169.715 155.913 169.127 156.8 168.306 157.435C167.485 158.069 166.478 158.414 165.44 158.418Z" fill="#4F56F1"/>
<path d="M165.44 158.418L147.819 158.161C147.363 158.187 146.907 158.105 146.488 157.923C146.068 157.74 145.698 157.462 145.407 157.11C145.115 156.759 144.91 156.344 144.808 155.899C144.707 155.453 144.711 154.991 144.822 154.547L151.552 123.433C151.814 122.431 152.401 121.544 153.221 120.91C154.04 120.275 155.047 119.929 156.084 119.926L173.705 120.182C174.161 120.155 174.618 120.235 175.038 120.418C175.458 120.6 175.829 120.878 176.121 121.23C176.413 121.582 176.618 121.998 176.719 122.444C176.82 122.89 176.814 123.353 176.702 123.796L169.979 154.911C169.715 155.913 169.127 156.8 168.306 157.435C167.485 158.069 166.478 158.414 165.44 158.418Z" fill="url(#paint5_linear)"/>
<path d="M165.561 158.603L148.704 158.354C148.268 158.376 147.833 158.295 147.434 158.119C147.034 157.943 146.682 157.675 146.404 157.339C146.127 157.002 145.932 156.605 145.836 156.18C145.739 155.755 145.744 155.313 145.849 154.889L152.273 125.115C152.527 124.156 153.09 123.307 153.876 122.7C154.662 122.093 155.626 121.762 156.619 121.757L173.483 122.007C173.92 121.984 174.356 122.063 174.756 122.239C175.156 122.415 175.509 122.682 175.787 123.019C176.065 123.356 176.259 123.754 176.355 124.179C176.451 124.605 176.445 125.048 176.338 125.471L169.915 155.246C169.66 156.206 169.096 157.056 168.309 157.663C167.522 158.27 166.556 158.6 165.561 158.603Z" fill="#4F56F1"/>
<path d="M176.916 137.197C176.903 136.508 176.755 135.827 176.481 135.194C176.293 134.551 175.915 133.98 175.396 133.555C174.822 133.232 174.17 133.074 173.512 133.098C172.848 133.098 172.177 133.098 171.514 133.098C170.782 133.086 170.054 133.217 169.373 133.483C168.397 134.013 167.64 134.869 167.231 135.9C166.318 137.846 166.125 140.319 167.431 142.023C168.008 142.699 168.687 143.282 169.444 143.748C170.265 144.311 171.228 144.903 172.192 144.639C172.65 144.478 173.069 144.22 173.419 143.883L174.847 142.7C175.333 142.338 175.746 141.886 176.06 141.367C176.322 140.698 176.448 139.983 176.431 139.264C176.627 138.584 176.789 137.894 176.916 137.197Z" fill="#C8A59C"/>
<path d="M146.649 75.9656C145.733 73.7964 144.394 71.8312 142.709 70.1846L142.574 71.4891C139.899 70.269 137.012 69.5814 134.073 69.4647L134.33 70.3771C133.262 70.1104 132.236 69.6953 131.283 69.1439L130.362 70.7834C129.737 70.2877 129.051 69.8733 128.321 69.5502L127.129 73.8272C126.793 73.6472 126.481 73.4244 126.202 73.1642C125.887 72.9504 125.381 72.8862 125.181 73.207C125.104 73.3614 125.072 73.5343 125.088 73.706V75.5451L123.332 74.9178C123.258 74.8828 123.176 74.8647 123.093 74.8647C123.011 74.8647 122.929 74.8828 122.854 74.9178C122.796 74.9661 122.748 75.0258 122.714 75.0932C122.68 75.1607 122.659 75.2344 122.654 75.3098C121.377 81.6825 124.082 89.9726 128.285 94.9268C128.447 94.1635 128.367 93.3689 128.057 92.6528C127.707 91.7404 126.63 91.2272 126.815 90.2649C126.865 89.7783 127.092 89.3271 127.455 88.9981C127.817 88.6692 128.288 88.4856 128.778 88.4828C130.141 88.6396 129.634 89.1386 130.605 90.1081C130.948 88.2191 130.127 85.1183 130.719 83.3006C130.915 82.8223 131.221 82.3965 131.611 82.0571C132.002 81.7178 132.466 81.4743 132.967 81.3462C133.469 81.218 133.993 81.2088 134.499 81.3192C135.004 81.4295 135.477 81.6565 135.879 81.9819C135.836 80.7701 137.264 79.9931 138.477 80.0359C139.69 80.0786 141.068 80.542 142.352 80.6988C143.444 80.8271 144.565 81.5898 145.614 81.5756C148.312 81.5328 147.227 77.484 146.649 75.9656Z" fill="#606161"/>
<path opacity="0.24" d="M258.405 245.09C269.256 245.09 278.053 244.021 278.053 242.702C278.053 241.383 269.256 240.314 258.405 240.314C247.554 240.314 238.757 241.383 238.757 242.702C238.757 244.021 247.554 245.09 258.405 245.09Z" fill="#4F56F1"/>
<path opacity="0.24" d="M257.213 260.665C274.812 260.665 289.079 258.933 289.079 256.795C289.079 254.657 274.812 252.924 257.213 252.924C239.614 252.924 225.347 254.657 225.347 256.795C225.347 258.933 239.614 260.665 257.213 260.665Z" fill="#4F56F1"/>
<path d="M257.806 233.257C285.373 233.257 307.721 230.541 307.721 227.191C307.721 223.841 285.373 221.125 257.806 221.125C230.238 221.125 207.89 223.841 207.89 227.191C207.89 230.541 230.238 233.257 257.806 233.257Z" stroke="white" stroke-width="6.21" stroke-miterlimit="10"/>
<path d="M258.919 39.74C258.919 39.74 205.285 71.1969 236.795 169.303H280.515C280.515 169.303 312.974 91.2344 258.919 39.74Z" fill="#4F56F1"/>
<path d="M258.919 39.74C258.919 39.74 205.285 71.1969 236.795 169.303H280.515C280.515 169.303 312.974 91.2344 258.919 39.74Z" fill="url(#paint6_linear)"/>
<path d="M258.005 118.229C266.113 118.229 272.686 111.664 272.686 103.566C272.686 95.4682 266.113 88.9034 258.005 88.9034C249.898 88.9034 243.325 95.4682 243.325 103.566C243.325 111.664 249.898 118.229 258.005 118.229Z" fill="#4F56F1"/>
<path d="M240.463 203.768L245.858 193.952C246.813 206.001 249.775 217.806 254.623 228.881C263.337 220.22 265.521 207.147 267.205 194.986C269.679 200.955 271.889 207.021 273.835 213.184C277.79 205.349 279.08 196.441 277.511 187.808L280.865 193.51C283.157 185.238 282.168 176.402 278.103 168.839C271.175 169.353 264.234 169.693 257.277 169.859C253.947 169.944 250.602 169.987 247.243 169.987C245.038 169.987 240.977 169.125 238.964 170.244C235.096 172.382 236.509 181.599 236.752 185.384C236.952 188.514 237.365 191.627 237.986 194.701C238.279 196.148 241.013 202.77 240.463 203.768Z" fill="#4F56F1"/>
<path d="M240.463 203.768L245.858 193.952C246.813 206.001 249.775 217.806 254.623 228.881C263.337 220.22 265.521 207.147 267.205 194.986C269.679 200.955 271.889 207.021 273.835 213.184C277.79 205.349 279.08 196.441 277.511 187.808L280.865 193.51C283.157 185.238 282.168 176.402 278.103 168.839C271.175 169.353 264.234 169.693 257.277 169.859C253.947 169.944 250.602 169.987 247.243 169.987C245.038 169.987 240.977 169.125 238.964 170.244C235.096 172.382 236.509 181.599 236.752 185.384C236.952 188.514 237.365 191.627 237.986 194.701C238.279 196.148 241.013 202.77 240.463 203.768Z" fill="url(#paint7_linear)"/>
<path d="M247.885 191.443L251.168 185.455C251.755 192.803 253.564 200.001 256.521 206.755C261.831 201.472 263.165 193.496 264.193 186.083C265.706 189.728 267.055 193.429 268.24 197.188C270.651 192.408 271.438 186.973 270.481 181.706L272.522 185.199C273.932 180.142 273.328 174.737 270.838 170.115C266.613 170.429 262.38 170.638 258.141 170.743C256.1 170.79 254.059 170.814 252.018 170.814C250.676 170.814 248.199 170.286 246.972 170.971C244.61 172.289 245.466 177.899 245.616 180.237C245.742 182.153 245.994 184.058 246.372 185.94C246.551 186.795 248.214 190.837 247.885 191.443Z" fill="url(#paint8_linear)"/>
<path d="M247.957 49.7552C247.957 49.7552 259.076 53.4975 268.118 49.7552L259.14 40.0037C258.926 39.7712 258.664 39.5874 258.373 39.4648C258.082 39.3422 257.767 39.2836 257.451 39.2931C257.135 39.3026 256.824 39.3798 256.541 39.5197C256.257 39.6595 256.007 39.8586 255.807 40.1035L247.957 49.7552Z" fill="#4F56F1"/>
<path d="M247.957 49.7552C247.957 49.7552 259.076 53.4975 268.118 49.7552L259.033 39.8897C258.832 39.6718 258.587 39.4995 258.314 39.3845C258.04 39.2696 257.745 39.2147 257.449 39.2234C257.153 39.2322 256.862 39.3045 256.596 39.4355C256.329 39.5664 256.095 39.7529 255.907 39.9824L247.957 49.7552Z" fill="url(#paint9_linear)"/>
<path d="M277.025 205.044C284.505 205.757 289.272 206.919 289.272 208.187C289.272 210.44 274.285 212.265 255.729 212.265C237.173 212.265 222.185 210.44 222.185 208.187C222.185 206.327 232.491 204.752 246.558 204.267" stroke="white" stroke-width="4.17" stroke-miterlimit="10"/>
</g>
<defs>
<linearGradient id="paint0_linear" x1="228.93" y1="129.969" x2="213.373" y2="283.209" gradientUnits="userSpaceOnUse">
<stop stop-color="#010101" stop-opacity="0"/>
<stop offset="0.95" stop-color="#010101"/>
</linearGradient>
<linearGradient id="paint1_linear" x1="14494.7" y1="8958.56" x2="13155.3" y2="18742.3" gradientUnits="userSpaceOnUse">
<stop stop-color="#010101" stop-opacity="0"/>
<stop offset="0.95" stop-color="#010101"/>
</linearGradient>
<linearGradient id="paint2_linear" x1="5640.96" y1="29565" x2="152.645" y2="28077.4" gradientUnits="userSpaceOnUse">
<stop stop-color="#010101" stop-opacity="0"/>
<stop offset="0.95" stop-color="#010101"/>
</linearGradient>
<linearGradient id="paint3_linear" x1="5016.91" y1="30479.1" x2="1965.44" y2="30235.9" gradientUnits="userSpaceOnUse">
<stop stop-color="#010101" stop-opacity="0"/>
<stop offset="0.95" stop-color="#010101"/>
</linearGradient>
<linearGradient id="paint4_linear" x1="7433.17" y1="12750.5" x2="5775.19" y2="24842.2" gradientUnits="userSpaceOnUse">
<stop stop-color="#010101" stop-opacity="0"/>
<stop offset="0.95" stop-color="#010101"/>
</linearGradient>
<linearGradient id="paint5_linear" x1="7727.98" y1="6620.92" x2="7993.15" y2="12789.7" gradientUnits="userSpaceOnUse">
<stop stop-color="#010101" stop-opacity="0"/>
<stop offset="0.95" stop-color="#010101"/>
</linearGradient>
<linearGradient id="paint6_linear" x1="219.573" y1="107.116" x2="279.758" y2="103.994" gradientUnits="userSpaceOnUse">
<stop stop-color="white" stop-opacity="0"/>
<stop offset="0.95" stop-color="white"/>
</linearGradient>
<linearGradient id="paint7_linear" x1="17379.6" y1="19824.5" x2="17792.8" y2="9285.66" gradientUnits="userSpaceOnUse">
<stop stop-color="#010101" stop-opacity="0"/>
<stop offset="0.95" stop-color="#010101"/>
</linearGradient>
<linearGradient id="paint8_linear" x1="10726.2" y1="11214.6" x2="10879.4" y2="7291.98" gradientUnits="userSpaceOnUse">
<stop stop-color="#010101" stop-opacity="0"/>
<stop offset="0.95" stop-color="#010101"/>
</linearGradient>
<linearGradient id="paint9_linear" x1="7947.71" y1="1070.14" x2="7176.65" y2="848.442" gradientUnits="userSpaceOnUse">
<stop stop-color="#010101" stop-opacity="0"/>
<stop offset="0.95" stop-color="#010101"/>
</linearGradient>
<clipPath id="clip0">
<rect width="384" height="310" fill="white"/>
</clipPath>
</defs>
</svg>
