<svg width="600" height="644" viewBox="0 0 600 644" fill="none" xmlns="http://www.w3.org/2000/svg">
<g clip-path="url(#clip0)">
<path opacity="0.24" d="M259.929 31.0099C251.157 29.2138 242.29 27.9248 233.37 27.1493C190.226 23.7322 147.213 35.1794 111.475 59.589C51.6176 100.697 25.6837 176.301 10.6881 244.361C-6.23771 320.769 -4.4504 402.753 26.345 475.533C68.4541 575.068 171.6 651.619 279.375 643.343C326.292 639.769 370.957 621.199 417.731 615.908C471.458 609.831 525.434 621.413 579.393 624.845C660.761 629.965 742.232 616.595 817.696 585.738C862.128 567.526 905.721 541.824 931.691 501.431C970.529 440.966 961.593 360.93 935.962 293.745C922.361 257.999 904.613 223.932 887.705 189.616C870.797 155.3 859.608 118.552 843.88 84.1646C817.535 26.5773 744.881 -7.41735 683.862 1.32261C630.082 9.00806 583.897 44.1109 530.975 56.3719C505.845 62.1806 479.804 62.699 454.013 62.0913C410.26 61.0725 366.435 56.8902 323.843 46.8276C302.485 41.841 281.395 35.2816 259.929 31.0099Z" fill="#4F56F1"/>
<path opacity="0.24" d="M564.04 543.236C554.228 543.736 543.54 544.594 536.426 551.35C622.144 560.595 708.669 559.353 794.086 547.651C788.724 537.695 775.194 536.248 763.844 535.997C731.673 535.283 693.942 526.257 662.235 531.493C629.438 536.927 597.32 543.236 564.04 543.236Z" fill="#4F56F1"/>
<path opacity="0.24" d="M156.944 543.522C151.582 543.647 144.093 546.114 145.201 551.422C145.97 554.997 150.402 556.355 154.138 556.927C243.879 571.082 335.783 569.581 425.649 556.123C424.523 550.475 402.789 552.78 393.477 551.225C382.038 549.313 370.599 547.311 359.232 544.97C339.936 540.932 320.219 539.264 300.519 540.001L156.944 543.522Z" fill="#4F56F1"/>
<path d="M625.595 93.405H283.039C257.986 93.405 237.677 113.714 237.677 138.767V330.51C237.677 355.563 257.986 375.872 283.039 375.872H625.595C650.648 375.872 670.957 355.563 670.957 330.51V138.767C670.957 113.714 650.648 93.405 625.595 93.405Z" fill="#4F56F1"/>
<path d="M623.201 93.405H280.644C255.591 93.405 235.282 113.714 235.282 138.767V330.51C235.282 355.563 255.591 375.872 280.644 375.872H623.201C648.253 375.872 668.563 355.563 668.563 330.51V138.767C668.563 113.714 648.253 93.405 623.201 93.405Z" fill="url(#paint0_linear)"/>
<path opacity="0.24" d="M427.329 283.343C427.357 293.045 424.539 302.542 419.223 310.657C413.907 318.773 406.326 325.151 397.421 329C388.515 332.849 378.676 334.001 369.122 332.313C359.568 330.625 350.72 326.171 343.672 319.503C336.625 312.835 331.689 304.246 329.476 294.8C327.263 285.354 327.87 275.466 331.221 266.361C334.573 257.257 340.522 249.336 348.332 243.579C356.142 237.823 365.468 234.484 375.157 233.977C376.041 233.874 376.931 233.832 377.82 233.852C390.948 233.852 403.538 239.066 412.822 248.347C422.106 257.627 427.324 270.215 427.329 283.343Z" fill="#4F56F1"/>
<path opacity="0.45" d="M423.843 150.027C423.45 151.385 417.105 153.083 415.479 154.12C412.678 156.093 410.215 158.508 408.187 161.269C404.308 166.381 401.252 172.1 396.676 176.604C395.332 177.736 394.163 179.061 393.209 180.537C391.976 182.663 391.976 185.237 391.243 187.561C390.478 189.902 389.032 191.962 387.089 193.478C385.147 194.993 382.798 195.895 380.34 196.068C382.313 197.791 383.683 200.099 384.25 202.655C384.818 205.211 384.554 207.882 383.496 210.278C382.438 212.673 380.642 214.667 378.37 215.97C376.098 217.272 373.469 217.814 370.868 217.516C373.508 222.57 374.974 228.153 375.157 233.852C368.069 234.214 361.142 236.098 354.847 239.376C348.552 242.655 343.038 247.251 338.678 252.851C337.124 252.501 335.66 251.831 334.38 250.883C333.1 249.935 332.031 248.73 331.243 247.346C327.293 250.921 320.966 248.633 316.819 245.362C301.824 233.727 297.606 210.367 307.614 194.227C312.53 186.184 323.075 179.929 331.118 184.755C333.227 181.359 337.981 180.34 341.842 181.359C345.685 182.699 349.191 184.858 352.119 187.686C351.368 181.752 356.408 176.032 362.271 174.871C365.263 174.484 368.304 174.856 371.115 175.953C373.926 177.049 376.416 178.834 378.356 181.144C376.712 179.232 409.187 151.26 412.601 148.973C414.514 147.775 426.095 142.324 423.843 150.027Z" fill="#4F56F1"/>
<path opacity="0.24" d="M416.462 224.147C404.076 240.09 388.419 256.837 368.204 257.194C364.505 257.194 360.644 256.765 357.213 258.195C350.617 260.948 348.705 269.205 347.668 276.301C345.077 294.174 342.503 312.315 345.881 329.92C348.508 343.647 354.692 357.016 353.388 370.921C353.137 373.477 352.44 376.283 350.242 377.641C348.501 378.427 346.56 378.658 344.683 378.303L313.727 375.586C311.145 375.611 308.612 374.884 306.435 373.495C304.695 371.839 303.456 369.727 302.86 367.4C290.349 331.815 293.352 292.941 296.462 255.371C297.141 247.096 297.856 238.678 300.894 230.939C303.933 223.2 309.634 216.122 317.498 213.459C335.372 207.4 352.655 225.827 371.547 226.56C391.207 227.311 404.952 210.009 419.018 198.982C423.718 195.282 435.265 184.183 436.301 195.532C437.052 203.075 420.966 218.445 416.462 224.147Z" fill="#4F56F1"/>
<path opacity="0.24" d="M436.748 331.118C464.101 331.118 486.274 308.944 486.274 281.591C486.274 254.239 464.101 232.065 436.748 232.065C409.395 232.065 387.221 254.239 387.221 281.591C387.221 308.944 409.395 331.118 436.748 331.118Z" fill="#4F56F1"/>
<path d="M235.193 240.554C233.28 245.362 231.332 250.456 232.226 255.55C232.95 258.751 234.279 261.784 236.14 264.487C241.532 273.318 247.686 281.66 254.531 289.42C256.306 291.838 258.765 293.668 261.591 294.674C264.217 275.728 264.846 256.558 263.468 237.48C263.483 235.761 263.085 234.063 262.306 232.529C260.989 230.796 259.193 229.485 257.141 228.758C252.404 226.542 247.686 223.95 242.842 222.163C241.412 223.95 236.658 240.554 235.193 240.554Z" fill="#C8A59C"/>
<path d="M431.207 184.058L411.439 180.823C411.439 180.823 409.402 176.622 412.512 175.192L443.79 180.554L431.207 184.058Z" fill="#606161"/>
<path d="M370.85 219.643C373.84 220.077 376.874 220.119 379.876 219.768C381.037 219.303 414.853 192.458 427.811 185.809C433.803 182.098 440.693 180.09 447.74 180C450.993 179.786 454.889 179.893 456.676 182.663C457.196 183.635 457.432 184.733 457.36 185.832C457.287 186.931 456.908 187.988 456.265 188.883C454.963 190.657 453.228 192.066 451.225 192.976C447.092 195.126 442.558 196.398 437.91 196.712C436.697 196.703 435.491 196.883 434.335 197.248C432.844 197.988 431.56 199.087 430.6 200.447C421.008 211.803 410.969 222.747 400.483 233.28C394.889 238.892 388.562 244.683 380.68 245.577C377.844 245.822 374.988 245.635 372.208 245.023C366.777 243.969 361.52 242.165 356.587 239.661C355.514 239.197 354.565 238.486 353.817 237.588C353.031 236.322 352.674 234.836 352.798 233.352C352.907 228.416 354.691 223.664 357.856 219.875C362.003 214.942 365.541 218.481 370.85 219.643Z" fill="#C8A59C"/>
<path d="M323.682 153.298C324.011 157.401 323.855 161.528 323.218 165.595C322.413 169.741 320.09 174.138 316.068 175.21C313.673 175.836 310.867 175.21 308.919 176.837C307.454 178.034 307.043 180.054 306.059 181.68C305.106 183.036 303.836 184.139 302.359 184.892C300.883 185.646 299.245 186.028 297.588 186.006C294.274 185.921 290.998 185.275 287.9 184.093C287.09 183.904 286.336 183.524 285.702 182.985C284.882 181.928 284.486 180.602 284.594 179.268C284.225 169.08 284.082 158.88 284.165 148.669C283.998 145.721 284.461 142.772 285.523 140.018C287.395 136.765 290.266 134.202 293.709 132.708C298.576 130.198 303.814 128.484 309.223 127.632C314.21 126.828 322.503 127.292 323.414 133.727C323.458 136.079 323.351 138.431 323.093 140.769C323.182 144.897 323.522 149.08 323.682 153.298Z" fill="#C8A59C"/>
<path d="M326.703 120.322C327.495 121.521 327.998 122.888 328.172 124.315C328.346 125.742 328.186 127.189 327.704 128.544C326.697 131.257 324.966 133.643 322.699 135.443C321.354 136.415 320.151 137.57 319.125 138.874C316.962 142.109 317.999 146.435 317.338 150.295C317.338 150.599 317.159 150.974 316.837 151.028C316.515 151.082 316.283 150.813 316.069 150.563C315.469 149.87 314.664 149.388 313.77 149.185C312.877 148.983 311.942 149.073 311.103 149.44C310.264 149.808 309.564 150.435 309.107 151.228C308.65 152.022 308.459 152.942 308.562 153.852C308.812 156.175 310.903 158.088 310.814 160.429C310.628 161.756 310.057 163 309.17 164.004C308.522 165.052 307.567 165.876 306.435 166.363C305.505 166.569 304.541 166.569 303.611 166.363L284.308 164.129C283.221 164.047 282.147 163.837 281.109 163.503C279.747 162.919 278.536 162.033 277.566 160.913C276.597 159.792 275.896 158.465 275.514 157.033C274.783 154.162 274.47 151.2 274.585 148.24C274.585 142.878 274.335 137.23 272.136 132.261C271.733 131.555 271.535 130.75 271.564 129.938C271.702 129.396 271.966 128.894 272.333 128.472C275.389 124.522 280.036 121.805 282.127 117.284C282.455 116.434 282.869 115.619 283.361 114.853C284.969 112.726 288.097 112.69 290.76 112.833L302.682 113.494C305.416 113.637 307.543 112.619 310.153 112.44C312.088 112.442 314.002 112.856 315.765 113.655C319.339 115.228 324.38 117.123 326.703 120.322Z" fill="#606161"/>
<path d="M326.703 120.322C327.495 121.521 327.998 122.888 328.172 124.315C328.346 125.742 328.186 127.189 327.704 128.544C326.697 131.257 324.966 133.643 322.699 135.443C321.354 136.415 320.151 137.57 319.125 138.874C316.962 142.109 317.999 146.435 317.338 150.295C317.338 150.599 317.159 150.974 316.837 151.028C316.515 151.082 316.283 150.813 316.069 150.563C315.469 149.87 314.664 149.388 313.77 149.185C312.877 148.983 311.942 149.073 311.103 149.44C310.264 149.808 309.564 150.435 309.107 151.228C308.65 152.022 308.459 152.942 308.562 153.852C308.812 156.175 310.903 158.088 310.814 160.429C310.628 161.756 310.057 163 309.17 164.004C308.522 165.052 307.567 165.876 306.435 166.363C305.505 166.569 304.541 166.569 303.611 166.363L284.308 164.129C283.221 164.047 282.147 163.837 281.109 163.503C279.747 162.919 278.536 162.033 277.566 160.913C276.597 159.792 275.896 158.465 275.514 157.033C274.783 154.162 274.47 151.2 274.585 148.24C274.585 142.878 274.335 137.23 272.136 132.261C271.733 131.555 271.535 130.75 271.564 129.938C271.702 129.396 271.966 128.894 272.333 128.472C275.389 124.522 280.036 121.805 282.127 117.284C282.455 116.434 282.869 115.619 283.361 114.853C284.969 112.726 288.097 112.69 290.76 112.833L302.682 113.494C305.416 113.637 307.543 112.619 310.153 112.44C312.088 112.442 314.002 112.856 315.765 113.655C319.339 115.228 324.38 117.123 326.703 120.322Z" fill="url(#paint1_linear)"/>
<path d="M283.396 180.822C290.546 182.074 298.052 181.752 305.38 182.038C316.497 182.449 327.918 184.415 337.248 190.456C341.033 193.065 344.59 195.988 347.883 199.196L363.968 214.049C364.609 214.479 365.103 215.095 365.384 215.813C365.665 216.532 365.72 217.319 365.541 218.07C364.685 225.946 360.91 233.215 354.96 238.445C354.612 238.819 354.156 239.075 353.656 239.178C353.162 239.183 352.676 239.06 352.244 238.821L334.371 230.528C333.754 234.046 333.754 237.644 334.371 241.162C338.964 266.953 334.371 293.816 332.119 319.911C332.107 321.1 331.832 322.272 331.314 323.343C330.569 324.443 329.545 325.325 328.347 325.899C318.285 331.529 306.185 331.761 294.656 331.69C283.933 331.69 272.583 331.153 263.968 324.898C262.936 324.218 262.064 323.321 261.412 322.27C260.77 320.803 260.489 319.204 260.59 317.606L259.589 249.598C259.669 247.986 259.444 246.373 258.928 244.844C257.337 240.876 242.538 234.692 239.983 222.556C241.788 209.848 273.155 182.699 283.396 180.822Z" fill="#4F56F1"/>
<path d="M283.396 180.822C290.546 182.074 298.052 181.752 305.38 182.038C316.497 182.449 327.918 184.415 337.248 190.456C341.033 193.065 344.59 195.988 347.883 199.196L363.968 214.049C364.609 214.479 365.103 215.095 365.384 215.813C365.665 216.532 365.72 217.319 365.541 218.07C364.685 225.946 360.91 233.215 354.96 238.445C354.612 238.819 354.156 239.075 353.656 239.178C353.162 239.183 352.676 239.06 352.244 238.821L334.371 230.528C333.754 234.046 333.754 237.644 334.371 241.162C338.964 266.953 334.371 293.816 332.119 319.911C332.107 321.1 331.832 322.272 331.314 323.343C330.569 324.443 329.545 325.325 328.347 325.899C318.285 331.529 306.185 331.761 294.656 331.69C283.933 331.69 272.583 331.153 263.968 324.898C262.936 324.218 262.064 323.321 261.412 322.27C260.77 320.803 260.489 319.204 260.59 317.606L259.589 249.598C259.669 247.986 259.444 246.373 258.928 244.844C257.337 240.876 242.538 234.692 239.983 222.556C241.788 209.848 273.155 182.699 283.396 180.822Z" fill="url(#paint2_linear)"/>
<path d="M331.261 323.271C331.261 323.271 346.006 401.913 346.006 412.44C346.006 422.968 326.846 524.112 326.846 524.112C326.846 524.112 310.063 525.077 305.756 519.322L313.906 422.539L300.286 380.966L293.262 435.443L248.687 521.717L226.667 508.33L269.902 415.39C269.902 415.39 248.222 369.581 261.448 322.27L331.261 323.271Z" fill="#606161"/>
<path d="M331.261 323.271C331.261 323.271 346.006 401.913 346.006 412.44C346.006 422.968 326.846 524.112 326.846 524.112C326.846 524.112 310.063 525.077 305.756 519.322L313.906 422.539L300.286 380.966L293.262 435.443L248.687 521.717L226.667 508.33L269.902 415.39C269.902 415.39 248.222 369.581 261.448 322.27L331.261 323.271Z" fill="url(#paint3_linear)"/>
<path d="M306.042 551.458C306.019 551.72 306.062 551.984 306.167 552.226C306.366 552.529 306.673 552.746 307.025 552.834C310.224 553.852 313.57 554.329 316.926 554.246C327.757 554.532 338.601 554.776 349.455 554.979C349.455 549.796 344.987 545.595 340.179 543.665C335.371 541.735 330.099 541.413 325.094 540.09C324.07 539.923 323.135 539.405 322.449 538.625C322.034 537.865 321.836 537.005 321.877 536.14L321.484 525.899C321.537 525.281 321.464 524.658 321.271 524.069C321.077 523.479 320.767 522.934 320.358 522.468C319.886 522.124 319.352 521.876 318.785 521.735C316.801 521.145 311.725 519.018 309.849 520.287C307.972 521.556 307.972 526.757 307.686 528.902C306.637 536.376 306.088 543.911 306.042 551.458Z" fill="#606161"/>
<path d="M219.035 531.35C218.858 531.568 218.727 531.819 218.651 532.089C218.575 532.358 218.554 532.641 218.591 532.919C218.628 533.197 218.721 533.464 218.865 533.705C219.009 533.945 219.201 534.154 219.428 534.317L235.139 552.19C235.545 552.728 236.056 553.178 236.64 553.513C237.33 553.801 238.073 553.941 238.821 553.924C245.327 554.192 251.868 554.174 258.374 553.924C257.954 551.793 257.059 549.783 255.757 548.044C254.454 546.305 252.777 544.882 250.849 543.879C248.401 542.628 245.487 542.092 243.414 540.305C241.575 538.6 240.14 536.505 239.214 534.174C238.376 532.999 237.951 531.579 238.006 530.137C238.061 528.694 238.592 527.311 239.518 526.203L242.753 520.841C243.223 520.265 243.55 519.585 243.705 518.858C243.86 518.13 243.84 517.377 243.647 516.659C243.181 515.876 242.489 515.253 241.663 514.871C239.411 513.549 236.301 510.85 233.727 510.367C231.153 509.885 230.152 512.298 228.83 514.46C225.666 519.947 221.645 525.506 219.035 531.35Z" fill="#606161"/>
<path opacity="0.24" d="M627.347 154.585H507.99C505.611 154.585 503.683 156.513 503.683 158.892V158.91C503.683 161.289 505.611 163.217 507.99 163.217H627.347C629.726 163.217 631.654 161.289 631.654 158.91V158.892C631.654 156.513 629.726 154.585 627.347 154.585Z" fill="#4F56F1"/>
<path opacity="0.24" d="M625.917 169.437H506.56C504.181 169.437 502.253 171.366 502.253 173.745V173.763C502.253 176.142 504.181 178.07 506.56 178.07H625.917C628.296 178.07 630.225 176.142 630.225 173.763V173.745C630.225 171.366 628.296 169.437 625.917 169.437Z" fill="#4F56F1"/>
<path opacity="0.24" d="M624.469 184.308H505.113C502.734 184.308 500.805 186.236 500.805 188.615V188.633C500.805 191.012 502.734 192.94 505.113 192.94H624.469C626.848 192.94 628.777 191.012 628.777 188.633V188.615C628.777 186.236 626.848 184.308 624.469 184.308Z" fill="#4F56F1"/>
<path opacity="0.24" d="M623.04 199.16H503.683C501.304 199.16 499.375 201.089 499.375 203.468V203.486C499.375 205.865 501.304 207.793 503.683 207.793H623.04C625.419 207.793 627.347 205.865 627.347 203.486V203.468C627.347 201.089 625.419 199.16 623.04 199.16Z" fill="#4F56F1"/>
<path opacity="0.24" d="M630.224 223.128H497.463V340.072H630.224V223.128Z" fill="#4F56F1"/>
<path opacity="0.24" d="M510.564 262.753L537.392 307.471L580.859 253.155L599.393 279.357L625.595 236.551V333.674H502.253V281.287L510.564 262.753Z" fill="#4F56F1"/>
<path opacity="0.24" d="M635.372 241.198C629.242 235.407 619.805 234.138 611.654 236.265C603.504 238.392 596.427 243.504 590.207 249.169C586.358 252.383 583.151 256.295 580.752 260.698C577.839 266.596 577.499 273.423 577.463 280.001C577.41 294.553 578.606 309.084 581.038 323.432C581.154 324.8 581.615 326.116 582.378 327.257C584.666 330.099 589.134 328.776 592.763 329.17C597.159 329.652 600.752 333.03 602.986 336.855C604.954 340.813 606.673 344.89 608.133 349.062C611.428 356.731 616.687 363.395 623.379 368.383C628.205 371.958 635.301 374.514 639.948 370.671C641.517 369.167 642.738 367.336 643.522 365.309C665.685 316.962 647.454 258.767 663.415 208.025C664.416 204.844 671.708 189.938 666.99 187.704C663.415 186.095 657.964 195.335 656.427 197.409C651.705 203.544 647.519 210.074 643.916 216.926C642.45 219.625 632.924 238.892 635.372 241.198Z" fill="#4F56F1"/>
<path d="M476.212 127.757C472.744 133.477 464.702 140.268 454.353 145.738C438.357 154.174 422.896 156.229 419.768 150.295C419.383 149.41 419.201 148.45 419.235 147.485C419.269 146.52 419.518 145.575 419.965 144.719C421.395 141.144 425.005 136.89 430.188 132.726C434.192 129.52 438.502 126.718 443.057 124.361C452.995 119.107 462.718 116.318 469.402 116.39L476.212 127.757Z" fill="url(#paint4_linear)"/>
<path opacity="0.24" d="M430.188 132.726C425.005 136.89 421.395 141.108 419.965 144.719C416.158 140.215 405.667 136.819 405.667 136.819C414.317 130.545 426.918 132.19 430.188 132.726Z" fill="#4F56F1"/>
<path opacity="0.24" d="M426.006 170.528C426.006 170.528 440.019 163.378 442.557 150.778C442.557 150.778 430.653 155.532 425.005 153.352C425.005 153.352 428.759 158.731 426.006 170.528Z" fill="#4F56F1"/>
<path opacity="0.24" d="M476.283 127.632L469.474 116.265C469.474 116.265 480.644 114.477 482.146 116.479C483.647 118.481 477.034 126.738 476.283 127.632Z" fill="#4F56F1"/>
<path opacity="0.24" d="M441.145 143.253C443.928 143.253 446.185 140.997 446.185 138.213C446.185 135.429 443.928 133.173 441.145 133.173C438.361 133.173 436.104 135.429 436.104 138.213C436.104 140.997 438.361 143.253 441.145 143.253Z" fill="#4F56F1"/>
<path opacity="0.24" d="M451.636 136.247C453.828 136.247 455.604 134.47 455.604 132.279C455.604 130.088 453.828 128.311 451.636 128.311C449.445 128.311 447.668 130.088 447.668 132.279C447.668 134.47 449.445 136.247 451.636 136.247Z" fill="#4F56F1"/>
<path opacity="0.24" d="M461.592 131.207C463.783 131.207 465.559 129.43 465.559 127.239C465.559 125.047 463.783 123.271 461.592 123.271C459.4 123.271 457.624 125.047 457.624 127.239C457.624 129.43 459.4 131.207 461.592 131.207Z" fill="#4F56F1"/>
<path d="M258.875 244.773V213.209C258.875 213.209 244.076 220.251 241.52 226.631C241.52 226.631 255.443 243.092 258.875 244.773Z" fill="url(#paint5_linear)"/>
<path d="M649.402 310.885L587.293 319.715L567.454 233.227L629.563 224.397L649.402 310.885Z" fill="white"/>
<path d="M148.597 436.837C150.121 420.449 148.215 403.923 143.003 388.312C139.982 379.375 135.854 370.689 133.191 361.502C130.527 352.315 129.294 342.521 132.172 333.477C135.049 324.433 137.123 316.73 141.859 308.544C147.078 299.607 152.386 290.438 159.875 283.253C152.605 294.18 147.587 306.447 145.113 319.336C142.64 332.226 142.761 345.479 145.469 358.321C146.989 365.291 149.259 372.083 150.992 379.018C155.014 395.103 156.14 411.779 156.354 428.365C156.354 431.547 156.354 434.978 154.424 437.552C152.494 440.126 150.51 439.465 148.597 436.837Z" fill="#4F56F1"/>
<path d="M131.546 291.707C131.546 291.707 160.697 318.392 159.089 355.336C157.48 392.28 153.244 435.765 154.317 437.552C155.389 439.34 172.637 439.447 172.637 439.447C170.815 411.711 170.404 383.9 171.403 356.122C173.012 309.777 131.546 291.707 131.546 291.707Z" fill="#4F56F1"/>
<path d="M131.546 291.707C131.546 291.707 160.697 318.392 159.089 355.336C157.48 392.28 153.244 435.765 154.317 437.552C155.389 439.34 172.637 439.447 172.637 439.447C170.815 411.711 170.404 383.9 171.403 356.122C173.012 309.777 131.546 291.707 131.546 291.707Z" fill="url(#paint6_linear)"/>
<path d="M219.947 294.871C219.947 294.871 185.452 321.681 177.516 365.738C169.58 409.795 165.487 439.625 165.487 439.625L185.148 438.803C185.148 438.803 185.416 367.65 200.751 335.354C216.086 303.057 219.947 294.871 219.947 294.871Z" fill="#4F56F1"/>
<path d="M219.947 294.871C219.947 294.871 185.452 321.681 177.516 365.738C169.58 409.795 165.487 439.625 165.487 439.625L185.148 438.803C185.148 438.803 185.416 367.65 200.751 335.354C216.086 303.057 219.947 294.871 219.947 294.871Z" fill="url(#paint7_linear)"/>
<path d="M181.895 268.83C181.895 268.83 194.406 315.086 186.56 338.07C178.714 361.055 175.836 440.269 175.836 440.269L165.434 439.59C165.434 439.59 166.381 355.711 170.081 343.397C173.781 331.082 185.041 300.608 181.895 268.83Z" fill="#4F56F1"/>
<path d="M181.895 268.83C181.895 268.83 194.406 315.086 186.56 338.07C178.714 361.055 175.836 440.269 175.836 440.269L165.434 439.59C165.434 439.59 166.381 355.711 170.081 343.397C173.781 331.082 185.041 300.608 181.895 268.83Z" fill="url(#paint8_linear)"/>
<path d="M98.1593 335.086C98.1593 335.086 148.204 327.15 161.108 360.805C174.013 394.46 161.108 439.286 161.108 439.286L154.281 437.588C154.281 437.588 160.697 366.417 122.109 346.721L98.1593 335.086Z" fill="#4F56F1"/>
<path d="M98.1593 335.086C98.1593 335.086 148.204 327.15 161.108 360.805C174.013 394.46 161.108 439.286 161.108 439.286L154.281 437.588C154.281 437.588 160.697 366.417 122.109 346.721L98.1593 335.086Z" fill="url(#paint9_linear)"/>
<path d="M148.597 436.837C150.121 420.449 148.215 403.923 143.003 388.312C139.982 379.375 135.854 370.689 133.191 361.502C130.527 352.315 129.294 342.521 132.172 333.477C135.049 324.433 137.123 316.73 141.859 308.544C147.078 299.607 152.386 290.438 159.875 283.253C152.605 294.18 147.587 306.447 145.113 319.336C142.64 332.226 142.761 345.479 145.469 358.321C146.989 365.291 149.259 372.083 150.992 379.018C155.014 395.103 156.14 411.779 156.354 428.365C156.354 431.547 156.354 434.978 154.424 437.552C152.494 440.126 150.51 439.465 148.597 436.837Z" fill="url(#paint10_linear)"/>
<path d="M136.193 433.87H201.877L188.74 535.676H148.24L136.193 433.87Z" fill="#4F56F1"/>
<path d="M136.193 433.87H201.877L188.74 535.676H148.24L136.193 433.87Z" fill="url(#paint11_linear)"/>
</g>
<defs>
<linearGradient id="paint0_linear" x1="411.922" y1="-192.762" x2="460.501" y2="326.149" gradientUnits="userSpaceOnUse">
<stop stop-color="white" stop-opacity="0"/>
<stop offset="0.95" stop-color="white"/>
</linearGradient>
<linearGradient id="paint1_linear" x1="271.529" y1="139.553" x2="328.222" y2="139.553" gradientUnits="userSpaceOnUse">
<stop stop-color="#010101" stop-opacity="0"/>
<stop offset="0.95" stop-color="#010101"/>
</linearGradient>
<linearGradient id="paint2_linear" x1="23515" y1="31392.5" x2="6802.6" y2="41572" gradientUnits="userSpaceOnUse">
<stop stop-color="#010101" stop-opacity="0"/>
<stop offset="0.95" stop-color="#010101"/>
</linearGradient>
<linearGradient id="paint3_linear" x1="20896.2" y1="70927.5" x2="20896.2" y2="40173.7" gradientUnits="userSpaceOnUse">
<stop stop-color="#010101" stop-opacity="0"/>
<stop offset="0.95" stop-color="#010101"/>
</linearGradient>
<linearGradient id="paint4_linear" x1="15287.9" y1="4466.26" x2="15359.3" y2="5630.94" gradientUnits="userSpaceOnUse">
<stop stop-color="white" stop-opacity="0"/>
<stop offset="0.95" stop-color="white"/>
</linearGradient>
<linearGradient id="paint5_linear" x1="2896.99" y1="6170.59" x2="2886.65" y2="7891.41" gradientUnits="userSpaceOnUse">
<stop stop-color="#010101" stop-opacity="0"/>
<stop offset="0.95" stop-color="#010101"/>
</linearGradient>
<linearGradient id="paint6_linear" x1="4520.41" y1="37683.1" x2="2337.57" y2="38937.6" gradientUnits="userSpaceOnUse">
<stop stop-color="#010101" stop-opacity="0"/>
<stop offset="0.95" stop-color="#010101"/>
</linearGradient>
<linearGradient id="paint7_linear" x1="6921.18" y1="39736.1" x2="4343.02" y2="40010" gradientUnits="userSpaceOnUse">
<stop stop-color="#010101" stop-opacity="0"/>
<stop offset="0.95" stop-color="#010101"/>
</linearGradient>
<linearGradient id="paint8_linear" x1="2926.94" y1="42715.4" x2="-4850.42" y2="48253.8" gradientUnits="userSpaceOnUse">
<stop stop-color="#010101" stop-opacity="0"/>
<stop offset="0.95" stop-color="#010101"/>
</linearGradient>
<linearGradient id="paint9_linear" x1="6327.15" y1="29190.4" x2="8753.98" y2="33344.7" gradientUnits="userSpaceOnUse">
<stop stop-color="#010101" stop-opacity="0"/>
<stop offset="0.95" stop-color="#010101"/>
</linearGradient>
<linearGradient id="paint10_linear" x1="3034.89" y1="42260" x2="2120.85" y2="42322.6" gradientUnits="userSpaceOnUse">
<stop stop-color="#010101" stop-opacity="0"/>
<stop offset="0.95" stop-color="#010101"/>
</linearGradient>
<linearGradient id="paint11_linear" x1="6393.89" y1="24342.9" x2="3266.87" y2="47320.2" gradientUnits="userSpaceOnUse">
<stop stop-color="#010101" stop-opacity="0"/>
<stop offset="0.95" stop-color="#010101"/>
</linearGradient>
<clipPath id="clip0">
<rect width="958" height="643.951" fill="white"/>
</clipPath>
</defs>
</svg>
