<svg width="100%" height="120" viewBox="0 0 120 120" fill="none" xmlns="http://www.w3.org/2000/svg">
<path d="M64.686 53.1479L59.922 57.9419L61.65 60.6119L67.818 59.0819L64.686 53.1479Z" fill="#EBB698"/>
<path d="M54.6 83.55C54.6 83.55 43.5 95.19 39.882 92.628C36.264 90.066 33.6 62.514 33.84 59.196C34.08 55.878 29.4 56.736 28.878 54.12C28.356 51.504 27.282 50.418 28.626 49.272C28.626 49.272 26.964 47.046 29.4 46.668C29.4 46.668 27 43.788 29.802 43.518C29.802 43.518 28.188 40.422 30.48 40.716C32.772 41.01 35.52 42.432 37.152 43.458C38.772 44.106 37.614 44.556 39.6 46.698C40.734 47.898 40.422 55.032 40.656 57.09C40.89 59.148 41.316 71.25 45.234 76.89C45.234 76.89 53.094 65.586 54.72 64.164C56.346 62.742 54.6 83.55 54.6 83.55Z" fill="#E6B295"/>
<path d="M54.72 64.2C53.094 65.622 45.234 76.926 45.234 76.926C42.516 73.008 41.484 66 41.034 61.374C37.26 61.854 35.16 63.504 34.434 64.218C34.326 64.332 34.212 64.446 34.11 64.56C34.848 73.644 37.074 90.666 39.882 92.646C43.482 95.208 54.6 83.568 54.6 83.568C54.6 83.568 56.352 62.76 54.72 64.2Z" fill="#696EFF"/>
<path d="M61.896 59.1961C61.896 59.1961 64.986 58.5961 64.614 55.6561C64.242 52.7161 61.014 44.8561 56.922 44.1121C55.254 43.8121 49.026 44.9821 50.922 40.9561C51.0977 40.6186 51.1708 40.2372 51.1325 39.8588C51.0941 39.4803 50.9459 39.1213 50.706 38.8261C50.6453 38.7354 50.6055 38.6324 50.5894 38.5245C50.5733 38.4166 50.5813 38.3065 50.6128 38.202C50.6444 38.0976 50.6987 38.0015 50.7719 37.9205C50.8451 37.8396 50.9353 37.7759 51.036 37.7341L52.836 36.9841C53.0186 36.9089 53.1843 36.7979 53.3234 36.6578C53.4625 36.5177 53.5722 36.3512 53.646 36.1681C53.7217 35.9835 53.7598 35.7857 53.7582 35.5862C53.7565 35.3868 53.7151 35.1896 53.6363 35.0064C53.5575 34.8231 53.443 34.6574 53.2994 34.519C53.1558 34.3805 52.986 34.2721 52.8 34.2001L51.138 33.5641C51.0357 33.525 50.9435 33.4633 50.8684 33.3836C50.7933 33.3039 50.7372 33.2083 50.7043 33.1038C50.6714 32.9993 50.6625 32.8888 50.6784 32.7804C50.6943 32.672 50.7345 32.5687 50.796 32.4781L51.06 32.0821C51.06 32.0821 47.316 29.4361 48.234 28.2001C49.152 26.9641 51.918 27.3541 54.234 23.2561C56.55 19.1581 56.928 16.7281 60.6 15.5041C64.272 14.2801 74.202 28.6201 74.202 28.6201L78.534 47.0161L77.676 53.6881C77.676 53.6881 66.192 61.5961 61.896 59.1961Z" fill="#EBB698"/>
<path d="M47.244 35.1239C47.484 31.3859 46.326 29.8139 39.876 29.8199C19.104 29.8199 14.754 23.9099 14.754 23.9099C12.8975 30.644 12.6489 37.7201 14.028 44.5679C18.414 41.5679 24.294 40.4819 29.67 40.1219C29.67 40.7999 30.534 40.6379 31.176 40.8539C31.5295 40.9617 31.8728 41.1002 32.202 41.2679C31.002 49.1639 30.036 51.9779 29.61 53.0999C29.5069 53.354 29.4833 53.6333 29.5422 53.9011C29.6011 54.1689 29.7398 54.4126 29.94 54.5999C30.7587 55.1963 31.7138 55.5779 32.718 55.7099C32.9128 55.7473 33.1143 55.7242 33.2955 55.6438C33.4768 55.5633 33.6291 55.4294 33.732 55.2599C35.862 51.7499 37.38 43.3919 37.932 39.9839C38.91 39.9839 39.804 39.9839 40.572 39.9839C46.458 39.8759 47.004 38.8619 47.244 35.1239Z" fill="#E6E6E6"/>
<path d="M29.802 43.518C29.802 43.518 32.4 46.8 32.862 44.262C32.862 44.262 36.462 45.138 36.306 48.06C36.198 50.238 37.302 43.518 37.302 43.518C35.3672 42.4182 33.3219 41.5253 31.2 40.854L29.802 43.518Z" fill="#E6B295"/>
<path d="M31.2 44.8621C31.2 44.8621 33.708 47.2621 34.002 47.7601C34.296 48.2581 34.812 49.5601 33.234 49.0801C31.656 48.6001 29.4 46.6801 29.4 46.6801L31.2 44.8621Z" fill="#E6B295"/>
<path d="M30.516 47.3999C30.516 47.3999 33.318 49.9919 33.924 50.5319C34.53 51.0719 34.65 52.6979 33.36 52.2419C31.656 51.6419 30.744 51.3479 28.626 49.2419" fill="#E6B295"/>
<path d="M28.938 52.2001C28.938 52.2001 30.93 53.2201 31.758 53.5861C32.586 53.9521 34.104 53.0701 32.4 52.2001C31.4026 51.6336 30.4675 50.9639 29.61 50.2021L28.938 52.2001Z" fill="#E6B295"/>
<path d="M32.466 43.7158C32.466 43.7158 32.292 45.5158 35.604 46.1698C38.916 46.8238 32.466 43.7158 32.466 43.7158Z" fill="#E6B295"/>
<path d="M15.564 24.642C16.05 23.724 15.354 22.602 14.532 23.316C13.116 24.552 11.1 37.002 13.332 45.21C13.56 46.17 15.372 45.894 14.634 44.184C13.896 42.474 13.044 29.4 15.564 24.642Z" fill="#43454B"/>
<path d="M40.086 39.966H40.8L41.046 29.844H40.446L40.086 39.966Z" fill="#43454B"/>
<path d="M96.414 103.2C95.658 94.356 94.278 78.06 93.726 70.59C92.94 60.066 78.294 77.28 78.294 77.28L87.792 106.2C90.7542 105.474 93.641 104.47 96.414 103.2Z" fill="#696EFF"/>
<path d="M80.142 82.1999C79.7621 81.0325 79.8212 79.7666 80.3084 78.6398C80.7956 77.513 81.6773 76.6027 82.788 76.0799C87.306 74.0039 94.11 75.0179 94.11 75.0179C94.986 57.4139 78.66 49.9739 78.66 49.9739C71.154 56.5739 62.298 58.9739 61.404 58.1159C60.51 57.2579 64.404 54.6239 64.404 54.6239C64.2017 53.8091 63.9492 53.0076 63.648 52.2239C57.318 56.0939 54.894 62.7359 53.448 65.3699C52.65 66.6899 55.5 66.9419 55.248 67.4399C51.264 80.1899 54.846 96.4499 56.934 103.146C60.404 104.636 63.9951 105.826 67.668 106.704C73.4531 107.847 79.4028 107.88 85.2 106.8L87.78 106.23L80.142 82.1999Z" fill="#5156F2"/>
<path d="M60.144 14.8379C60.144 14.8379 55.386 23.1839 67.266 27.8099C72.666 29.8259 70.488 40.6919 71.76 43.7159C73.62 48.1439 76.074 48.5939 79.668 51.6779C85.7196 56.8567 90.3462 63.4971 93.108 70.9679C93.762 72.7679 94.17 74.2199 94.11 75.0299C94.11 75.0299 95.91 62.2499 89.598 54.1319C79.314 40.9319 88.398 28.9319 82.884 20.3519C79.266 14.7179 72.528 9.05993 60.144 14.8379Z" fill="#442B27"/>
</svg>
