<svg width="23" height="23" viewBox="0 0 23 23" fill="none" xmlns="http://www.w3.org/2000/svg">
    <path d="M11.5001 5.75C9.42144 5.75 7.72998 7.44146 7.72998 9.52008H9.64665C9.64665 8.49754 10.4785 7.66667 11.5001 7.66667C12.5216 7.66667 13.3535 8.49754 13.3535 9.52008C13.3535 10.0932 12.8925 10.5091 12.1881 11.0783C11.9438 11.2767 11.7128 11.4655 11.5259 11.6524C10.5695 12.6078 10.5417 13.6227 10.5417 13.7358V14.375H12.4584L12.4574 13.7684C12.4584 13.753 12.4891 13.3985 12.8801 13.0084C13.0238 12.8647 13.2049 12.7209 13.3928 12.5695C14.1393 11.9648 15.2692 11.0515 15.2692 9.52008C15.2701 7.44146 13.5787 5.75 11.5001 5.75ZM10.5417 15.3333H12.4584V17.25H10.5417V15.3333Z" fill="currentColor"/>
    <path d="M11.5001 1.91699C6.21583 1.91699 1.91675 6.21608 1.91675 11.5003C1.91675 16.7846 6.21583 21.0837 11.5001 21.0837C16.7843 21.0837 21.0834 16.7846 21.0834 11.5003C21.0834 6.21608 16.7843 1.91699 11.5001 1.91699ZM11.5001 19.167C7.27287 19.167 3.83341 15.7275 3.83341 11.5003C3.83341 7.27312 7.27287 3.83366 11.5001 3.83366C15.7273 3.83366 19.1667 7.27312 19.1667 11.5003C19.1667 15.7275 15.7273 19.167 11.5001 19.167Z" fill="currentColor"/>
</svg>
