<svg width="20" height="20" viewBox="0 0 20 20" fill="none" xmlns="http://www.w3.org/2000/svg">
    <path d="M15.8333 3.33366H13.3333V1.66699H11.6667V3.33366H8.33333V1.66699H6.66667V3.33366H4.16667C3.2475 3.33366 2.5 4.08116 2.5 5.00033V16.667C2.5 17.5862 3.2475 18.3337 4.16667 18.3337H15.8333C16.7525 18.3337 17.5 17.5862 17.5 16.667V5.00033C17.5 4.08116 16.7525 3.33366 15.8333 3.33366ZM4.16667 16.667V5.83366H6.66667H8.33333H11.6667H13.3333H15.8333V5.00033L15.835 16.667H4.16667Z" fill="currentColor"/>
    <path d="M5.83325 7.5H14.1666V9.16667H5.83325V7.5ZM5.83325 10.8333H9.99992V12.5H5.83325V10.8333Z" fill="currentColor"/>
</svg>
