<svg width="20" height="20" viewBox="0 0 20 20" fill="none" xmlns="http://www.w3.org/2000/svg">
    <path d="M8.33317 15.0003C9.8715 15.0003 11.2857 14.4712 12.414 13.5937L16.0773 17.257L17.2557 16.0787L13.5923 12.4153C14.4707 11.2862 14.9998 9.87199 14.9998 8.33366C14.9998 4.65783 12.009 1.66699 8.33317 1.66699C4.65734 1.66699 1.6665 4.65783 1.6665 8.33366C1.6665 12.0095 4.65734 15.0003 8.33317 15.0003ZM8.33317 3.33366C11.0907 3.33366 13.3332 5.57616 13.3332 8.33366C13.3332 11.0912 11.0907 13.3337 8.33317 13.3337C5.57567 13.3337 3.33317 11.0912 3.33317 8.33366C3.33317 5.57616 5.57567 3.33366 8.33317 3.33366Z" fill="currentColor"/>
</svg>
