<svg width="23" height="23" viewBox="0 0 23 23" fill="none" xmlns="http://www.w3.org/2000/svg">
    <path fill-rule="evenodd" clip-rule="evenodd" d="M19.1667 3.83317H3.83337C3.3041 3.83317 2.87504 4.26224 2.87504 4.7915V18.2082C2.87504 18.7375 3.30411 19.1665 3.83337 19.1665H19.1667C19.696 19.1665 20.125 18.7375 20.125 18.2082V4.7915C20.125 4.26223 19.696 3.83317 19.1667 3.83317ZM3.83337 1.9165C2.24556 1.9165 0.958374 3.20369 0.958374 4.7915V18.2082C0.958374 19.796 2.24556 21.0832 3.83337 21.0832H19.1667C20.7546 21.0832 22.0417 19.796 22.0417 18.2082V4.7915C22.0417 3.20369 20.7546 1.9165 19.1667 1.9165H3.83337ZM5.75004 6.70817H7.66671V8.62484H5.75004V6.70817ZM10.5417 6.70817C10.0124 6.70817 9.58337 7.13724 9.58337 7.6665C9.58337 8.19577 10.0124 8.62484 10.5417 8.62484H16.2917C16.821 8.62484 17.25 8.19577 17.25 7.6665C17.25 7.13724 16.821 6.70817 16.2917 6.70817H10.5417ZM7.66671 10.5415H5.75004V12.4582H7.66671V10.5415ZM9.58337 11.4998C9.58337 10.9706 10.0124 10.5415 10.5417 10.5415H16.2917C16.821 10.5415 17.25 10.9706 17.25 11.4998C17.25 12.0291 16.821 12.4582 16.2917 12.4582H10.5417C10.0124 12.4582 9.58337 12.0291 9.58337 11.4998ZM7.66671 14.3748H5.75004V16.2915H7.66671V14.3748ZM9.58337 15.3332C9.58337 14.8039 10.0124 14.3748 10.5417 14.3748H16.2917C16.821 14.3748 17.25 14.8039 17.25 15.3332C17.25 15.8625 16.821 16.2915 16.2917 16.2915H10.5417C10.0124 16.2915 9.58337 15.8625 9.58337 15.3332Z" fill="currentColor"/>
</svg>
