<svg width="20" height="20" viewBox="0 0 20 20" fill="none" xmlns="http://www.w3.org/2000/svg">
<path d="M18.2241 6.97969L18.2253 6.97978C18.3047 6.98596 18.3771 7.03994 18.4052 7.12104C18.4316 7.20077 18.4087 7.28751 18.3467 7.34354C18.3466 7.34359 18.3466 7.34364 18.3465 7.34368L14.0003 11.2549L13.6522 11.5682L13.7808 12.0185L15.5336 18.1518L15.5337 18.152C15.5571 18.2339 15.5268 18.3246 15.4567 18.3765C15.3843 18.4285 15.2887 18.4294 15.217 18.3816L9.99887 14.9029L9.58285 14.6255L9.16682 14.9029L3.9487 18.3816C3.91384 18.4049 3.87331 18.4167 3.83285 18.4167C3.7942 18.4167 3.75274 18.4054 3.71294 18.3784C3.64318 18.3295 3.61036 18.2433 3.62929 18.1612L5.05715 11.9783L5.15212 11.5671L4.84992 11.2725L0.812528 7.33669C0.812505 7.33667 0.812482 7.33665 0.81246 7.33662C0.75475 7.2803 0.734364 7.19426 0.76258 7.11598C0.790063 7.03973 0.860012 6.98615 0.941414 6.9797L0.941544 6.97969L6.405 6.54556L6.84672 6.51046L7.02911 6.10664L9.39332 0.872221L9.39382 0.871115C9.42647 0.798511 9.50004 0.75 9.58285 0.75C9.66533 0.75 9.73872 0.798145 9.77155 0.871362L9.7724 0.873226L12.1366 6.10668L12.319 6.51046L12.7607 6.54556L18.2241 6.97969Z" fill="white" stroke="currentColor" stroke-width="1.5"/>
</svg>
