<svg width="23" height="23" viewBox="0 0 23 23" fill="none" xmlns="http://www.w3.org/2000/svg">
    <path d="M15.3334 8.625H7.66671C7.13743 8.625 6.70837 9.05406 6.70837 9.58333V17.25C6.70837 17.7793 7.13743 18.2083 7.66671 18.2083H15.3334C15.8626 18.2083 16.2917 17.7793 16.2917 17.25V9.58333C16.2917 9.05406 15.8626 8.625 15.3334 8.625Z" fill="currentColor"/>
    <path fill-rule="evenodd" clip-rule="evenodd" d="M18.5 2.90909H4.5C3.85567 2.90909 3.33333 3.33646 3.33333 3.86364V19.1364C3.33333 19.6636 3.85567 20.0909 4.5 20.0909H18.5C19.1444 20.0909 19.6667 19.6636 19.6667 19.1364V3.86364C19.6667 3.33646 19.1444 2.90909 18.5 2.90909ZM4.5 1C2.56701 1 1 2.2821 1 3.86364V19.1364C1 20.7179 2.56701 22 4.5 22H18.5C20.4331 22 22 20.7179 22 19.1364V3.86364C22 2.2821 20.4331 1 18.5 1H4.5Z" fill="currentColor"/>
    <path d="M6.70837 5.74984C6.70837 5.22057 7.13744 4.7915 7.66671 4.7915H11.5C12.0293 4.7915 12.4584 5.22057 12.4584 5.74984C12.4584 6.27911 12.0293 6.70817 11.5 6.70817H7.66671C7.13744 6.70817 6.70837 6.27911 6.70837 5.74984Z" fill="currentColor"/>
</svg>
