<svg width="20" height="20" viewBox="0 0 20 20" fill="none" xmlns="http://www.w3.org/2000/svg">
    <path d="M15.8333 11.322V8.33366C15.8333 5.65283 14.0125 3.39449 11.5458 2.71533C11.3017 2.10033 10.705 1.66699 10 1.66699C9.295 1.66699 8.69833 2.10033 8.45417 2.71533C5.9875 3.39533 4.16667 5.65283 4.16667 8.33366V11.322L2.74417 12.7445C2.5875 12.9003 2.5 13.112 2.5 13.3337V15.0003C2.5 15.4612 2.8725 15.8337 3.33333 15.8337H16.6667C17.1275 15.8337 17.5 15.4612 17.5 15.0003V13.3337C17.5 13.112 17.4125 12.9003 17.2558 12.7445L15.8333 11.322ZM15.8333 14.167H4.16667V13.6787L5.58917 12.2562C5.74583 12.1003 5.83333 11.8887 5.83333 11.667V8.33366C5.83333 6.03616 7.7025 4.16699 10 4.16699C12.2975 4.16699 14.1667 6.03616 14.1667 8.33366V11.667C14.1667 11.8887 14.2542 12.1003 14.4108 12.2562L15.8333 13.6787V14.167ZM10 18.3337C11.0925 18.3337 12.0058 17.6387 12.3483 16.667H7.65167C7.99417 17.6387 8.9075 18.3337 10 18.3337Z" fill="currentColor"/>
</svg>
