<svg width="32" height="32" viewBox="0 0 32 32" fill="none" xmlns="http://www.w3.org/2000/svg">
<path d="M6.20755 14.4177L2.13482 10.345C1.45173 9.69429 0.976068 8.85632 0.767545 7.93625C0.58379 7.04135 0.66052 6.11252 0.988636 5.2599C1.37288 4.27727 1.96882 3.39132 2.73409 2.66499C3.46235 1.89931 4.35028 1.30338 5.33482 0.919541C6.18595 0.593211 7.11296 0.518485 8.00536 0.704269C8.92929 0.923139 9.76754 1.41111 10.4141 2.10645L14.4868 6.17917C14.1458 6.52063 13.7409 6.79151 13.2951 6.97634C12.8494 7.16116 12.3716 7.25629 11.889 7.25629C11.4064 7.25629 10.9286 7.16116 10.4829 6.97634C10.0371 6.79151 9.63216 6.52063 9.29118 6.17917L8.04027 4.92826C7.76603 4.65257 7.42539 4.45219 7.05118 4.34644C6.69527 4.24747 6.3191 4.24747 5.96318 4.34644C5.59 4.46356 5.25067 4.66916 4.97411 4.94573C4.69754 5.2223 4.49194 5.56163 4.37482 5.9348C4.27312 6.29034 4.27312 6.66726 4.37482 7.0228C4.47772 7.39653 4.67858 7.73599 4.95664 8.00607L6.19009 9.23952C6.8739 9.92663 7.25923 10.8556 7.26249 11.825C7.26576 12.7944 6.8867 13.726 6.20755 14.4177Z" fill="url(#paint0_linear)"/>
<path d="M14.4757 25.8506L10.403 29.9233C9.75231 30.6064 8.91434 31.082 7.99427 31.2906C7.09727 31.4716 6.16735 31.3949 5.31209 31.0695C4.33128 30.685 3.44728 30.089 2.723 29.324C1.95731 28.5958 1.36138 27.7078 0.977546 26.7233C0.637896 25.8579 0.567256 24.9101 0.774862 24.0039C0.982468 23.0977 1.45866 22.2753 2.14118 21.644L6.21391 17.5713C6.55537 17.9123 6.82626 18.3172 7.01108 18.763C7.19591 19.2087 7.29104 19.6866 7.29104 20.1691C7.29104 20.6517 7.19591 21.1295 7.01108 21.5752C6.82626 22.021 6.55537 22.4259 6.21391 22.7669L4.98627 24.0178C4.71059 24.2921 4.51021 24.6327 4.40446 25.0069C4.30549 25.3628 4.30549 25.739 4.40446 26.0949C4.5128 26.468 4.71282 26.8081 4.98627 27.084C5.26247 27.3601 5.6051 27.5605 5.98118 27.6658C6.33515 27.7646 6.7094 27.7646 7.06336 27.6658C7.43788 27.5608 7.77871 27.3603 8.05246 27.084L9.30918 25.8506C9.99662 25.1698 10.925 24.7879 11.8925 24.7879C12.8599 24.7879 13.7883 25.1698 14.4757 25.8506Z" fill="url(#paint1_linear)"/>
<path d="M25.792 9.2223L27.0254 7.98884C27.3035 7.71876 27.5043 7.3793 27.6072 7.00557C27.7089 6.65003 27.7089 6.2731 27.6072 5.91756C27.4901 5.54439 27.2845 5.20505 27.008 4.92849C26.7314 4.65192 26.3921 4.44632 26.0189 4.3292C25.663 4.23023 25.2868 4.23023 24.9309 4.3292C24.5567 4.43495 24.216 4.63533 23.9418 4.91102L22.7083 6.13866C22.3674 6.48012 21.9624 6.75101 21.5167 6.93583C21.0709 7.12065 20.5931 7.21579 20.1105 7.21579C19.628 7.21579 19.1501 7.12065 18.7044 6.93583C18.2586 6.75101 17.8537 6.48012 17.5127 6.13866L21.5854 2.06592C22.2171 1.38407 23.0396 0.908355 23.9456 0.70079C24.8516 0.493225 25.7992 0.56344 26.6647 0.902281C27.6492 1.28612 28.5372 1.88205 29.2654 2.64774C30.0307 3.37407 30.6266 4.26002 31.0109 5.24265C31.339 6.09528 31.4157 7.02411 31.232 7.91902C31.0234 8.83909 30.5478 9.67707 29.8647 10.3278L25.792 14.4005C25.1105 13.7111 24.7283 12.7808 24.7283 11.8114C24.7283 10.842 25.1105 9.91171 25.792 9.2223Z" fill="url(#paint2_linear)"/>
<path d="M22.7201 25.8497L23.9535 27.0832C24.2273 27.3595 24.5681 27.56 24.9426 27.665C25.2966 27.7638 25.6709 27.7638 26.0248 27.665C26.4009 27.5597 26.7435 27.3593 27.0197 27.0832C27.2932 26.8072 27.4932 26.4672 27.6015 26.0941C27.7005 25.7382 27.7005 25.362 27.6015 25.0061C27.4958 24.6319 27.2954 24.2912 27.0197 24.017L25.7921 22.7835C25.4506 22.4426 25.1797 22.0376 24.9949 21.5918C24.8101 21.1461 24.715 20.6683 24.715 20.1857C24.715 19.7032 24.8101 19.2253 24.9949 18.7796C25.1797 18.3338 25.4506 17.9289 25.7921 17.5879L29.8648 21.6606C30.5473 22.2919 31.0235 23.1143 31.2311 24.0205C31.4387 24.9267 31.3681 25.8745 31.0285 26.7399C30.6446 27.7244 30.0487 28.6124 29.283 29.3406C28.5587 30.1056 27.6747 30.7016 26.6939 31.0861C25.8387 31.4115 24.9087 31.4882 24.0117 31.3072C23.0917 31.0986 22.2537 30.623 21.603 29.9399L17.5303 25.8672C18.2164 25.177 19.1484 24.7875 20.1216 24.7842C21.0947 24.7809 22.0294 25.1642 22.7201 25.8497Z" fill="url(#paint3_linear)"/>
<path d="M13.6665 14.5921V16.3376C13.6673 16.7293 13.7696 17.1142 13.9632 17.4547C14.1427 17.7787 14.4086 18.0466 14.7312 18.2285C15.0783 18.4081 15.4634 18.5018 15.8542 18.5018C16.2449 18.5018 16.63 18.4081 16.9771 18.2285C17.2912 18.0432 17.5487 17.7756 17.7218 17.4547C17.9119 17.1135 18.0083 16.7281 18.0011 16.3376V14.5921C18.0003 14.1095 18.0947 13.6315 18.2789 13.1854C18.463 12.7393 18.7333 12.3339 19.0743 11.9924C19.4153 11.6509 19.8203 11.3799 20.2661 11.1951C20.7119 11.0102 21.1897 10.915 21.6723 10.915V16.6459C21.6958 17.5899 21.443 18.5201 20.9451 19.3223C20.4443 20.0888 19.7332 20.6948 18.8971 21.0678C17.932 21.4933 16.8853 21.7018 15.8309 21.6787C14.7871 21.6951 13.7524 21.4826 12.7996 21.0561C11.9437 20.6883 11.219 20.0703 10.7206 19.2833C10.2222 18.4963 9.97344 17.5769 10.0069 16.6459V10.915C10.9791 10.9197 11.9099 11.3091 12.5957 11.9982C13.2815 12.6873 13.6665 13.6199 13.6665 14.5921Z" fill="url(#paint4_linear)"/>
<defs>
<linearGradient id="paint0_linear" x1="2.40205" y1="10.6106" x2="10.659" y2="2.35369" gradientUnits="userSpaceOnUse">
<stop stop-color="#8174FE"/>
<stop offset="1" stop-color="#29ABE2"/>
</linearGradient>
<linearGradient id="paint1_linear" x1="-606.832" y1="7197.74" x2="-803.023" y2="7001.55" gradientUnits="userSpaceOnUse">
<stop stop-color="#8174FE"/>
<stop offset="1" stop-color="#29ABE2"/>
</linearGradient>
<linearGradient id="paint2_linear" x1="5478.91" y1="1983.42" x2="5282.02" y2="1786.54" gradientUnits="userSpaceOnUse">
<stop stop-color="#8174FE"/>
<stop offset="1" stop-color="#29ABE2"/>
</linearGradient>
<linearGradient id="paint3_linear" x1="886.257" y1="7240.33" x2="1083.25" y2="7043.33" gradientUnits="userSpaceOnUse">
<stop stop-color="#8174FE"/>
<stop offset="1" stop-color="#29ABE2"/>
</linearGradient>
<linearGradient id="paint4_linear" x1="-4993.21" y1="5351.17" x2="-4758.99" y2="5351.17" gradientUnits="userSpaceOnUse">
<stop stop-color="#8174FE"/>
<stop offset="1" stop-color="#29ABE2"/>
</linearGradient>
</defs>
</svg>
