<svg width="23" height="23" viewBox="0 0 23 23" fill="none" xmlns="http://www.w3.org/2000/svg">
    <path d="M8.625 10.5417C10.7421 10.5417 12.4583 8.82543 12.4583 6.70833C12.4583 4.59124 10.7421 2.875 8.625 2.875C6.50791 2.875 4.79167 4.59124 4.79167 6.70833C4.79167 8.82543 6.50791 10.5417 8.625 10.5417Z" stroke="currentColor" stroke-width="2" stroke-linecap="round" stroke-linejoin="round"/>
    <path d="M2.875 20.125V18.2083C2.875 17.1917 3.27887 16.2166 3.99776 15.4978C4.71665 14.7789 5.69167 14.375 6.70833 14.375H10.5417C11.5583 14.375 12.5334 14.7789 13.2522 15.4978C13.9711 16.2166 14.375 17.1917 14.375 18.2083V20.125" stroke="currentColor" stroke-width="2" stroke-linecap="round" stroke-linejoin="round"/>
    <path d="M15.3333 2.99951C16.1579 3.21063 16.8887 3.69018 17.4107 4.36256C17.9326 5.03493 18.2159 5.86189 18.2159 6.71305C18.2159 7.56422 17.9326 8.39117 17.4107 9.06355C16.8887 9.73592 16.1579 10.2155 15.3333 10.4266" stroke="currentColor" stroke-width="2" stroke-linecap="round" stroke-linejoin="round"/>
    <path d="M20.125 20.1248V18.2081C20.1201 17.3621 19.8355 16.5414 19.3155 15.874C18.7954 15.2066 18.0692 14.7301 17.25 14.5186" stroke="currentColor" stroke-width="2" stroke-linecap="round" stroke-linejoin="round"/>
</svg>
