<svg width="25" height="25" viewBox="0 0 25 25" fill="none" xmlns="http://www.w3.org/2000/svg">
<path fill-rule="evenodd" clip-rule="evenodd" d="M19.7923 20.8337H17.8878L13.2373 16.183C12.8304 15.7763 12.171 15.7763 11.7641 16.183L7.1136 20.8337H5.20898V7.29199C5.20898 5.56611 6.6081 4.16699 8.33398 4.16699H16.6673C18.3933 4.16699 19.7923 5.5661 19.7923 7.29199V20.8337ZM17.709 7.29199C17.709 6.7167 17.2426 6.25033 16.6673 6.25033H8.33398C7.75869 6.25033 7.29232 6.7167 7.29232 7.29199V17.7087L10.291 14.7099C11.5114 13.4896 13.49 13.4896 14.7104 14.7099L17.709 17.7086V7.29199Z" fill="#FFEB37"/>
<rect x="6.86914" y="6" width="11" height="9" fill="#FFEB37"/>
<path d="M5.90295 14.0553L11.4271 14.0155L6.39903 19.5573L5.90295 14.0553Z" fill="#FFEB37"/>
<path d="M18.7865 14.0553L13.2624 14.0155L18.2904 19.5573L18.7865 14.0553Z" fill="#FFEB37"/>
</svg>
