<svg width="23" height="23" viewBox="0 0 23 23" fill="none" xmlns="http://www.w3.org/2000/svg">
<path d="M8.78965 15.5653L11.4998 12.8551L14.21 15.5653L15.5651 14.2102L12.8549 11.5L15.5651 8.78984L14.21 7.43475L11.4998 10.1449L8.78965 7.43475L7.43457 8.78984L10.1447 11.5L7.43457 14.2102L8.78965 15.5653Z" fill="#878E99"/>
<path d="M11.5003 21.0834C16.7846 21.0834 21.0837 16.7843 21.0837 11.5C21.0837 6.21577 16.7846 1.91669 11.5003 1.91669C6.21608 1.91669 1.91699 6.21577 1.91699 11.5C1.91699 16.7843 6.21608 21.0834 11.5003 21.0834ZM11.5003 3.83335C15.7275 3.83335 19.167 7.27281 19.167 11.5C19.167 15.7272 15.7275 19.1667 11.5003 19.1667C7.27312 19.1667 3.83366 15.7272 3.83366 11.5C3.83366 7.27281 7.27312 3.83335 11.5003 3.83335Z" fill="#878E99"/>
</svg>
