<svg width="23" height="23" viewBox="0 0 23 23" fill="none" xmlns="http://www.w3.org/2000/svg">
<path d="M6.70801 16.3041L10.9371 16.2898L20.1678 7.14726C20.53 6.78501 20.7294 6.30392 20.7294 5.79217C20.7294 5.28042 20.53 4.79934 20.1678 4.43709L18.6479 2.91717C17.9234 2.19267 16.6593 2.19651 15.9406 2.9143L6.70801 12.0587V16.3041ZM17.2928 4.27226L18.8156 5.7893L17.2851 7.30538L15.7652 5.78642L17.2928 4.27226ZM8.62467 12.858L14.4034 7.13384L15.9233 8.65376L10.1455 14.376L8.62467 14.3808V12.858Z" fill="currentColor"/>
<path d="M4.79167 20.125H18.2083C19.2654 20.125 20.125 19.2654 20.125 18.2083V9.9015L18.2083 11.8182V18.2083H7.81808C7.79317 18.2083 7.76729 18.2179 7.74238 18.2179C7.71075 18.2179 7.67912 18.2093 7.64654 18.2083H4.79167V4.79167H11.3534L13.27 2.875H4.79167C3.73462 2.875 2.875 3.73462 2.875 4.79167V18.2083C2.875 19.2654 3.73462 20.125 4.79167 20.125Z" fill="currentColor"/>
</svg>
