<svg preserveAspectRatio="none" width="100%" height="188" viewBox="0 0 148 188" fill="none" xmlns="http://www.w3.org/2000/svg">
<g clip-path="url(#clip0)">
<path opacity="0.18" d="M139.454 107.506C139.596 118.767 143.034 129.947 141.81 141.128C139.511 161.964 120.575 178.311 100.088 182.218C89.4851 184.24 77.7653 183.255 69.112 176.772C65.9183 174.376 63.2616 171.321 60.1102 168.864C50.025 160.988 36.0206 159.928 25.5915 152.521C13.4383 143.889 8.37923 128.399 5.23731 113.775C3.39078 105.188 1.94308 96.5286 0.894205 87.7963C-0.679111 74.7453 -0.990007 60.283 7.06028 49.9122C13.0756 42.1318 22.605 38.2013 30.9191 32.9685C41.8946 26.0642 51.0613 16.5931 61.7636 9.25781C73.8508 0.970652 85.1843 -1.27872 97.2339 0.643901L98.2985 0.823851C103.753 1.87244 109.084 3.49459 114.201 5.66355C130.264 12.2412 144.207 26.0263 147.283 43.6755C150.981 64.9096 139.191 85.9448 139.454 107.506Z" fill="#4F56F1"/>
<path d="M42.5266 137.103H72.349C73.4286 137.103 74.3038 136.224 74.3038 135.14C74.3038 134.056 73.4286 133.177 72.349 133.177H42.5266C41.447 133.177 40.5718 134.056 40.5718 135.14C40.5718 136.224 41.447 137.103 42.5266 137.103Z" fill="#4F56F1"/>
<path d="M47.8495 156.556H77.6718C78.7515 156.556 79.6267 155.677 79.6267 154.593C79.6267 153.509 78.7515 152.63 77.6718 152.63H47.8495C46.7699 152.63 45.8946 153.509 45.8946 154.593C45.8946 155.677 46.7699 156.556 47.8495 156.556Z" fill="#4F56F1"/>
<path d="M53.1771 176.01H82.9995C84.0791 176.01 84.9543 175.131 84.9543 174.047C84.9543 172.963 84.0791 172.084 82.9995 172.084H53.1771C52.0975 172.084 51.2223 172.963 51.2223 174.047C51.2223 175.131 52.0975 176.01 53.1771 176.01Z" fill="#4F56F1"/>
<path d="M81.3743 188H86.1696L73.1168 134.725H68.3262L81.3743 188Z" fill="#4F56F1"/>
<path d="M54.7457 188H59.5363L46.4882 134.725H41.6976L54.7457 188Z" fill="#4F56F1"/>
<path d="M42.5266 137.103H72.349C73.4286 137.103 74.3038 136.224 74.3038 135.14C74.3038 134.056 73.4286 133.177 72.349 133.177H42.5266C41.447 133.177 40.5718 134.056 40.5718 135.14C40.5718 136.224 41.447 137.103 42.5266 137.103Z" fill="url(#paint0_linear)"/>
<path d="M47.8495 156.556H77.6718C78.7515 156.556 79.6267 155.677 79.6267 154.593C79.6267 153.509 78.7515 152.63 77.6718 152.63H47.8495C46.7699 152.63 45.8946 153.509 45.8946 154.593C45.8946 155.677 46.7699 156.556 47.8495 156.556Z" fill="url(#paint1_linear)"/>
<path d="M53.1771 176.01H82.9995C84.0791 176.01 84.9543 175.131 84.9543 174.047C84.9543 172.963 84.0791 172.084 82.9995 172.084H53.1771C52.0975 172.084 51.2223 172.963 51.2223 174.047C51.2223 175.131 52.0975 176.01 53.1771 176.01Z" fill="url(#paint2_linear)"/>
<path d="M81.3743 188H86.1696L73.1168 134.725H68.3262L81.3743 188Z" fill="url(#paint3_linear)"/>
<path d="M54.7457 188H59.5363L46.4882 134.725H41.6976L54.7457 188Z" fill="url(#paint4_linear)"/>
<path d="M81.0823 49.1736C81.3636 48.8749 81.7024 48.6369 82.0782 48.474C82.454 48.3112 82.8588 48.227 83.2679 48.2265C83.2206 49.0194 82.9654 49.7857 82.5284 50.4475C82.3511 50.7072 82.2115 50.991 82.1139 51.2904C82.0664 51.4402 82.0588 51.6 82.0918 51.7537C82.1249 51.9074 82.1975 52.0497 82.3023 52.1665C82.4577 52.318 82.6838 52.389 82.7733 52.5737C82.8247 52.6878 82.8369 52.8158 82.8079 52.9375C82.7789 53.0593 82.7104 53.1679 82.6132 53.2462C82.4154 53.4007 82.1849 53.5076 81.9396 53.5587L80.7148 53.9044C80.4152 54.0261 80.0839 54.0444 79.7727 53.9565C77.9121 53.1609 80.3992 49.8887 81.0823 49.1736Z" fill="#F3BD8F"/>
<path d="M73.8751 54.9367C74.6011 54.8114 75.2881 54.5179 75.8818 54.0796C76.8538 53.4304 77.7279 52.6442 78.4773 51.745C79.6077 52.6406 80.5129 53.7907 81.1199 55.1025C81.2219 55.2457 81.2673 55.422 81.2473 55.597C81.2273 55.772 81.1433 55.9333 81.0116 56.0496C79.2451 58.1001 76.9417 59.9848 74.2426 60.0842C72.7803 60.1353 71.3509 59.6411 70.2292 58.6967C69.1175 57.7496 67.1108 54.5058 68.6936 53.1846C69.532 52.4837 70.2104 53.374 70.8369 53.8712C71.2482 54.2417 71.7285 54.5266 72.25 54.7095C72.7715 54.8923 73.3238 54.9696 73.8751 54.9367Z" fill="#4F56F1"/>
<path d="M90.7906 31.6522L106.302 31.6522C107.366 31.6522 108.229 30.785 108.229 29.7154V24.2979C108.229 23.2283 107.366 22.3611 106.302 22.3611H90.7906C89.7266 22.3611 88.864 23.2283 88.864 24.2979V29.7154C88.864 30.785 89.7266 31.6522 90.7906 31.6522Z" fill="#4F56F1"/>
<path d="M89.2267 28.5694L107.64 28.5694C108.535 28.5694 109.261 27.84 109.261 26.9403V26.822C109.261 25.9223 108.535 25.1929 107.64 25.1929L89.2267 25.1929C88.3318 25.1929 87.6063 25.9223 87.6063 26.822V26.9403C87.6063 27.84 88.3318 28.5694 89.2267 28.5694Z" fill="#4F56F1"/>
<path d="M80.7619 57.0677C80.7565 54.2988 81.4209 51.5701 82.698 49.1168L89.7402 31.4533H106.967L113.514 50.0876C114.549 52.4294 115.051 54.974 114.982 57.5357C114.914 60.0974 114.277 62.6113 113.118 64.8938C111.96 67.1763 110.308 69.1698 108.285 70.7286C106.262 72.2874 103.918 73.3722 101.424 73.9036C98.9307 74.4351 96.3505 74.3998 93.8721 73.8003C91.3938 73.2009 89.08 72.0525 87.0997 70.4389C85.1194 68.8254 83.5227 66.7874 82.4262 64.4741C81.3297 62.1607 80.7611 59.6303 80.7619 57.0677Z" fill="#4F56F1"/>
<path opacity="0.69" d="M80.7619 57.0677C80.7565 54.2988 81.4209 51.5701 82.698 49.1168L89.7402 31.4533H106.967L113.514 50.0876C114.549 52.4294 115.051 54.974 114.982 57.5357C114.914 60.0974 114.277 62.6113 113.118 64.8938C111.96 67.1763 110.308 69.1698 108.285 70.7286C106.262 72.2874 103.918 73.3722 101.424 73.9036C98.9307 74.4351 96.3505 74.3998 93.8721 73.8003C91.3938 73.2009 89.08 72.0525 87.0997 70.4389C85.1194 68.8254 83.5227 66.7874 82.4262 64.4741C81.3297 62.1607 80.7611 59.6303 80.7619 57.0677Z" fill="url(#paint5_radial)"/>
<path d="M100.655 31.1692C103.175 36.4465 104.497 42.2209 104.527 48.075C104.527 49.3867 104.338 50.9163 103.198 51.5698C101.785 52.3511 100.07 51.1294 99.3073 49.7182C98.8135 48.793 98.5211 47.7727 98.4497 46.7252C98.3782 45.6777 98.5293 44.6268 98.8928 43.6425C99.8349 44.8122 100.085 46.3512 100.24 47.8287C100.422 48.9154 100.356 50.0295 100.047 51.0867C99.6747 52.1191 98.7562 53.0283 97.6633 53.0662C95.9864 53.123 94.8983 51.2335 94.7098 49.5524C94.4995 47.6387 94.9341 45.7094 95.944 44.0734C96.2987 45.152 96.3635 46.3057 96.1319 47.4175C95.9003 48.5294 95.3804 49.56 94.6251 50.4048C94.1275 50.995 93.4588 51.4139 92.7126 51.6029C92.339 51.6898 91.9485 51.6682 91.5866 51.5408C91.2247 51.4134 90.9062 51.1853 90.6682 50.8831C90.4381 50.509 90.2993 50.0855 90.2631 49.6471C89.792 46.4791 90.9132 43.2921 92.2792 40.3987C93.6453 37.5053 95.3034 34.7161 96.1089 31.6143" stroke="white" stroke-width="1.39" stroke-miterlimit="10"/>
<path d="M90.7906 31.6522L106.302 31.6522C107.366 31.6522 108.229 30.785 108.229 29.7154V24.2979C108.229 23.2283 107.366 22.3611 106.302 22.3611H90.7906C89.7266 22.3611 88.864 23.2283 88.864 24.2979V29.7154C88.864 30.785 89.7266 31.6522 90.7906 31.6522Z" fill="url(#paint6_linear)"/>
<path d="M89.2267 28.5694L107.64 28.5694C108.535 28.5694 109.261 27.84 109.261 26.9403V26.822C109.261 25.9223 108.535 25.1929 107.64 25.1929L89.2267 25.1929C88.3318 25.1929 87.6063 25.9223 87.6063 26.822V26.9403C87.6063 27.84 88.3318 28.5694 89.2267 28.5694Z" fill="url(#paint7_linear)"/>
<path d="M66.164 97.8784C66.1586 98.6174 66.0988 99.355 65.985 100.085C65.7009 101.275 65.3228 102.441 64.8545 103.571C64.256 105.393 63.7838 107.256 63.4413 109.144L60.6951 122.721C60.641 122.911 60.641 123.113 60.6951 123.303C60.7683 123.459 60.8823 123.592 61.0248 123.687C61.469 124.043 61.9666 124.326 62.4992 124.525C62.6652 124.604 62.8522 124.625 63.0315 124.587C63.2484 124.482 63.4169 124.297 63.5026 124.071C64.5477 122.221 65.361 120.249 65.9238 118.199C68.7501 108.325 71.779 102.363 72.3395 97.4901C72.4337 96.6993 73.2816 95.9842 72.8671 95.307C72.6159 94.8692 72.2617 94.5001 71.8355 94.2321C70.7662 93.5123 68.3403 91.3908 66.9177 92.2337C65.66 92.9298 66.2064 96.6093 66.164 97.8784Z" fill="#F3BD8F"/>
<path d="M60.0309 97.6369C59.9968 97.9315 59.854 98.2025 59.6307 98.3962C59.4074 98.59 59.1199 98.6925 58.825 98.6834C52.3057 99.6779 45.4895 99.8247 39.5401 102.675C39.1487 102.822 38.806 103.077 38.5509 103.409C37.9998 104.271 38.7158 105.45 38.4002 106.421C42.0791 106.535 45.7439 105.948 49.3757 105.351L62.8667 103.154C63.724 103.012 64.6425 102.841 65.2502 102.207C65.6975 101.66 65.999 101.008 66.1263 100.312L67.1815 96.3251C67.3935 95.539 67.5913 94.6772 67.2427 93.9574C66.7717 92.9392 65.4622 92.6646 64.3458 92.603C61.0296 92.4183 60.8176 95.0323 60.0309 97.6369Z" fill="#F3BD8F"/>
<path d="M60.0309 97.6369C59.9968 97.9315 59.854 98.2025 59.6307 98.3962C59.4074 98.59 59.1199 98.6925 58.825 98.6834C52.3057 99.6779 45.4895 99.8247 39.5401 102.675C39.1487 102.822 38.806 103.077 38.5509 103.409C37.9998 104.271 38.7158 105.45 38.4002 106.421C42.0791 106.535 45.7439 105.948 49.3757 105.351L62.8667 103.154C63.724 103.012 64.6425 102.841 65.2502 102.207C65.6975 101.66 65.999 101.008 66.1263 100.312L67.1815 96.3251C67.3935 95.539 67.5913 94.6772 67.2427 93.9574C66.7717 92.9392 65.4622 92.6646 64.3458 92.603C61.0296 92.4183 60.8176 95.0323 60.0309 97.6369Z" fill="url(#paint8_linear)"/>
<path d="M87.0882 59.1987C87.1871 58.995 87.4132 58.763 87.5828 58.9003C87.6494 58.969 87.6881 59.0602 87.6911 59.1561L87.8418 60.1789C87.8449 60.2465 87.866 60.3119 87.9031 60.3684C88.0208 60.5057 88.2422 60.4157 88.3741 60.3115C89.2217 59.7243 89.9938 59.034 90.6729 58.2563C90.8048 58.1048 90.9932 57.9343 91.1816 58.0148C91.2762 58.0687 91.347 58.1567 91.3794 58.261C91.5903 58.8445 91.6407 59.4743 91.5255 60.0842C91.4447 60.8393 91.1986 61.5671 90.8048 62.2152C90.4069 62.8666 89.7796 63.3434 89.0477 63.5506C88.4683 63.6974 87.8324 63.6359 87.3001 63.9105C86.9798 64.0763 86.6831 64.3604 86.3251 64.3225C85.8823 64.2752 85.6515 63.7637 85.6091 63.3186C85.4866 61.8506 86.4711 60.4583 87.0882 59.1987Z" fill="#F3BD8F"/>
<path d="M69.2212 43.2305C69.3578 44.5754 69.5038 46.0103 70.3611 47.0521C70.7144 47.483 71.1713 47.824 71.4869 48.2833C71.7815 48.7136 71.9377 49.2243 71.9344 49.7466C69.6498 49.6424 67.4123 50.6937 65.1324 50.4853C64.9638 49.2148 65.0196 47.9243 65.2973 46.6732C65.6883 44.9258 66.522 43.24 66.442 41.4642C66.4184 40.877 66.2771 40.1524 66.6445 39.6315C66.9507 39.2006 67.662 38.9733 68.0577 39.3995C68.4032 39.8897 68.6585 40.4382 68.8113 41.019C69.0288 41.7387 69.1663 42.4804 69.2212 43.2305Z" fill="#3E3E54"/>
<path d="M67.6808 50.7221C71.713 53.0899 73.3334 61.808 73.9788 63.9531C74.9041 67.2065 75.3033 70.5881 75.1611 73.9688C75.1281 75.4557 75.0198 76.9948 74.3697 78.3302C73.4747 80.1676 71.6471 81.413 69.7016 82.0002C67.7562 82.5874 65.6835 82.5921 63.658 82.4738C62.3485 82.4027 60.9447 82.2512 59.9508 81.3941C58.5942 80.2244 58.4576 78.2023 58.4387 76.4028C58.354 69.2869 58.4246 62.1663 58.6507 55.0409C58.6348 53.968 58.7777 52.8987 59.0747 51.8681C59.2255 51.3528 59.4861 50.8767 59.8383 50.4727C60.1905 50.0687 60.6259 49.7466 61.1143 49.5288C62.9137 48.8563 66.0038 49.7277 67.6808 50.7221Z" fill="#4F56F1"/>
<path d="M67.6808 50.7221C71.713 53.0899 73.3334 61.808 73.9788 63.9531C74.9041 67.2065 75.3033 70.5881 75.1611 73.9688C75.1281 75.4557 75.0198 76.9948 74.3697 78.3302C73.4747 80.1676 71.6471 81.413 69.7016 82.0002C67.7562 82.5874 65.6835 82.5921 63.658 82.4738C62.3485 82.4027 60.9447 82.2512 59.9508 81.3941C58.5942 80.2244 58.4576 78.2023 58.4387 76.4028C58.354 69.2869 58.4246 62.1663 58.6507 55.0409C58.6348 53.968 58.7777 52.8987 59.0747 51.8681C59.2255 51.3528 59.4861 50.8767 59.8383 50.4727C60.1905 50.0687 60.6259 49.7466 61.1143 49.5288C62.9137 48.8563 66.0038 49.7277 67.6808 50.7221Z" fill="url(#paint9_linear)"/>
<path d="M69.2164 45.9629C69.245 46.4515 69.0904 46.933 68.7831 47.3125C68.5981 47.4626 68.384 47.5722 68.1544 47.6342C67.9248 47.6961 67.6849 47.7092 67.45 47.6724C66.9827 47.5947 66.5104 47.5519 66.0368 47.5446C65.922 47.5299 65.8053 47.5413 65.6954 47.5781C65.5856 47.6148 65.4853 47.6759 65.4021 47.7568C65.3189 47.8377 65.2548 47.9364 65.2147 48.0456C65.1745 48.1548 65.1593 48.2716 65.1701 48.3875C65.1701 49.0457 65.448 49.6756 65.4433 50.3338C65.4386 50.992 64.9393 51.7545 64.2987 51.6124C63.9899 51.517 63.7289 51.307 63.5685 51.0252C62.6594 49.6945 62.6029 47.9518 61.9104 46.4886C61.5053 45.6314 60.8835 44.8785 60.5868 43.974C60.365 43.2133 60.3652 42.4046 60.5873 41.6441C60.8095 40.8835 61.2442 40.2031 61.8398 39.6836C63.0315 38.6466 65.7825 37.8699 67.0684 39.1675C68.6841 40.8012 69.3012 43.7514 69.2164 45.9629Z" fill="#F3BD8F"/>
<path d="M66.6069 36.7192C66.9216 36.8336 67.2183 36.9931 67.4877 37.1927C68.1274 37.782 68.5797 38.548 68.7879 39.3947L65.434 41.199C65.3338 41.266 65.215 41.2992 65.0948 41.2937C64.8546 41.2511 64.7415 40.9148 64.5013 40.9006C64.6165 41.0968 64.7067 41.3069 64.7698 41.5257L63.4602 42.4728C63.3135 42.5623 63.1842 42.6778 63.0787 42.8138C62.9347 43.0782 62.8755 43.3809 62.9091 43.6804C63.0478 46.2059 63.4312 48.7118 64.0538 51.1625C63.5548 51.4422 62.9991 51.6041 62.4286 51.6361C60.2727 51.9683 58.1745 52.606 56.1966 53.5303C56.1819 52.8504 56.079 52.1754 55.8904 51.5224C55.6872 50.9994 55.5634 50.4487 55.523 49.8887C55.5897 49.2532 55.7835 48.6378 56.093 48.0797C56.4604 47.2652 56.7713 46.427 57.0822 45.5888C57.3127 45.0289 57.471 44.4417 57.5532 43.8414C57.5646 43.0664 57.4984 42.2921 57.3554 41.5305C57.2163 40.7599 57.3675 39.9648 57.7793 39.3C58.453 38.3908 59.7389 38.1398 60.6575 37.5574C61.7529 36.7886 63.0481 36.359 64.3835 36.3214C65.1431 36.3107 65.8977 36.4457 66.6069 36.7192Z" fill="#3E3E54"/>
<path d="M69.0516 69.3942C69.9937 70.3413 74.285 71.3169 75.8112 71.2885C79.7587 71.2885 87.9832 66.373 87.8419 66.0178L85.4254 60.0558C83.3858 61.4007 81.2519 62.6982 78.8637 63.186C76.4754 63.6737 73.7669 63.2144 72.0758 61.4528C70.8699 60.1931 70.3188 58.4505 69.3437 57.0061C68.3686 55.5618 66.5645 54.3448 64.9582 55.0077C62.8432 55.8791 62.358 59.3786 63.1164 61.2397C64.3317 64.2562 66.8094 67.1259 69.0516 69.3942Z" fill="#4F56F1"/>
<path d="M56.0882 93.3323C55.9328 93.8059 55.7585 94.2794 55.5795 94.753C55.0707 96.0458 54.5714 97.7742 55.669 98.6219C56.055 98.8831 56.5044 99.0337 56.9691 99.0576C58.5141 99.2328 60.078 98.9344 61.6325 98.9676C65.0288 99.0339 68.1896 100.649 71.1289 102.358C71.748 102.767 72.4312 103.068 73.1497 103.248C73.5103 103.333 73.8867 103.322 74.2413 103.214C74.596 103.107 74.9164 102.908 75.1705 102.638C75.6416 102.046 75.6416 101.217 75.5945 100.44L74.8644 86.2338C74.7749 84.4958 75.3354 79.0831 73.2769 78.5954C71.9674 78.2828 69.9419 78.9269 68.5664 79.0168C66.913 79.1305 65.269 79.1778 63.5921 79.1731C62.7666 79.1966 61.9419 79.1025 61.1426 78.8937C60.6716 78.7422 59.1265 77.885 58.6036 78.0034C57.0068 78.3823 57.6898 83.6576 57.638 84.8984C57.5217 87.7693 56.9999 90.6091 56.0882 93.3323Z" fill="#3E3E54"/>
<path d="M56.0882 93.3323C55.9328 93.8059 55.7585 94.2794 55.5795 94.753C55.0707 96.0458 54.5714 97.7742 55.669 98.6219C56.055 98.8831 56.5044 99.0337 56.9691 99.0576C58.5141 99.2328 60.078 98.9344 61.6325 98.9676C65.0288 99.0339 68.1896 100.649 71.1289 102.358C71.748 102.767 72.4312 103.068 73.1497 103.248C73.5103 103.333 73.8867 103.322 74.2413 103.214C74.596 103.107 74.9164 102.908 75.1705 102.638C75.6416 102.046 75.6416 101.217 75.5945 100.44L74.8644 86.2338C74.7749 84.4958 75.3354 79.0831 73.2769 78.5954C71.9674 78.2828 69.9419 78.9269 68.5664 79.0168C66.913 79.1305 65.269 79.1778 63.5921 79.1731C62.7666 79.1966 61.9419 79.1025 61.1426 78.8937C60.6716 78.7422 59.1265 77.885 58.6036 78.0034C57.0068 78.3823 57.6898 83.6576 57.638 84.8984C57.5217 87.7693 56.9999 90.6091 56.0882 93.3323Z" fill="url(#paint10_linear)"/>
<path d="M36.2428 102.86C35.8619 102.875 35.4984 103.024 35.2159 103.282C34.9693 103.65 34.8701 104.098 34.938 104.537C35.0749 108.031 35.4511 111.512 36.0638 114.955C36.1392 115.381 36.2805 115.902 36.6903 116.015C37.2885 116.214 37.7455 115.476 37.9527 114.879L40.6094 107.146C40.7173 106.902 40.7549 106.633 40.7178 106.369C40.6142 105.938 40.1431 105.716 39.8605 105.37C39.3188 104.693 39.6815 103.533 39.0032 102.979C38.4002 102.486 36.9305 102.77 36.2428 102.86Z" fill="#4F56F1"/>
<path d="M58.2268 124.374C57.9825 124.669 57.8492 125.041 57.85 125.425C57.9564 125.855 58.2205 126.229 58.5895 126.471C61.2596 128.718 64.0818 130.775 67.0355 132.628C67.4029 132.855 67.8646 133.101 68.2367 132.874C68.7878 132.557 68.5476 131.723 68.2367 131.169L64.3034 124.004C64.2058 123.763 64.0425 123.555 63.8323 123.403C63.4414 123.19 62.9609 123.403 62.5181 123.37C61.6514 123.322 61.039 122.276 60.1628 122.423C59.395 122.513 58.6225 123.801 58.2268 124.374Z" fill="#4F56F1"/>
<path d="M36.2428 102.86C35.8619 102.875 35.4984 103.024 35.2159 103.282C34.9693 103.65 34.8701 104.098 34.938 104.537C35.0749 108.031 35.4511 111.512 36.0638 114.955C36.1392 115.381 36.2805 115.902 36.6903 116.015C37.2885 116.214 37.7455 115.476 37.9527 114.879L40.6094 107.146C40.7173 106.902 40.7549 106.633 40.7178 106.369C40.6142 105.938 40.1431 105.716 39.8605 105.37C39.3188 104.693 39.6815 103.533 39.0032 102.979C38.4002 102.486 36.9305 102.77 36.2428 102.86Z" fill="url(#paint11_linear)"/>
<path d="M58.2268 124.374C57.9825 124.669 57.8492 125.041 57.85 125.425C57.9564 125.855 58.2205 126.229 58.5895 126.471C61.2596 128.718 64.0818 130.775 67.0355 132.628C67.4029 132.855 67.8646 133.101 68.2367 132.874C68.7878 132.557 68.5476 131.723 68.2367 131.169L64.3034 124.004C64.2058 123.763 64.0425 123.555 63.8323 123.403C63.4414 123.19 62.9609 123.403 62.5181 123.37C61.6514 123.322 61.039 122.276 60.1628 122.423C59.395 122.513 58.6225 123.801 58.2268 124.374Z" fill="url(#paint12_linear)"/>
<path d="M71.0159 132.94H41.1936C40.1139 132.94 39.2387 133.819 39.2387 134.903C39.2387 135.987 40.1139 136.866 41.1936 136.866H71.0159C72.0956 136.866 72.9708 135.987 72.9708 134.903C72.9708 133.819 72.0956 132.94 71.0159 132.94Z" fill="#4F56F1"/>
<path d="M65.6883 152.394H35.8659C34.7863 152.394 33.9111 153.272 33.9111 154.357C33.9111 155.441 34.7863 156.319 35.8659 156.319H65.6883C66.7679 156.319 67.6432 155.441 67.6432 154.357C67.6432 153.272 66.7679 152.394 65.6883 152.394Z" fill="#4F56F1"/>
<path d="M60.3653 171.847H30.543C29.4634 171.847 28.5881 172.726 28.5881 173.81C28.5881 174.894 29.4634 175.773 30.543 175.773H60.3653C61.445 175.773 62.3202 174.894 62.3202 173.81C62.3202 172.726 61.445 171.847 60.3653 171.847Z" fill="#4F56F1"/>
<path d="M32.1682 187.763H27.3729L40.421 134.489H45.2163L32.1682 187.763Z" fill="#4F56F1"/>
<path d="M58.7968 187.763H54.0062L67.0543 134.489H71.8449L58.7968 187.763Z" fill="#4F56F1"/>
<path d="M98.2992 0.823977V22.4037H97.2346V0.644028L98.2992 0.823977Z" fill="#4F56F1"/>
</g>
<defs>
<linearGradient id="paint0_linear" x1="48.1557" y1="118.776" x2="110.79" y2="228.076" gradientUnits="userSpaceOnUse">
<stop offset="0.01"/>
<stop offset="0.13" stop-opacity="0.69"/>
<stop offset="1" stop-opacity="0"/>
</linearGradient>
<linearGradient id="paint1_linear" x1="5423.13" y1="1181.45" x2="5502.63" y2="2379.82" gradientUnits="userSpaceOnUse">
<stop offset="0.01"/>
<stop offset="0.13" stop-opacity="0.69"/>
<stop offset="1" stop-opacity="0"/>
</linearGradient>
<linearGradient id="paint2_linear" x1="5120.14" y1="1221.36" x2="5199.64" y2="2419.73" gradientUnits="userSpaceOnUse">
<stop offset="0.01"/>
<stop offset="0.13" stop-opacity="0.69"/>
<stop offset="1" stop-opacity="0"/>
</linearGradient>
<linearGradient id="paint3_linear" x1="2033.78" y1="13256.8" x2="9167.87" y2="17448.4" gradientUnits="userSpaceOnUse">
<stop offset="0.01"/>
<stop offset="0.13" stop-opacity="0.69"/>
<stop offset="1" stop-opacity="0"/>
</linearGradient>
<linearGradient id="paint4_linear" x1="1245.46" y1="14552.4" x2="8378.94" y2="18742.8" gradientUnits="userSpaceOnUse">
<stop offset="0.01"/>
<stop offset="0.13" stop-opacity="0.69"/>
<stop offset="1" stop-opacity="0"/>
</linearGradient>
<radialGradient id="paint5_radial" cx="0" cy="0" r="1" gradientUnits="userSpaceOnUse" gradientTransform="translate(97.8706 52.8578) scale(19.3179 19.4204)">
<stop offset="0.34" stop-color="white"/>
<stop offset="1" stop-color="white" stop-opacity="0.39"/>
</radialGradient>
<linearGradient id="paint6_linear" x1="-110070" y1="-13547.3" x2="-110866" y2="-13547.3" gradientUnits="userSpaceOnUse">
<stop offset="0.01"/>
<stop offset="0.13" stop-opacity="0.69"/>
<stop offset="1" stop-opacity="0"/>
</linearGradient>
<linearGradient id="paint7_linear" x1="-123357" y1="-4462.52" x2="-124353" y2="-4462.52" gradientUnits="userSpaceOnUse">
<stop offset="0.01"/>
<stop offset="0.13" stop-opacity="0.69"/>
<stop offset="1" stop-opacity="0"/>
</linearGradient>
<linearGradient id="paint8_linear" x1="5496.81" y1="2748.26" x2="5392.61" y2="3379.73" gradientUnits="userSpaceOnUse">
<stop offset="0.01"/>
<stop offset="0.13" stop-opacity="0.69"/>
<stop offset="1" stop-opacity="0"/>
</linearGradient>
<linearGradient id="paint9_linear" x1="3905.04" y1="4750.53" x2="3384.27" y2="4789.45" gradientUnits="userSpaceOnUse">
<stop offset="0.01"/>
<stop offset="0.13" stop-opacity="0.69"/>
<stop offset="1" stop-opacity="0"/>
</linearGradient>
<linearGradient id="paint10_linear" x1="4776.36" y1="5068.32" x2="3526.17" y2="5080.89" gradientUnits="userSpaceOnUse">
<stop offset="0.01"/>
<stop offset="0.13" stop-opacity="0.69"/>
<stop offset="1" stop-opacity="0"/>
</linearGradient>
<linearGradient id="paint11_linear" x1="832.5" y1="3285.73" x2="1058.46" y2="3268.09" gradientUnits="userSpaceOnUse">
<stop offset="0.01"/>
<stop offset="0.13" stop-opacity="0.69"/>
<stop offset="1" stop-opacity="0"/>
</linearGradient>
<linearGradient id="paint12_linear" x1="2144.05" y1="3113.38" x2="2384.6" y2="2863.07" gradientUnits="userSpaceOnUse">
<stop offset="0.01"/>
<stop offset="0.13" stop-opacity="0.69"/>
<stop offset="1" stop-opacity="0"/>
</linearGradient>
<clipPath id="clip0">
<rect width="148" height="188" fill="white"/>
</clipPath>
</defs>
</svg>
