<svg xmlns="http://www.w3.org/2000/svg" viewBox="0 0 320 380">
    <defs>
        <style>.cls-1{fill:#f5f6fa;}.cls-2{fill:#e6ac63;}.cls-3{fill:#ebebeb;}.cls-4{fill:#e6b295;}.cls-5{fill:#7b9598;}.cls-6{fill:#1e3a4a;}.cls-7{fill:#1a3240;}.cls-8{fill:#d6cecf;}.cls-9{fill:#84a0a3;}.cls-10{fill:#c7bfc0;}.cls-11{fill:#542a0d;}</style>
    </defs>
    <title>Монтажная область 1</title>
    <g id="Слой">
        <rect class="cls-1" x="-506.41" y="-303.66" width="1600" height="1198"/>
    </g>
    <g id="Слой_3">
        <polygon class="cls-2" points="138.13 379.84 143.8 275.02 135.13 275.02 130.08 379.84 138.13 379.84"/>
        <polygon class="cls-2" points="125.94 379.84 131.6 275.02 122.94 275.02 117.88 379.84 125.94 379.84"/>
        <path class="cls-2" d="M114.91,355.89l.58-7a.31.31,0,0,1,.32-.29h94.61l1.44,7.6-96.64,0A.31.31,0,0,1,114.91,355.89Z"/>
        <polygon class="cls-2" points="213.49 379.84 201.58 324.02 196.76 329.26 205.74 379.84 213.49 379.84"/>
        <path class="cls-2" d="M111.7,279.17h0a5,5,0,0,0,4.8,5l53.2-.16v-4.84Z"/>
        <rect class="cls-3" x="86.77" y="90.34" width="134.16" height="189.67" rx="3" ry="3"/>
        <path class="cls-4" d="M234.19,240.66a85,85,0,0,1-.18,16.51c-2.11,15.11,1.48,19.13-3.8,20.25-11.2,2.39-9-38.73-9-38.73Z"/>
        <path class="cls-4" d="M200.55,129.67s-2.57,13.44,6.85,17.25c6.4,2.6-35.42.4-35.42.4Z"/>
        <path class="cls-5" d="M187.78,338.39a69.33,69.33,0,0,0,31.15-2.17l-8-73.86-23.15,3Z"/>
        <path class="cls-6" d="M176.78,379.84h22.85c-2.43-35.5-8.6-107.13-8.6-107.13l-21.1-4.35-2.67,40L175.6,379S176,379.33,176.78,379.84Z"/>
        <path class="cls-6" d="M245.65,379.84c-8.16-32.31-20.05-117.48-20.05-117.48L193.26,277l27.53,102.82Z"/>
        <path class="cls-7" d="M193.26,277l27.53,102.82h6.84c-8.7-60.5-16.29-69.68-27.54-105.92Z"/>
        <path class="cls-8" d="M172,272s16.11,5.5,29.25,5.5c11.34,0,20.65-6.63,22-9.16,2.53-4.62-5.49-27.7-5.49-27.7l-6.64,3.55h-9.55l-10.28-1.37Z"/>
        <path class="cls-5" d="M166.51,353.3l-15.64-7.93a2,2,0,0,1-1-1.9L164.14,232.3s8.12,6.39,17.79,7.06,14.24,2,14.24,2l5.41-5s9,3,12.35,0,8.62-10.69,8.62-10.69l.38,8.35s20,79.32,21.6,105.09a2,2,0,0,1-1,1.86l-8.64,5s-11.84-17.48-13.7-60.94c-1.62-37.77-25-40.66-25-40.66s-10.31,5-13.93,21C175.22,296.54,172.31,344.21,166.51,353.3Z"/>
        <path class="cls-8" d="M151,192s-11.22,12.65-28.5,15.17c-3.84.19-6.72-2.45-8.81-5.83a25.19,25.19,0,0,1-2.32-21l.85-2.66s2.81-5.71,8.59-5c2.08,0,3.08,6.29,5.41,8.63s9.34-8.63,9.34-8.63,9.19-13.44,15.44-17.47S176.3,141.17,196.8,143c10.8,1,29.73,1.8,34.46,26.35,2.12,11,6.62,37.15,4.62,73-.21,3.8-10.49,1.59-10.49,1.59l-4.28-16.36c-.68,4.15-5.49,12.45-24.94,13.73-27,1.76-34.81-4.92-36.54-26C158.46,201.2,152,199.2,151,192Z"/>
        <path class="cls-4" d="M112.26,177.69l-3-14.84a5.51,5.51,0,0,0-1.78-3l-5.36-4.62a8.33,8.33,0,0,1-2.9-6.31v-3.72a2.21,2.21,0,0,1,2.21-2.21h0l-.48-2.8a2.52,2.52,0,0,1,2.48-2.95h0l4.66,7.15a1.56,1.56,0,0,0,2.07.49h0a1.49,1.49,0,0,0,.64-2h0a4.54,4.54,0,0,0-1.79-2.67L107.42,139a2.83,2.83,0,0,1-1.16-3c.12-.75,1.56-.16,2,.07l4.42,2.55a2.36,2.36,0,0,1,1.16,1.91l.3,5.9a18.05,18.05,0,0,0,.77,4.43L121.63,173C114.26,173.78,112.26,177.69,112.26,177.69Z"/>
        <path class="cls-9" d="M217.63,237.47c-.51-2.34-5.31-4-8.73-3.57-4.45.57-9.2,7-9.2,7a25.1,25.1,0,0,0-5.82,2.71c-2.92,1.9-4.56,5.81-4.56,5.81s-5.7,1.07-8.63,3.88c-3.12,3-2.55,9.27.69,10.12,7.13,1.88,10.65-8.06,10.65-8.06,2.19,13.28-3.9,86-4.67,94.35a1,1,0,0,0,.76,1.06l3,.74a1,1,0,0,0,1.22-.78c5.46-30.54,4.82-99.16,4.82-99.16s.33-2.84,2.25-2.5,2.58,3.64,2.91,6.5c.5,4.23-.16,70.33.17,80.16.29,8.54-.8,26.13-1.1,30.61a1,1,0,0,0,1,1.06h2.24a1,1,0,0,0,.91-.59c3.27-7.2,3-97.61,3.12-103.91.2-8.4.93-11.57-2.28-15-1.53-1.63-5.42-2.23-4.71-3.65s6.54.1,11-.37S218.14,239.8,217.63,237.47Zm-30.12,14.75c-1.38,1.82-2.57,5-3.82,6.67-.65.85-2.64.94-2.53.44C182.38,253.48,188.05,251.49,187.51,252.22Zm19.59-11.13a14.59,14.59,0,0,0-4.53-.43A9.08,9.08,0,0,1,213,236.09C220.13,237.72,211.6,242.1,207.1,241.09Z"/>
        <path class="cls-10" d="M220.09,173.34c3,22.45,3.67,35.67,1,54.29Z"/>
        <path class="cls-10" d="M151,192s5.37,4.68,5.63,11.68C156.67,203.68,151.29,195.62,151,192Z"/>
        <path class="cls-8" d="M101.31,133.69l2.08-1.32-2.27-4.68-3.63,2.25Z"/>
        <path class="cls-2" d="M99.83,126.26l-3.24,2a.21.21,0,0,0-.06.3l1,1.4,3.63-2.25-1-1.37A.22.22,0,0,0,99.83,126.26Z"/>
        <path class="cls-2" d="M120.72,162.06h0a.73.73,0,0,0,.25-1l-13.12-21.73a3.32,3.32,0,0,1-1.58-2.62l-2.76-4.57a.91.91,0,0,0-1.25-.31l-1,.59a.91.91,0,0,0-.28,1.28l18.74,28.13A.73.73,0,0,0,120.72,162.06Z"/>
        <path class="cls-11" d="M182.88,85.34c-26.41,5-29.28,65.95-29.5,68.5,0,0,5.87-3.92,18-7.81,10.13-3.24,11.53-1.79,25.29-8C224.56,125.32,202.68,81.59,182.88,85.34Z"/>
    </g>
</svg>