<svg width="20" height="20" viewBox="0 0 20 20" fill="none" xmlns="http://www.w3.org/2000/svg">
    <path d="M13.7578 0.507812H1.24219C0.5625 0.507812 0 1.07031 0 1.75V9.25C0 9.92969 0.5625 10.4922 1.24219 10.4922H13.7344C14.4141 10.4922 14.9766 9.92969 14.9766 9.25V1.75C15 1.07031 14.4375 0.507812 13.7578 0.507812ZM12.2578 1.75L7.75781 4.49219C7.64062 4.5625 7.45312 4.5625 7.3125 4.49219L2.74219 1.75H12.2578ZM1.24219 9.25V2.3125L6.60938 5.57031C6.86719 5.75781 7.17188 5.82813 7.47656 5.82813C7.78125 5.82813 8.10938 5.75781 8.34375 5.57031L13.7109 2.3125V9.25H1.24219Z" fill="#878E99"/>
</svg>
