<svg width="20" height="20" viewBox="0 0 20 20" fill="none" xmlns="http://www.w3.org/2000/svg">
    <path d="M10.2734 4.45313V3.89063C10.2734 1.87501 8.77344 0.187506 6.82813 6.15511e-06C5.75 -0.0468688 4.67188 0.257819 3.92188 1.00782C3.17188 1.68751 2.72656 2.69532 2.72656 3.70313V4.45313C1.29688 4.78126 0.21875 6.02344 0.21875 7.54688V12C0.21875 13.6875 1.60156 15 3.21875 15H9.73438C11.4219 15 12.7344 13.6172 12.7344 12V7.54688C12.7812 6.02344 11.7031 4.78126 10.2734 4.45313ZM4.8125 1.94532C5.30469 1.45313 6.00781 1.26563 6.75781 1.31251C8.02344 1.42969 9.00781 2.57813 9.00781 3.93751V4.38282H3.99219V3.70313C3.99219 3.02344 4.29688 2.39063 4.8125 1.94532ZM11.5156 12.0469C11.5156 13.0547 10.6953 13.8047 9.75781 13.8047H3.24219C2.30469 13.8047 1.48438 12.9844 1.48438 12.0469V7.59376C1.48438 6.53907 2.35156 5.64844 3.42969 5.64844H9.57031C10.625 5.64844 11.5156 6.46876 11.5156 7.52344V12.0469Z" fill="#878E99"/>
</svg>
