<svg width="23" height="23" viewBox="0 0 23 23" fill="none" xmlns="http://www.w3.org/2000/svg">
    <path d="M19.1667 2.875H3.83333C3.30338 2.875 2.875 3.30433 2.875 3.83333V19.1667C2.875 19.6957 3.30338 20.125 3.83333 20.125H12.0894V13.455H9.84879V10.8435H12.0894V8.92687C12.0894 6.69875 13.4502 5.48454 15.4435 5.48454C16.1134 5.48263 16.7842 5.51712 17.4512 5.58708V7.90625H16.076C14.995 7.90625 14.7842 8.42183 14.7842 9.17604V10.8388H17.3688L17.0334 13.4502H14.7832V20.125H19.1667C19.6966 20.125 20.125 19.6957 20.125 19.1667V3.83333C20.125 3.30433 19.6966 2.875 19.1667 2.875Z" fill="currentColor"/>
</svg>
