<svg width="23" height="23" viewBox="0 0 23 23" fill="none" xmlns="http://www.w3.org/2000/svg">
    <path d="M20.0742 7.95898C20.0637 7.23352 19.9295 6.51381 19.6727 5.83531C19.2232 4.67669 18.308 3.76052 17.1494 3.31202C16.4795 3.05998 15.7713 2.92485 15.0545 2.90952C14.1325 2.86831 13.8403 2.85681 11.5 2.85681C9.15976 2.85681 8.8598 2.85681 7.94459 2.90952C7.22871 2.92485 6.52051 3.05998 5.85063 3.31202C4.69201 3.76052 3.77584 4.67669 3.32734 5.83531C3.0753 6.50519 2.93921 7.2134 2.9258 7.92927C2.88459 8.85214 2.87213 9.14444 2.87213 11.4847C2.87213 13.8249 2.87213 14.1239 2.9258 15.0401C2.94017 15.7569 3.0753 16.4642 3.32734 17.136C3.7768 18.2936 4.69201 19.2098 5.85159 19.6583C6.51859 19.919 7.2268 20.0666 7.94555 20.0896C8.86842 20.1308 9.16072 20.1432 11.501 20.1432C13.8412 20.1432 14.1412 20.1432 15.0564 20.0896C15.7723 20.0752 16.4805 19.9401 17.1513 19.688C18.3099 19.2386 19.2251 18.3224 19.6746 17.1647C19.9266 16.4939 20.0618 15.7866 20.0761 15.0689C20.1173 14.1469 20.1298 13.8546 20.1298 11.5134C20.1279 9.17319 20.1279 8.8761 20.0742 7.95898ZM11.4943 15.9103C9.04667 15.9103 7.06388 13.9275 7.06388 11.4799C7.06388 9.03231 9.04667 7.04952 11.4943 7.04952C13.9399 7.04952 15.9246 9.03231 15.9246 11.4799C15.9246 13.9275 13.9399 15.9103 11.4943 15.9103ZM16.101 7.91873C15.5288 7.91873 15.0679 7.45681 15.0679 6.88564C15.0679 6.31448 15.5288 5.85256 16.101 5.85256C16.6712 5.85256 17.1331 6.31448 17.1331 6.88564C17.1331 7.45681 16.6712 7.91873 16.101 7.91873Z" fill="currentColor"/>
    <path d="M11.4943 14.3578C13.0837 14.3578 14.3721 13.0693 14.3721 11.4799C14.3721 9.89052 13.0837 8.60205 11.4943 8.60205C9.90486 8.60205 8.61639 9.89052 8.61639 11.4799C8.61639 13.0693 9.90486 14.3578 11.4943 14.3578Z" fill="currentColor"/>
</svg>
