<svg width="23" height="23" viewBox="0 0 23 23" fill="none" xmlns="http://www.w3.org/2000/svg">
    <path d="M19.1667 2.875H3.83333C3.30338 2.875 2.875 3.30433 2.875 3.83333V19.1667C2.875 19.6957 3.30338 20.125 3.83333 20.125H19.1667C19.6966 20.125 20.125 19.6957 20.125 19.1667V3.83333C20.125 3.30433 19.6966 2.875 19.1667 2.875ZM7.99154 17.573H5.43087V9.34087H7.99154V17.573ZM6.71121 8.21675C5.89087 8.21675 5.22771 7.55167 5.22771 6.73325C5.22771 5.91483 5.88992 5.24975 6.71121 5.24975C7.52962 5.24975 8.19471 5.91387 8.19471 6.73325C8.19471 7.55263 7.52962 8.21675 6.71121 8.21675ZM17.5739 17.573H15.0161V13.57C15.0161 12.6155 14.9989 11.3879 13.686 11.3879C12.3539 11.3879 12.1517 12.4286 12.1517 13.5029V17.5739H9.59579V9.34183H12.0491V10.4669H12.0846C12.4248 9.82004 13.2605 9.13771 14.5034 9.13771C17.0947 9.13771 17.573 10.8416 17.573 13.0592V17.573H17.5739Z" fill="currentColor"/>
</svg>
