<svg width="23" height="23" viewBox="0 0 23 23" fill="none" xmlns="http://www.w3.org/2000/svg">
    <g clip-path="url(#clip0)">
        <path d="M21.6975 0.120814C21.5565 0.00172589 21.3793 -0.0634108 21.1957 0.0886048C19.6494 1.3687 13.7599 6.31428 13.7599 6.31428L15.6704 7.85968C15.6704 7.85968 20.4838 2.12761 21.7296 0.622591C21.8817 0.438995 21.8166 0.261779 21.6975 0.120814Z" fill="currentColor"/>
        <path d="M21.2612 11.5724L14.0765 4.38775L17.0713 1.39294C8.29556 1.39294 1.18146 8.5071 1.18146 17.2828C1.18146 17.8686 1.21313 18.4472 1.27494 19.0166C6.19779 19.0172 6.83398 23 15.6684 23C15.6684 19.2689 11.602 17.6333 11.602 12.741C12.6811 13.1248 13.889 13.0442 14.9145 12.4985L19.32 13.5137C19.856 14.0497 20.7252 14.0497 21.2612 13.5137C21.7972 12.9776 21.7972 12.1085 21.2612 11.5724Z" fill="currentColor"/>
        <path d="M21.2612 11.5724L15.0852 5.39637C13.5114 4.43778 11.4304 4.63795 10.0696 5.99877C8.47281 7.59557 8.47281 10.1845 10.0696 11.7813C11.3833 13.0951 13.3683 13.3269 14.9201 12.4789L14.9146 12.4984L19.32 13.5137C19.8561 14.0498 20.7252 14.0498 21.2613 13.5137C21.7972 12.9776 21.7972 12.1085 21.2612 11.5724Z" fill="currentColor"/>
    </g>
    <defs>
        <clipPath id="clip0">
            <rect width="23" height="23" fill="white"/>
        </clipPath>
    </defs>
</svg>
