<svg width="23" height="23" viewBox="0 0 23 23" fill="none" xmlns="http://www.w3.org/2000/svg">
    <path d="M18.815 7.66381C18.8274 7.83152 18.8274 7.99827 18.8274 8.16502C18.8274 13.2681 14.9433 19.1485 7.84494 19.1485C5.65802 19.1485 3.62635 18.515 1.91669 17.4149C2.22719 17.4503 2.52619 17.4628 2.84915 17.4628C4.65369 17.4628 6.31448 16.8533 7.64177 15.8135C5.94456 15.778 4.5224 14.6664 4.03173 13.1369C4.27035 13.1723 4.50994 13.1963 4.76102 13.1963C5.10698 13.1963 5.45485 13.1484 5.77781 13.065C4.00777 12.7066 2.6824 11.1531 2.6824 9.27669V9.22877C3.19702 9.51531 3.79406 9.69452 4.42656 9.71848C3.38677 9.02656 2.7054 7.84302 2.7054 6.50423C2.7054 5.7874 2.8961 5.12998 3.23056 4.5569C5.13094 6.8981 7.98773 8.42856 11.1905 8.59627C11.1311 8.30877 11.0946 8.01073 11.0946 7.71173C11.0946 5.58423 12.8158 3.85156 14.9548 3.85156C16.0665 3.85156 17.0699 4.31731 17.7752 5.07056C18.6473 4.90285 19.4829 4.5799 20.2247 4.1381C19.9381 5.03415 19.3277 5.7874 18.5275 6.2656C19.3047 6.18127 20.0579 5.9666 20.7499 5.6676C20.2247 6.43235 19.5682 7.11373 18.815 7.66381Z" fill="currentColor"/>
</svg>
