<svg width="23" height="23" viewBox="0 0 23 23" fill="none" xmlns="http://www.w3.org/2000/svg">
    <path d="M20.6799 6.56941C20.8141 6.12379 20.6799 5.797 20.0455 5.797H17.9439C17.4091 5.797 17.1647 6.07971 17.0306 6.39021C17.0306 6.39021 15.962 8.99591 14.4479 10.6855C13.9591 11.1771 13.7358 11.3323 13.4694 11.3323C13.3362 11.3323 13.1426 11.1771 13.1426 10.7315V6.56941C13.1426 6.03466 12.9883 5.797 12.5427 5.797H9.24027C8.90677 5.797 8.70552 6.04425 8.70552 6.28C8.70552 6.786 9.4626 6.90291 9.54023 8.32891V11.4224C9.54023 12.1 9.41852 12.2236 9.15019 12.2236C8.43815 12.2236 6.70548 9.60829 5.67719 6.61446C5.4769 6.03275 5.27469 5.79796 4.73802 5.79796H2.63735C2.03648 5.79796 1.91669 6.08066 1.91669 6.39116C1.91669 6.94891 2.62873 9.70891 5.23348 13.3592C6.96998 15.8518 9.41469 17.2031 11.6419 17.2031C12.9768 17.2031 13.1416 16.9031 13.1416 16.3856V14.5015C13.1416 13.9016 13.2691 13.7809 13.6917 13.7809C14.0022 13.7809 14.537 13.938 15.7838 15.1388C17.2079 16.5629 17.4436 17.2021 18.2438 17.2021H20.3445C20.9444 17.2021 21.2444 16.9022 21.0719 16.3099C20.8831 15.7205 20.2026 14.8628 19.2999 13.848C18.8092 13.2691 18.0761 12.6462 17.8528 12.3347C17.5414 11.9332 17.6314 11.7559 17.8528 11.3994C17.8538 11.4004 20.4135 7.79512 20.6799 6.56941Z" fill="currentColor"/>
</svg>
