<svg width="23" height="23" viewBox="0 0 23 23" fill="none" xmlns="http://www.w3.org/2000/svg">
    <path d="M11.5 0C5.1589 0 0 5.1589 0 11.5C0 17.8411 5.1589 23 11.5 23C17.8411 23 23 17.8411 23 11.5C23 5.1589 17.8411 0 11.5 0ZM2.3 11.5C2.3 10.4661 2.4794 9.4737 2.79565 8.54565L4.6 10.35L6.9 12.65V14.95L9.2 17.25L10.35 18.4V20.6206C5.82015 20.0514 2.3 16.1828 2.3 11.5ZM18.7795 17.1039C18.0285 16.499 16.89 16.1 16.1 16.1V14.95C16.1 13.6804 15.0696 12.65 13.8 12.65H9.2V10.35V9.2C10.4696 9.2 11.5 8.1696 11.5 6.9V5.75H12.65C13.9196 5.75 14.95 4.7196 14.95 3.45V2.97735C18.3172 4.3447 20.7 7.6475 20.7 11.5C20.7 13.6102 19.9789 15.5503 18.7795 17.1039Z" fill="currentColor"/>
</svg>
