<svg width="23" height="23" viewBox="0 0 23 23" fill="none" xmlns="http://www.w3.org/2000/svg">
    <path fill-rule="evenodd" clip-rule="evenodd" d="M5.75 21.9254C4.16219 21.9254 2.875 20.6382 2.875 19.0504V9.46705C2.875 9.43457 2.87662 9.40246 2.87977 9.3708H2.875C2.875 8.81884 3.09427 8.28948 3.48457 7.89918L9.46707 1.91669C10.5898 0.793926 12.4101 0.793926 13.5329 1.91669L19.5154 7.8992C19.9057 8.28949 20.125 8.81884 20.125 9.3708H20.1202C20.1234 9.40246 20.125 9.43457 20.125 9.46705V19.0504C20.125 20.6382 18.8379 21.9254 17.25 21.9254H5.75ZM12.1776 3.27197L18.2083 9.30267V19.0504C18.2083 19.5796 17.7793 20.0088 17.25 20.0088H14.375V15.2171C14.375 13.6292 13.0879 12.3421 11.5 12.3421C9.91214 12.3421 8.625 13.6292 8.625 15.2171V20.0088H5.75C5.22073 20.0088 4.79167 19.5796 4.79167 19.0504V9.30273L10.8224 3.27197C11.1966 2.89772 11.8034 2.89772 12.1776 3.27197Z" fill="currentColor"/>
</svg>
