<svg width="23" height="23" viewBox="0 0 23 23" fill="none" xmlns="http://www.w3.org/2000/svg">
    <path fill-rule="evenodd" clip-rule="evenodd" d="M2.88436 5.59466C2.88436 5.06539 3.31342 4.63632 3.8427 4.63632H19.1667C19.696 4.63632 20.125 5.06539 20.125 5.59466V16.447C20.125 17.5056 19.2669 18.3637 18.2083 18.3637H4.79167C3.73312 18.3637 2.875 17.5056 2.875 16.447V5.90537C2.875 5.85973 2.87819 5.81484 2.88436 5.7709V5.59466ZM4.79167 7.72576V16.447H18.2083V7.72608L13.5331 12.4013C12.4103 13.5241 10.59 13.5241 9.46723 12.4013L4.79167 7.72576ZM6.29847 6.52199H16.7018L12.1778 11.046C11.8036 11.4203 11.1968 11.4203 10.8226 11.046L6.29847 6.52199Z" fill="currentColor"/>
</svg>
