<svg width="512" height="390" viewBox="0 0 512 390" fill="none" xmlns="http://www.w3.org/2000/svg">
    <g clip-path="url(#clip0)">
        <path opacity="0.18" d="M227.008 0.373652C224.624 0.290519 222.255 0.235098 219.9 0.179676C182.088 -0.610083 143.501 0.664617 107.795 13.1207C72.0899 25.5767 39.1833 50.8213 25.4525 86.0141C18.3447 104.289 16.6682 124.13 14.0218 143.556C9.07541 179.982 0.471183 216.089 0.0139535 252.834C-0.443276 289.578 8.32722 328.263 33.558 355.031C77.3273 401.53 138.042 373.972 190.124 361.446C221.034 354.04 253.188 353.468 284.341 359.77C304.903 363.926 324.758 371.09 345.305 375.496C360.089 378.669 375.469 380.414 390.529 378.461C404.995 376.59 416.148 369.69 429.325 364.134C454.403 353.493 479.759 339.943 495.748 317.095C508.002 299.159 513.626 277.515 511.654 255.882C506.735 198.853 453.461 174.911 425.958 130.088C409.941 104.04 399.023 74.5002 378.42 51.9159C341.454 11.458 282.235 2.13329 227.008 0.373652Z" fill="#4F56F1"/>
        <path d="M308.658 57.846V340.705C308.658 347.257 306.055 353.54 301.422 358.173C296.789 362.806 290.505 365.409 283.953 365.409H161.527C154.975 365.409 148.691 362.806 144.058 358.173C139.425 353.54 136.823 347.257 136.823 340.705V57.846C136.821 54.6007 137.458 51.3867 138.699 48.3879C139.94 45.389 141.759 42.664 144.053 40.3685C146.348 38.0731 149.071 36.2521 152.07 35.0098C155.068 33.7674 158.281 33.1279 161.527 33.1279H283.953C287.199 33.1279 290.412 33.7674 293.411 35.0098C296.409 36.2521 299.133 38.0731 301.427 40.3685C303.721 42.664 305.54 45.389 306.781 48.3879C308.022 51.3867 308.659 54.6007 308.658 57.846Z" fill="#4F56F1"/>
        <path d="M281.376 37.3271H164.09C150.898 37.3271 140.203 48.0216 140.203 61.2139V336.812C140.203 350.005 150.898 360.699 164.09 360.699H281.376C294.568 360.699 305.263 350.005 305.263 336.812V61.2139C305.263 48.0216 294.568 37.3271 281.376 37.3271Z" fill="#473F47"/>
        <path d="M300.774 63.9147V330.784C300.712 336.834 298.249 342.612 293.929 346.847C289.608 351.082 283.782 353.428 277.732 353.369H167.845C163.83 353.381 159.882 352.35 156.386 350.376C152.881 348.441 149.957 345.604 147.915 342.16C145.874 338.715 144.79 334.788 144.775 330.784V63.9147C144.841 57.8611 147.308 52.0814 151.634 47.8464C155.96 43.6113 161.791 41.2675 167.845 41.3303H186.411V44.6141C186.458 46.7684 187.141 48.8608 188.373 50.6283C189.606 52.3958 191.333 53.7596 193.339 54.5484C194.684 55.0791 196.118 55.3517 197.565 55.352H248.608C251.531 55.3706 254.343 54.2338 256.432 52.1889C258.521 50.1441 259.718 47.3568 259.762 44.4339V41.3303H277.774C283.684 41.3173 289.377 43.5568 293.694 47.593C295.93 49.6823 297.713 52.2095 298.931 55.0175C300.149 57.8254 300.777 60.8539 300.774 63.9147Z" fill="white"/>
        <path opacity="0.31" d="M230.014 222.851H166.154C165.045 222.851 164.145 223.75 164.145 224.86V224.873C164.145 225.983 165.045 226.883 166.154 226.883H230.014C231.124 226.883 232.023 225.983 232.023 224.873V224.86C232.023 223.75 231.124 222.851 230.014 222.851Z" fill="#4F56F1"/>
        <path opacity="0.31" d="M230.014 232.702H166.154C165.045 232.702 164.145 233.602 164.145 234.711V234.725C164.145 235.835 165.045 236.734 166.154 236.734H230.014C231.124 236.734 232.023 235.835 232.023 234.725V234.711C232.023 233.602 231.124 232.702 230.014 232.702Z" fill="#4F56F1"/>
        <path opacity="0.18" d="M308.658 186.563H136.809V197.357H308.658V186.563Z" fill="#4F56F1"/>
        <path d="M111.107 159.338H320.407C324.129 159.338 327.699 160.817 330.332 163.449C332.964 166.081 334.443 169.651 334.443 173.373C334.443 177.096 332.964 180.666 330.332 183.298C327.699 185.93 324.129 187.409 320.407 187.409H111.107V159.338Z" fill="#4F56F1"/>
        <path d="M280.115 159.338H111.107V187.395H280.115V159.338Z" fill="white"/>
        <path d="M305.207 178.555C308.949 178.555 311.983 175.521 311.983 171.779C311.983 168.037 308.949 165.004 305.207 165.004C301.466 165.004 298.432 168.037 298.432 171.779C298.432 175.521 301.466 178.555 305.207 178.555Z" stroke="white" stroke-width="1.45" stroke-miterlimit="10"/>
        <path d="M311.401 182.795L308.63 177.627" stroke="white" stroke-width="1.45" stroke-miterlimit="10"/>
        <path d="M270.139 212.861H167.387C165.597 212.861 164.145 214.313 164.145 216.104C164.145 217.894 165.597 219.346 167.387 219.346H270.139C271.93 219.346 273.382 217.894 273.382 216.104C273.382 214.313 271.93 212.861 270.139 212.861Z" fill="#4F56F1"/>
        <path opacity="0.31" d="M230.014 256.755H166.154C165.045 256.755 164.145 257.654 164.145 258.764V258.778C164.145 259.887 165.045 260.787 166.154 260.787H230.014C231.124 260.787 232.023 259.887 232.023 258.778V258.764C232.023 257.654 231.124 256.755 230.014 256.755Z" fill="#4F56F1"/>
        <path opacity="0.31" d="M230.014 266.606H166.154C165.045 266.606 164.145 267.506 164.145 268.615V268.629C164.145 269.739 165.045 270.638 166.154 270.638H230.014C231.124 270.638 232.023 269.739 232.023 268.629V268.615C232.023 267.506 231.124 266.606 230.014 266.606Z" fill="#4F56F1"/>
        <path d="M270.139 246.751H167.387C165.597 246.751 164.145 248.203 164.145 249.993C164.145 251.784 165.597 253.235 167.387 253.235H270.139C271.93 253.235 273.382 251.784 273.382 249.993C273.382 248.203 271.93 246.751 270.139 246.751Z" fill="#4F56F1"/>
        <path opacity="0.31" d="M230.014 290.646H166.154C165.045 290.646 164.145 291.545 164.145 292.655V292.668C164.145 293.778 165.045 294.677 166.154 294.677H230.014C231.124 294.677 232.023 293.778 232.023 292.668V292.655C232.023 291.545 231.124 290.646 230.014 290.646Z" fill="#4F56F1"/>
        <path opacity="0.31" d="M230.014 300.511H166.154C165.045 300.511 164.145 301.41 164.145 302.52V302.534C164.145 303.643 165.045 304.543 166.154 304.543H230.014C231.124 304.543 232.023 303.643 232.023 302.534V302.52C232.023 301.41 231.124 300.511 230.014 300.511Z" fill="#4F56F1"/>
        <path d="M270.139 280.655H167.387C165.597 280.655 164.145 282.107 164.145 283.897C164.145 285.688 165.597 287.14 167.387 287.14H270.139C271.93 287.14 273.382 285.688 273.382 283.897C273.382 282.107 271.93 280.655 270.139 280.655Z" fill="#4F56F1"/>
        <g opacity="0.41">
            <path opacity="0.41" d="M286.614 118.339C294.097 118.331 301.535 119.495 308.658 121.789V111.661C296.498 108.262 283.716 107.724 271.313 110.087C258.91 112.45 247.223 117.652 237.165 125.284C227.106 132.916 218.951 142.772 213.336 154.081C207.721 165.39 204.8 177.845 204.8 190.471C204.8 203.097 207.721 215.552 213.336 226.86C218.951 238.169 227.106 248.026 237.165 255.658C247.223 263.29 258.91 268.491 271.313 270.855C283.716 273.218 296.498 272.679 308.658 269.281V259.152C298.74 262.335 288.251 263.332 277.912 262.075C267.572 260.818 257.628 257.337 248.762 251.871C239.896 246.405 232.319 239.083 226.551 230.41C220.784 221.737 216.964 211.917 215.353 201.627C213.742 191.337 214.379 180.82 217.219 170.799C220.06 160.778 225.037 151.491 231.808 143.577C238.58 135.663 246.985 129.309 256.445 124.953C265.906 120.596 276.198 118.34 286.614 118.339Z" fill="url(#paint0_linear)"/>
        </g>
        <path d="M290.978 268.352C274.79 268.352 258.966 263.551 245.507 254.555C232.048 245.56 221.56 232.775 215.369 217.817C209.178 202.86 207.562 186.403 210.726 170.527C213.89 154.651 221.692 140.07 233.145 128.63C244.597 117.189 259.186 109.402 275.065 106.254C290.944 103.106 307.4 104.738 322.351 110.944C337.302 117.151 350.076 127.652 359.058 141.12C368.039 154.588 372.825 170.417 372.808 186.605C372.761 208.285 364.121 229.063 348.783 244.385C333.445 259.708 312.658 268.326 290.978 268.352ZM290.978 114.39C276.715 114.39 262.773 118.619 250.912 126.541C239.052 134.463 229.807 145.724 224.345 158.899C218.883 172.074 217.45 186.573 220.226 200.563C223.003 214.553 229.865 227.406 239.944 237.497C250.023 247.588 262.868 254.464 276.855 257.257C290.842 260.05 305.342 258.633 318.524 253.186C331.706 247.74 342.977 238.507 350.913 226.656C358.849 214.805 363.093 200.867 363.109 186.605C363.102 167.473 355.501 149.126 341.977 135.594C328.452 122.061 310.11 114.45 290.978 114.432V114.39Z" fill="#4F56F1"/>
        <path d="M401.808 307.771C400.704 307.772 399.611 307.553 398.593 307.127C397.575 306.701 396.652 306.077 395.878 305.291L342.257 250.881C341.487 250.103 340.879 249.182 340.466 248.169C340.053 247.157 339.844 246.072 339.851 244.979C339.858 243.885 340.08 242.804 340.506 241.796C340.932 240.789 341.552 239.875 342.331 239.108C343.11 238.34 344.033 237.734 345.047 237.324C346.061 236.914 347.146 236.708 348.239 236.718C349.333 236.728 350.414 236.954 351.42 237.382C352.426 237.81 353.338 238.433 354.103 239.214L407.724 293.625C408.873 294.792 409.652 296.273 409.963 297.881C410.274 299.49 410.102 301.154 409.47 302.665C408.838 304.177 407.774 305.467 406.41 306.376C405.047 307.284 403.446 307.77 401.808 307.771Z" fill="#4F56F1"/>
        <path d="M427.496 325.062C426.581 325.967 425.496 326.683 424.304 327.168C423.111 327.654 421.835 327.899 420.548 327.89C419.261 327.881 417.988 327.618 416.803 327.116C415.617 326.614 414.543 325.883 413.64 324.965L350.515 260.898C350.162 260.549 349.842 260.169 349.559 259.762C349.393 259.54 349.24 259.318 349.102 259.096C348.652 258.339 348.448 257.461 348.518 256.583C348.587 255.704 348.927 254.869 349.49 254.192C350.716 252.731 352.055 251.369 353.494 250.118C355.146 248.65 356.938 247.346 358.842 246.225C359.619 245.758 360.523 245.549 361.426 245.626C362.329 245.703 363.185 246.063 363.872 246.654C364.062 246.804 364.242 246.966 364.412 247.139L427.648 311.221C428.548 312.139 429.257 313.226 429.737 314.419C430.216 315.612 430.455 316.887 430.441 318.173C430.427 319.459 430.16 320.729 429.654 321.911C429.149 323.093 428.415 324.164 427.496 325.062Z" fill="#473F47"/>
        <path opacity="0.18" d="M200.488 102.628V130.837C200.488 134.535 199.023 138.083 196.413 140.703C193.803 143.323 190.262 144.803 186.564 144.817H136.823V88.6475H186.564C190.262 88.6621 193.803 90.1415 196.413 92.7617C199.023 95.3819 200.488 98.9294 200.488 102.628Z" fill="#4F56F1"/>
        <path d="M184.097 81.2344H91.5151C83.794 81.2344 77.5349 87.4935 77.5349 95.2145V123.424C77.5349 131.145 83.794 137.404 91.5151 137.404H184.097C191.818 137.404 198.077 131.145 198.077 123.424V95.2145C198.077 87.4935 191.818 81.2344 184.097 81.2344Z" fill="white"/>
        <path d="M193.851 92.9974C199.415 92.9974 203.924 88.4876 203.924 82.9245C203.924 77.3613 199.415 72.8516 193.851 72.8516C188.288 72.8516 183.779 77.3613 183.779 82.9245C183.779 88.4876 188.288 92.9974 193.851 92.9974Z" fill="#4F56F1"/>
        <path d="M169.563 99.1777H104.11C102.579 99.1777 101.339 100.418 101.339 101.949V101.963C101.339 103.493 102.579 104.734 104.11 104.734H169.563C171.093 104.734 172.334 103.493 172.334 101.963V101.949C172.334 100.418 171.093 99.1777 169.563 99.1777Z" fill="#4F56F1"/>
        <path d="M169.563 113.961H104.11C102.579 113.961 101.339 115.202 101.339 116.732V116.746C101.339 118.276 102.579 119.517 104.11 119.517H169.563C171.093 119.517 172.334 118.276 172.334 116.746V116.732C172.334 115.202 171.093 113.961 169.563 113.961Z" fill="#4F56F1"/>
        <path d="M421.108 368.707C421.701 369.448 422.058 370.35 422.132 371.297C422.206 372.243 421.994 373.189 421.524 374.014C421.031 374.8 420.302 375.41 419.44 375.756C418.579 376.102 417.63 376.166 416.73 375.94C416.413 375.86 416.119 375.708 415.871 375.496C415.358 374.997 415.275 374.111 414.79 373.612C414.286 373.197 413.677 372.929 413.031 372.836C411.886 372.417 410.807 371.834 409.83 371.104C409.672 371.014 409.535 370.892 409.428 370.744C409.33 370.561 409.277 370.356 409.276 370.148C409.039 369.084 409.202 367.969 409.733 367.017C410.024 366.66 410.382 366.364 410.786 366.144C411.549 365.671 412.424 365.408 413.322 365.382C414.021 365.43 414.709 365.589 415.358 365.853C417.2 366.382 418.929 367.247 420.457 368.402" fill="#4F56F1"/>
        <path d="M417.52 360.214L420.609 370.855C420.609 370.855 420.028 373.529 416.758 372.407C413.488 371.284 410.744 362.902 410.744 362.902L417.52 360.214Z" fill="#FCBDBA"/>
        <path d="M384.904 382.465C384.062 382.322 383.208 382.262 382.355 382.285C381.927 382.304 381.507 382.409 381.121 382.595C380.735 382.781 380.391 383.043 380.11 383.366C379.705 384.019 379.543 384.795 379.655 385.556C379.766 386.316 380.144 387.013 380.72 387.522C381.882 388.483 383.306 389.072 384.807 389.213C385.719 389.421 386.666 389.421 387.578 389.213C388.728 388.88 389.823 387.924 390.973 388.284C391.475 388.494 391.942 388.779 392.358 389.13C393.144 389.698 394.116 389.947 395.078 389.826C396.04 389.705 396.92 389.224 397.54 388.478C397.873 387.981 398.113 387.427 398.247 386.843C398.732 385.001 398.51 382.687 396.986 381.62C395.185 380.331 393.785 381.218 392.053 381.814C389.743 382.534 387.306 382.756 384.904 382.465Z" fill="#4F56F1"/>
        <path d="M386.4 372.143L390.917 383.228C390.917 383.228 393.508 384.793 395.351 384.101L397.166 383.352L395.573 367.876L386.4 372.143Z" fill="#FCBDBA"/>
        <path d="M352.829 259.47C352.524 259.069 352.122 258.625 351.637 258.694C351.152 258.764 351.069 258.958 350.778 258.875C350.597 258.81 350.441 258.689 350.335 258.528C349.645 257.797 348.879 257.142 348.049 256.575C347.543 256.13 346.933 255.82 346.275 255.674C345.796 255.65 345.32 255.769 344.908 256.015C344.496 256.262 344.166 256.625 343.961 257.059C343.548 257.922 343.446 258.901 343.67 259.831C343.915 260.76 344.288 261.651 344.779 262.477C345.076 263.096 345.454 263.674 345.901 264.195C347.287 265.705 349.587 265.955 351.443 266.883C351.641 267.004 351.864 267.08 352.094 267.105C352.292 267.072 352.478 266.994 352.639 266.876C352.801 266.758 352.932 266.604 353.023 266.426C353.74 265.402 354.175 264.207 354.284 262.962C354.184 261.673 353.674 260.449 352.829 259.47Z" fill="#FCBDBA"/>
        <path d="M370.841 247.458C370.618 247.396 370.381 247.421 370.176 247.527C370.061 247.62 369.958 247.727 369.871 247.846C369.483 248.262 368.846 248.276 368.319 248.511C367.981 248.682 367.683 248.922 367.444 249.215C367.206 249.509 367.032 249.85 366.934 250.215C366.75 250.944 366.671 251.695 366.698 252.446C366.663 252.843 366.705 253.243 366.823 253.624C366.885 253.809 366.999 253.973 367.151 254.096C367.303 254.218 367.488 254.295 367.682 254.316C367.997 254.259 368.296 254.132 368.555 253.942C369.083 253.653 369.695 253.555 370.287 253.665C371.047 253.911 371.773 254.251 372.448 254.677C372.792 254.88 373.185 254.988 373.584 254.988C373.984 254.988 374.376 254.88 374.72 254.677C375.027 254.401 375.269 254.06 375.427 253.679C376.051 252.294 376.813 250.756 375.427 249.633C374.127 248.502 372.54 247.749 370.841 247.458Z" fill="#FCBDBA"/>
        <path d="M412.019 298.377C411.695 304.205 411.042 310.011 410.066 315.766C408.819 321.474 408.07 327.958 408.07 327.958L419.612 361.211C419.612 361.211 412.587 365.881 408.07 364.066C403.554 362.251 392.123 336.757 392.123 336.757L387.772 307.757L399.286 294.539L412.019 298.377Z" fill="#473F47"/>
        <path d="M380.165 296.062C380.165 296.062 371.935 323.039 371.935 330.05C371.935 337.061 381.8 371.616 381.8 371.616C381.8 371.616 392.511 375.246 395.018 371.616L397.526 367.986L391.499 333.209C391.499 333.209 400.034 315.058 401.544 310.389C402.458 307.511 403.112 304.558 403.498 301.563L380.165 296.062Z" fill="#473F47"/>
        <path d="M383.629 222.172C382.667 224.095 382.052 226.173 381.814 228.31C381.706 229.368 381.875 230.435 382.305 231.407C382.735 232.379 383.411 233.222 384.267 233.852C384.79 234.102 385.279 234.419 385.721 234.795C387.273 236.374 385.5 239.242 386.386 241.293C386.744 241.952 387.33 242.457 388.035 242.712C388.74 242.968 389.514 242.955 390.211 242.678C390.893 242.357 391.495 241.888 391.974 241.306C392.453 240.724 392.797 240.043 392.982 239.311C393.38 237.826 393.557 236.29 393.508 234.753L393.661 225.595C393.878 223.557 393.558 221.498 392.732 219.623C392.182 218.655 391.37 217.861 390.39 217.332C389.41 216.803 388.301 216.56 387.19 216.63C385.056 217.087 384.405 220.385 383.629 222.172Z" fill="#FCBDBA"/>
        <path d="M351.679 267.895C351.679 267.895 369.247 283.593 370.494 283.593C371.741 283.593 379.542 273.728 379.542 273.728L380.165 296.049C382.335 297.33 384.595 298.45 386.927 299.402C390.723 300.954 395.531 302.395 399.729 302.007C408.264 301.231 412.019 298.377 412.019 298.377L406.768 245.809C406.768 245.809 396.82 238.646 393.425 239.741C390.992 240.175 388.501 240.175 386.068 239.741C381.163 239.103 376.147 245.809 376.147 245.809L369.621 267.244L354.311 261.812C353.311 262.444 352.525 263.362 352.055 264.447C351.586 265.532 351.454 266.734 351.679 267.895Z" fill="#4F56F1"/>
        <path d="M385.112 212.238C386.955 210.561 391.125 209.868 393.162 209.647C394.727 209.424 396.322 209.539 397.84 209.983C399.357 210.428 400.762 211.192 401.96 212.224C405.285 215.383 405.632 220.537 405.59 225.276C405.549 230.014 405.479 235.099 408.25 238.702C410.634 241.778 414.527 243.052 417.561 245.422C419.059 246.532 420.304 247.95 421.212 249.579C422.12 251.208 422.67 253.012 422.826 254.871C423.533 269.114 401.78 263.004 394.589 259.831C393.317 259.34 392.147 258.617 391.139 257.697C390.076 256.548 389.293 255.168 388.853 253.665C387.165 248.575 387.452 243.036 389.656 238.147C389.989 237.427 390.349 236.526 389.892 235.889C389.642 235.607 389.329 235.388 388.978 235.252C388.058 234.87 387.268 234.232 386.7 233.414C386.133 232.596 385.812 231.633 385.777 230.638C386.075 229.178 386.732 227.816 387.689 226.675C388.159 226.104 388.482 225.427 388.632 224.703C388.781 223.979 388.753 223.229 388.548 222.518C388.049 221.396 386.858 220.842 385.971 220.024C384.419 218.639 383.297 214.912 384.585 212.917C384.733 212.67 384.909 212.442 385.112 212.238Z" fill="#F6A569"/>
    </g>
    <defs>
        <linearGradient id="paint0_linear" x1="187.672" y1="501.428" x2="421.136" y2="-433.869" gradientUnits="userSpaceOnUse">
            <stop offset="0.01"/>
            <stop offset="0.08" stop-opacity="0.69"/>
            <stop offset="0.21" stop-opacity="0.32"/>
            <stop offset="1" stop-opacity="0"/>
        </linearGradient>
        <clipPath id="clip0">
            <rect width="512" height="389.864" fill="white"/>
        </clipPath>
    </defs>
</svg>
